<svg width="343" height="160" viewBox="0 0 343 160" fill="none" xmlns="http://www.w3.org/2000/svg">
<rect width="343" height="160" fill="#F7F7F7"/>
<path d="M94.1936 90.4262H97.7345V89.6393H99.9772C101.807 89.6393 103.184 88.2426 103.184 86.4131V84.7016H103.892C104.876 84.7016 105.584 83.7967 105.584 82.7738V78.6426C105.584 77.482 104.698 76.6951 103.656 76.6951H102.948C102.535 71.7377 98.5608 69.6131 94.9018 69.6131C91.3804 69.6131 87.387 71.7377 86.9345 76.6951H86.364C85.3214 76.6951 84.4165 77.482 84.4165 78.6426V82.7738C84.4165 83.7967 85.1444 84.7016 86.128 84.7016L89.9444 84.7213C90.2591 84.7213 90.4952 84.4852 90.4952 84.1705V77.2459C90.4952 76.9311 90.2591 76.6951 89.9444 76.6951H88.5083C88.9411 72.6623 92.1477 71.0885 94.9018 71.0885C97.7936 71.0885 101 72.6623 101.374 76.6951H100.076C99.7608 76.6951 99.5247 76.9311 99.5247 77.2459V84.1705C99.5247 84.4852 99.7608 84.7213 100.076 84.7213L101.689 84.7016V86.4131C101.689 87.4754 101.079 88.0656 99.9772 88.0656H97.7345V87.1803H94.1936V90.4262ZM86.3837 83.2656C86.0886 83.2656 85.9903 83.1672 85.9903 82.8721V78.5246C85.9903 78.2295 86.0886 78.1311 86.3837 78.1311H88.9214V83.2656H86.3837ZM103.617 83.2656H101.098V78.1311H103.617C103.912 78.1311 104.01 78.2295 104.01 78.5246V82.8721C104.01 83.1672 103.912 83.2656 103.617 83.2656Z" fill="#E62020"/>
<path d="M128.856 86.192C126.168 86.192 123.848 84.112 123.848 80.528C123.848 76.928 126.168 74.848 128.856 74.848C130.84 74.848 132.744 75.952 133.464 78.096L132.36 78.656C131.88 77.04 130.44 76.112 128.92 76.112C126.984 76.112 125.224 77.616 125.224 80.528C125.224 83.408 126.984 84.912 128.92 84.912C130.44 84.912 131.88 84 132.36 82.384L133.464 82.912C132.744 85.072 130.84 86.192 128.856 86.192ZM138.96 86.176C136.736 86.176 134.96 84.592 134.96 82C134.96 79.408 136.736 77.824 138.96 77.824C141.152 77.824 142.928 79.408 142.928 82C142.928 84.592 141.152 86.176 138.96 86.176ZM136.272 82C136.272 83.872 137.456 84.944 138.96 84.944C140.416 84.944 141.616 83.872 141.616 82C141.616 80.128 140.416 79.056 138.96 79.056C137.456 79.056 136.272 80.128 136.272 82ZM145.026 86V78H146.322L146.242 79.936C146.626 78.56 147.842 77.824 149.042 77.824C150.45 77.824 151.826 78.816 151.826 80.896V86H150.514V81.136C150.514 79.728 149.602 79.056 148.626 79.056C147.522 79.056 146.338 79.92 146.338 81.68V86H145.026ZM157.179 86.176C155.755 86.176 154.811 85.248 154.811 83.488V79.12H153.467V78H154.811V76.128H156.123L156.011 78H157.931V79.12H156.123V83.408C156.123 84.496 156.539 85.024 157.355 85.024C157.643 85.024 158.011 84.96 158.411 84.8L158.715 85.872C158.171 86.08 157.643 86.176 157.179 86.176ZM162.551 86.176C161.191 86.176 159.975 85.344 159.975 83.856C159.975 82.16 161.527 81.392 163.831 81.392C164.343 81.392 164.855 81.424 165.399 81.488V80.976C165.399 79.664 164.439 79.008 163.447 79.008C162.647 79.008 161.863 79.44 161.495 80.24L160.487 79.712C161.015 78.384 162.295 77.824 163.511 77.824C165.159 77.824 166.663 78.832 166.663 80.88V86H165.415V83.968C165.015 85.488 163.799 86.176 162.551 86.176ZM161.271 83.776C161.271 84.576 161.991 84.992 162.871 84.992C164.007 84.992 165.223 84.272 165.383 82.576C164.791 82.48 164.247 82.432 163.766 82.432C162.007 82.432 161.271 82.992 161.271 83.776ZM172.614 86.16C170.614 86.16 168.71 84.736 168.71 82C168.71 79.232 170.662 77.824 172.662 77.824C174.102 77.824 175.558 78.592 176.214 80.128L175.158 80.752C174.694 79.616 173.654 79.056 172.646 79.056C171.334 79.056 170.022 80.016 170.022 81.984C170.022 83.968 171.318 84.928 172.63 84.928C173.654 84.928 174.694 84.352 175.158 83.216L176.214 83.84C175.526 85.392 174.07 86.16 172.614 86.16ZM181.257 86.176C179.833 86.176 178.889 85.248 178.889 83.488V79.12H177.545V78H178.889V76.128H180.201L180.089 78H182.009V79.12H180.201V83.408C180.201 84.496 180.617 85.024 181.433 85.024C181.721 85.024 182.089 84.96 182.489 84.8L182.793 85.872C182.249 86.08 181.721 86.176 181.257 86.176ZM186.629 86.176C185.269 86.176 184.053 85.344 184.053 83.856C184.053 82.16 185.605 81.392 187.909 81.392C188.421 81.392 188.933 81.424 189.477 81.488V80.976C189.477 79.664 188.517 79.008 187.525 79.008C186.725 79.008 185.941 79.44 185.573 80.24L184.565 79.712C185.093 78.384 186.373 77.824 187.589 77.824C189.237 77.824 190.741 78.832 190.741 80.88V86H189.493V83.968C189.093 85.488 187.877 86.176 186.629 86.176ZM185.349 83.776C185.349 84.576 186.069 84.992 186.949 84.992C188.085 84.992 189.301 84.272 189.461 82.576C188.869 82.48 188.325 82.432 187.845 82.432C186.085 82.432 185.349 82.992 185.349 83.776ZM192.933 86V78H194.197L194.133 79.904C194.629 78.352 195.717 77.84 196.661 77.84C196.949 77.84 197.253 77.888 197.477 77.952V79.44C197.109 79.344 196.773 79.296 196.453 79.296C195.205 79.296 194.245 80.032 194.245 81.696V86H192.933ZM203.869 83.424C204.237 84.576 205.245 84.992 206.141 84.992C207.005 84.992 207.805 84.624 207.805 83.984C207.805 82.416 203.213 82.688 203.213 80.096C203.213 78.656 204.589 77.824 206.061 77.824C207.261 77.824 208.525 78.384 209.069 79.664L208.093 80.272C207.693 79.376 206.829 78.992 206.045 78.992C205.245 78.992 204.525 79.392 204.525 80.016C204.525 81.504 209.117 81.296 209.117 83.872C209.117 85.344 207.661 86.176 206.141 86.176C204.797 86.176 203.421 85.52 202.925 84.064L203.869 83.424ZM214.804 86.176C212.58 86.176 210.804 84.592 210.804 82C210.804 79.408 212.58 77.824 214.804 77.824C216.996 77.824 218.772 79.408 218.772 82C218.772 84.592 216.996 86.176 214.804 86.176ZM212.116 82C212.116 83.872 213.3 84.944 214.804 84.944C216.26 84.944 217.46 83.872 217.46 82C217.46 80.128 216.26 79.056 214.804 79.056C213.3 79.056 212.116 80.128 212.116 82ZM222.182 80.672V84.192C222.79 84.688 223.478 84.928 224.166 84.928C225.654 84.928 226.886 83.776 226.886 81.92C226.886 80.112 225.75 79.072 224.438 79.072C223.43 79.072 222.502 79.68 222.182 80.672ZM220.87 89.104V78H222.166L222.118 79.552C222.694 78.416 223.75 77.824 224.886 77.824C226.63 77.824 228.198 79.232 228.198 81.824C228.198 84.528 226.374 86.176 224.294 86.176C223.494 86.176 222.79 85.952 222.166 85.6V89.104H220.87ZM233.851 86.176C231.627 86.176 229.851 84.592 229.851 82C229.851 79.408 231.627 77.824 233.851 77.824C236.043 77.824 237.819 79.408 237.819 82C237.819 84.592 236.043 86.176 233.851 86.176ZM231.163 82C231.163 83.872 232.347 84.944 233.851 84.944C235.307 84.944 236.507 83.872 236.507 82C236.507 80.128 235.307 79.056 233.851 79.056C232.347 79.056 231.163 80.128 231.163 82ZM239.917 86V78H241.181L241.117 79.904C241.613 78.352 242.701 77.84 243.645 77.84C243.933 77.84 244.237 77.888 244.461 77.952V79.44C244.093 79.344 243.757 79.296 243.437 79.296C242.189 79.296 241.229 80.032 241.229 81.696V86H239.917ZM249.163 86.176C247.739 86.176 246.795 85.248 246.795 83.488V79.12H245.451V78H246.795V76.128H248.107L247.995 78H249.915V79.12H248.107V83.408C248.107 84.496 248.523 85.024 249.339 85.024C249.627 85.024 249.995 84.96 250.395 84.8L250.699 85.872C250.155 86.08 249.627 86.176 249.163 86.176ZM255.752 86.16C253.816 86.16 251.976 84.72 251.976 82.016C251.976 79.68 253.544 77.824 255.848 77.824C257.72 77.824 259.48 79.04 259.48 81.728C259.48 81.872 259.48 82.096 259.464 82.224H253.256C253.368 84.032 254.6 84.96 255.832 84.96C256.792 84.96 257.784 84.432 258.264 83.456L259.176 84.032C258.568 85.44 257.096 86.16 255.752 86.16ZM253.336 81.168H258.152C257.96 79.616 256.92 78.944 255.8 78.944C254.488 78.944 253.592 79.888 253.336 81.168Z" fill="black"/>
</svg>
