<svg width="343" height="160" viewBox="0 0 343 160" fill="none" xmlns="http://www.w3.org/2000/svg">
<rect width="343" height="160" fill="#F7F7F7"/>
<rect x="98" y="52" width="147" height="56" rx="8" fill="#E62020"/>
<path d="M147.862 80.7475C147.469 80.3541 146.879 80.3738 146.505 80.7672L145.029 82.2623C143.475 81.4754 140.603 78.6033 139.679 76.7738L140.997 75.3574C141.37 74.9442 141.41 74.4328 140.997 74.0393L136.944 70.1836L133.6 73.3902C131.869 75.0426 131.967 77.3246 133.167 79.2328C135.528 83.0098 138.597 86.0983 142.393 88.459C144.085 89.482 146.446 89.8164 148.216 88.0262L151.718 84.4852L147.862 80.7475ZM135.154 78.0328C134.367 76.7147 134.682 75.4951 135.449 74.7672L137.22 73.0754L138.872 74.7279L137.554 76.0656C137.259 76.3803 137.279 76.7934 137.554 77.3049C138.99 79.9606 141.823 82.9115 144.459 84.5246C144.99 84.8393 145.384 84.859 145.718 84.5246L147.37 82.8918L148.806 84.3082L146.82 86.118C145.836 87.0229 144.656 87.0623 143.593 86.4328C140.17 84.4065 137.121 81.3574 135.154 78.0328ZM150.636 72.6426L150.026 76.8918L148.177 76.577C148.275 75.9279 148.236 75.2787 149.141 73.9606L145.482 77.6393L144.203 76.3606L147.882 72.7016C146.564 73.6065 145.915 73.5672 145.266 73.6656L144.951 71.8164L149.2 71.2065L150.636 72.6426Z" fill="#FCFCFC"/>
<path d="M163.152 86V75.024H165.056V84.304H169.52V86H163.152ZM171.165 86V74.704H173.005V86H171.165ZM177.456 86.192C176.064 86.192 174.864 85.328 174.864 83.792C174.864 81.936 176.592 81.216 178.784 81.216C179.28 81.216 179.776 81.248 180.272 81.312V81.136C180.272 79.984 179.424 79.44 178.528 79.44C177.776 79.44 177.12 79.84 176.768 80.496L175.376 79.776C175.968 78.336 177.36 77.808 178.608 77.808C180.432 77.808 182.016 78.896 182.016 81.088V86H180.304V84.08C179.856 85.552 178.672 86.192 177.456 86.192ZM176.672 83.616C176.672 84.256 177.296 84.56 178.016 84.56C179.024 84.56 180.032 83.968 180.24 82.672C179.76 82.592 179.28 82.56 178.816 82.56C177.472 82.56 176.672 82.896 176.672 83.616ZM184.056 86V78H185.88L185.784 79.808C186.04 78.768 186.888 77.808 188.264 77.808C189.368 77.808 190.408 78.432 190.776 79.776C191.096 78.688 191.992 77.808 193.304 77.808C194.712 77.808 195.976 78.8 195.976 80.944V86H194.136V81.36C194.136 80.016 193.416 79.552 192.68 79.552C191.768 79.552 190.936 80.304 190.936 81.792V86H189.096V81.392C189.096 80.016 188.36 79.552 187.64 79.552C186.712 79.552 185.896 80.304 185.896 81.792V86H184.056ZM200.441 86.192C199.049 86.192 197.849 85.328 197.849 83.792C197.849 81.936 199.577 81.216 201.769 81.216C202.265 81.216 202.761 81.248 203.257 81.312V81.136C203.257 79.984 202.409 79.44 201.513 79.44C200.761 79.44 200.105 79.84 199.753 80.496L198.361 79.776C198.953 78.336 200.345 77.808 201.593 77.808C203.417 77.808 205.001 78.896 205.001 81.088V86H203.289V84.08C202.841 85.552 201.657 86.192 200.441 86.192ZM199.657 83.616C199.657 84.256 200.281 84.56 201.001 84.56C202.009 84.56 203.017 83.968 203.225 82.672C202.745 82.592 202.265 82.56 201.801 82.56C200.457 82.56 199.657 82.896 199.657 83.616ZM207.04 86V78H208.768L208.672 79.84C209.056 78.464 210.096 77.84 211.104 77.84C211.344 77.84 211.6 77.872 211.824 77.952V80.048C211.376 79.936 211.008 79.872 210.672 79.872C209.392 79.872 208.88 80.784 208.88 82.32V86H207.04Z" fill="#FCFCFC"/>
</svg>
