<svg width="343" height="160" viewBox="0 0 343 160" fill="none" xmlns="http://www.w3.org/2000/svg">
<rect width="343" height="160" fill="#F7F7F7"/>
<path d="M128.98 87.7508C129.708 87.7508 130.279 87.1607 130.298 86.4525C130.279 85.7246 129.669 85.1344 128.98 85.1344C128.252 85.1344 127.643 85.7246 127.682 86.4525C127.682 87.1607 128.233 87.7508 128.98 87.7508ZM125.361 82.3803L126.383 83.5213C127.052 82.9311 127.977 82.5967 129 82.5967C130.003 82.5967 130.888 82.9312 131.577 83.482L132.6 82.3607C131.616 81.5148 130.377 81.023 129 81.023C127.603 81.023 126.344 81.5344 125.361 82.3803ZM122.449 79.0951L123.452 80.2361C124.928 78.9574 126.856 78.1902 129 78.1902C131.144 78.1902 133.052 78.9377 134.508 80.2164L135.531 79.0754C133.78 77.541 131.498 76.6164 129 76.6164C126.502 76.6164 124.2 77.5607 122.449 79.0951ZM120.541 76.9312L119.538 75.8098C122.056 73.5672 125.38 72.2098 129 72.2098C132.62 72.2098 135.944 73.5672 138.462 75.8098L137.459 76.9312C135.216 74.9639 132.265 73.7836 129 73.7836C125.734 73.7836 122.783 74.9639 120.541 76.9312Z" fill="#008A05"/>
<path d="M151.656 86L149.512 75.024H150.904L152.696 84.912H152.984L154.888 75.024H157.256L159.144 84.912H159.432L161.224 75.024H162.616L160.472 86H158.088L156.216 76.16H155.912L154.04 86H151.656ZM164.325 86V78H165.637V86H164.325ZM164.149 76.528V74.768H165.797V76.528H164.149ZM168.668 86V79.12H167.564V78H168.668V77.296C168.668 75.536 169.612 74.608 171.036 74.608C171.5 74.608 172.028 74.704 172.572 74.912L172.268 75.984C171.868 75.824 171.484 75.76 171.164 75.76C170.316 75.76 169.804 76.272 169.804 77.408V78H172.188V79.12H169.98V86H168.668ZM173.903 86V78H175.215V86H173.903ZM173.727 76.528V74.768H175.375V76.528H173.727ZM184.113 86.176C182.753 86.176 181.537 85.344 181.537 83.856C181.537 82.16 183.089 81.392 185.393 81.392C185.905 81.392 186.417 81.424 186.961 81.488V80.976C186.961 79.664 186.001 79.008 185.009 79.008C184.209 79.008 183.425 79.44 183.057 80.24L182.049 79.712C182.577 78.384 183.857 77.824 185.073 77.824C186.721 77.824 188.225 78.832 188.225 80.88V86H186.977V83.968C186.577 85.488 185.361 86.176 184.113 86.176ZM182.833 83.776C182.833 84.576 183.553 84.992 184.433 84.992C185.569 84.992 186.785 84.272 186.945 82.576C186.353 82.48 185.809 82.432 185.329 82.432C183.569 82.432 182.833 82.992 182.833 83.776ZM194.177 86.16C192.177 86.16 190.273 84.736 190.273 82C190.273 79.232 192.225 77.824 194.225 77.824C195.665 77.824 197.121 78.592 197.777 80.128L196.721 80.752C196.257 79.616 195.217 79.056 194.209 79.056C192.897 79.056 191.585 80.016 191.585 81.984C191.585 83.968 192.881 84.928 194.193 84.928C195.217 84.928 196.257 84.352 196.721 83.216L197.777 83.84C197.089 85.392 195.633 86.16 194.177 86.16ZM202.819 86.176C201.395 86.176 200.451 85.248 200.451 83.488V79.12H199.107V78H200.451V76.128H201.763L201.651 78H203.571V79.12H201.763V83.408C201.763 84.496 202.179 85.024 202.995 85.024C203.283 85.024 203.651 84.96 204.051 84.8L204.355 85.872C203.811 86.08 203.283 86.176 202.819 86.176ZM205.903 86V78H207.215V86H205.903ZM205.727 76.528V74.768H207.375V76.528H205.727ZM211.366 86L208.95 78H210.278L212.342 85.008H212.646L214.71 78H216.054L213.606 86H211.366ZM221.304 86.176C219.08 86.176 217.304 84.592 217.304 82C217.304 79.408 219.08 77.824 221.304 77.824C223.496 77.824 225.272 79.408 225.272 82C225.272 84.592 223.496 86.176 221.304 86.176ZM218.616 82C218.616 83.872 219.8 84.944 221.304 84.944C222.76 84.944 223.96 83.872 223.96 82C223.96 80.128 222.76 79.056 221.304 79.056C219.8 79.056 218.616 80.128 218.616 82Z" fill="#003600"/>
</svg>
