<svg width="343" height="160" viewBox="0 0 343 160" fill="none" xmlns="http://www.w3.org/2000/svg">
<rect width="343" height="160" fill="#F7F7F7"/>
<path d="M97.5117 45.3115V33.3705C97.5117 32.5049 98.1412 31.8754 99.0068 31.8754H112.758C113.702 31.8754 114.43 32.5246 114.43 33.4492V33.5869H117.951L120.489 36.1246V45.3115H117.853C117.538 46.8656 116.161 48.0262 114.508 48.0262C112.856 48.0262 111.479 46.8656 111.164 45.3115H106.699C106.384 46.8656 105.007 48.0262 103.354 48.0262C101.702 48.0262 100.325 46.8656 100.01 45.3115H97.5117ZM99.5773 43.2459H100.207C100.738 42.0262 101.958 41.1803 103.354 41.1803C104.751 41.1803 105.951 42.0262 106.482 43.2262H111.381C111.558 42.7934 111.833 42.4197 112.167 42.1049V33.941H99.5773V43.2459ZM101.997 44.6033C101.997 45.3508 102.607 45.9607 103.354 45.9607C104.102 45.9607 104.712 45.3508 104.712 44.6033C104.712 43.8557 104.102 43.2459 103.354 43.2459C102.607 43.2459 101.997 43.8557 101.997 44.6033ZM113.151 44.6033C113.151 45.3508 113.761 45.9607 114.508 45.9607C115.256 45.9607 115.866 45.3508 115.866 44.6033C115.866 43.8557 115.256 43.2459 114.508 43.2459C113.761 43.2459 113.151 43.8557 113.151 44.6033ZM114.43 38.0525H118.226V37.2262L116.594 35.6525H114.43V38.0525ZM114.43 41.1803H114.508C115.905 41.1803 117.125 42.0262 117.656 43.2459H118.226V40.118H114.43V41.1803Z" fill="#E62020"/>
<path d="M140.776 46L137.512 35.024H138.936L141.736 44.912H141.992L144.808 35.024H146.216L142.92 46H140.776ZM151.018 46.16C149.082 46.16 147.242 44.72 147.242 42.016C147.242 39.68 148.81 37.824 151.114 37.824C152.986 37.824 154.746 39.04 154.746 41.728C154.746 41.872 154.746 42.096 154.73 42.224H148.522C148.634 44.032 149.866 44.96 151.098 44.96C152.058 44.96 153.05 44.432 153.53 43.456L154.442 44.032C153.834 45.44 152.362 46.16 151.018 46.16ZM148.602 41.168H153.418C153.226 39.616 152.186 38.944 151.066 38.944C149.754 38.944 148.858 39.888 148.602 41.168ZM156.839 46V38H158.103L158.039 39.904C158.535 38.352 159.623 37.84 160.567 37.84C160.855 37.84 161.159 37.888 161.383 37.952V39.44C161.015 39.344 160.679 39.296 160.359 39.296C159.111 39.296 158.151 40.032 158.151 41.696V46H156.839ZM169.104 46V36.24H166.24V35.024H173.296V36.24H170.448V46H169.104ZM174.651 46V38H175.915L175.851 39.904C176.347 38.352 177.435 37.84 178.379 37.84C178.667 37.84 178.971 37.888 179.195 37.952V39.44C178.827 39.344 178.491 39.296 178.171 39.296C176.923 39.296 175.963 40.032 175.963 41.696V46H174.651ZM182.707 46.176C181.347 46.176 180.131 45.344 180.131 43.856C180.131 42.16 181.683 41.392 183.987 41.392C184.499 41.392 185.011 41.424 185.555 41.488V40.976C185.555 39.664 184.595 39.008 183.603 39.008C182.803 39.008 182.019 39.44 181.651 40.24L180.643 39.712C181.171 38.384 182.451 37.824 183.667 37.824C185.315 37.824 186.819 38.832 186.819 40.88V46H185.571V43.968C185.171 45.488 183.955 46.176 182.707 46.176ZM181.427 43.776C181.427 44.576 182.147 44.992 183.027 44.992C184.163 44.992 185.379 44.272 185.539 42.576C184.947 42.48 184.403 42.432 183.923 42.432C182.163 42.432 181.427 42.992 181.427 43.776ZM189.011 46V38H190.307L190.227 39.936C190.611 38.56 191.827 37.824 193.027 37.824C194.435 37.824 195.811 38.816 195.811 40.896V46H194.499V41.136C194.499 39.728 193.587 39.056 192.611 39.056C191.507 39.056 190.323 39.92 190.323 41.68V46H189.011ZM198.635 43.424C199.003 44.576 200.011 44.992 200.907 44.992C201.771 44.992 202.571 44.624 202.571 43.984C202.571 42.416 197.979 42.688 197.979 40.096C197.979 38.656 199.355 37.824 200.827 37.824C202.027 37.824 203.291 38.384 203.835 39.664L202.859 40.272C202.459 39.376 201.595 38.992 200.811 38.992C200.011 38.992 199.291 39.392 199.291 40.016C199.291 41.504 203.883 41.296 203.883 43.872C203.883 45.344 202.427 46.176 200.907 46.176C199.563 46.176 198.187 45.52 197.691 44.064L198.635 43.424ZM207.026 40.672V44.192C207.634 44.688 208.322 44.928 209.01 44.928C210.498 44.928 211.73 43.776 211.73 41.92C211.73 40.112 210.594 39.072 209.282 39.072C208.274 39.072 207.346 39.68 207.026 40.672ZM205.714 49.104V38H207.01L206.962 39.552C207.538 38.416 208.594 37.824 209.73 37.824C211.474 37.824 213.042 39.232 213.042 41.824C213.042 44.528 211.218 46.176 209.138 46.176C208.338 46.176 207.634 45.952 207.01 45.6V49.104H205.714ZM218.695 46.176C216.471 46.176 214.695 44.592 214.695 42C214.695 39.408 216.471 37.824 218.695 37.824C220.887 37.824 222.663 39.408 222.663 42C222.663 44.592 220.887 46.176 218.695 46.176ZM216.007 42C216.007 43.872 217.191 44.944 218.695 44.944C220.151 44.944 221.351 43.872 221.351 42C221.351 40.128 220.151 39.056 218.695 39.056C217.191 39.056 216.007 40.128 216.007 42ZM224.761 46V38H226.025L225.961 39.904C226.457 38.352 227.545 37.84 228.489 37.84C228.777 37.84 229.081 37.888 229.305 37.952V39.44C228.937 39.344 228.601 39.296 228.281 39.296C227.033 39.296 226.073 40.032 226.073 41.696V46H224.761ZM234.007 46.176C232.583 46.176 231.639 45.248 231.639 43.488V39.12H230.295V38H231.639V36.128H232.951L232.839 38H234.759V39.12H232.951V43.408C232.951 44.496 233.367 45.024 234.183 45.024C234.471 45.024 234.839 44.96 235.239 44.8L235.543 45.872C234.999 46.08 234.471 46.176 234.007 46.176ZM240.596 46.16C238.66 46.16 236.82 44.72 236.82 42.016C236.82 39.68 238.388 37.824 240.692 37.824C242.564 37.824 244.324 39.04 244.324 41.728C244.324 41.872 244.324 42.096 244.308 42.224H238.1C238.212 44.032 239.444 44.96 240.676 44.96C241.636 44.96 242.628 44.432 243.108 43.456L244.02 44.032C243.412 45.44 241.94 46.16 240.596 46.16ZM238.18 41.168H242.996C242.804 39.616 241.764 38.944 240.644 38.944C239.332 38.944 238.436 39.888 238.18 41.168Z" fill="black"/>
<path d="M117.479 86.9836V73.6066C117.479 71.8951 116.495 70.5377 114.429 70.5377H103.531C101.78 70.5377 100.521 71.6393 100.521 73.5475V86.9836H102.528V89.7377H104.79V86.9836H113.249V89.7377H115.511V86.9836H117.479ZM97.2754 76.2426V77.4426C97.2754 78.0131 97.7082 78.4459 98.2787 78.4459H99.2426V75.2393H98.2787C97.7082 75.2393 97.2754 75.6721 97.2754 76.2426ZM102.784 84.918V79.882H115.216V84.918H102.784ZM102.784 77.8164V76.0459H115.216V77.8164H102.784ZM102.784 73.9803V73.8426C102.784 72.741 103.177 72.4066 104.22 72.4066H113.741C114.921 72.4066 115.216 72.8197 115.216 73.9016V73.9803H102.784ZM104.574 83.6984H106.934V81.3377H104.574V83.6984ZM111.066 83.6984H113.426V81.3377H111.066V83.6984ZM118.757 78.4459H119.721C120.292 78.4459 120.725 78.0131 120.725 77.4426V76.2426C120.725 75.6721 120.292 75.2393 119.721 75.2393H118.757V78.4459Z" fill="#E62020"/>
<path d="M140.776 86L137.512 75.024H138.936L141.736 84.912H141.992L144.808 75.024H146.216L142.92 86H140.776ZM151.018 86.16C149.082 86.16 147.242 84.72 147.242 82.016C147.242 79.68 148.81 77.824 151.114 77.824C152.986 77.824 154.746 79.04 154.746 81.728C154.746 81.872 154.746 82.096 154.73 82.224H148.522C148.634 84.032 149.866 84.96 151.098 84.96C152.058 84.96 153.05 84.432 153.53 83.456L154.442 84.032C153.834 85.44 152.362 86.16 151.018 86.16ZM148.602 81.168H153.418C153.226 79.616 152.186 78.944 151.066 78.944C149.754 78.944 148.858 79.888 148.602 81.168ZM156.839 86V78H158.103L158.039 79.904C158.535 78.352 159.623 77.84 160.567 77.84C160.855 77.84 161.159 77.888 161.383 77.952V79.44C161.015 79.344 160.679 79.296 160.359 79.296C159.111 79.296 158.151 80.032 158.151 81.696V86H156.839ZM169.104 86V76.24H166.24V75.024H173.296V76.24H170.448V86H169.104ZM174.651 86V78H175.915L175.851 79.904C176.347 78.352 177.435 77.84 178.379 77.84C178.667 77.84 178.971 77.888 179.195 77.952V79.44C178.827 79.344 178.491 79.296 178.171 79.296C176.923 79.296 175.963 80.032 175.963 81.696V86H174.651ZM182.707 86.176C181.347 86.176 180.131 85.344 180.131 83.856C180.131 82.16 181.683 81.392 183.987 81.392C184.499 81.392 185.011 81.424 185.555 81.488V80.976C185.555 79.664 184.595 79.008 183.603 79.008C182.803 79.008 182.019 79.44 181.651 80.24L180.643 79.712C181.171 78.384 182.451 77.824 183.667 77.824C185.315 77.824 186.819 78.832 186.819 80.88V86H185.571V83.968C185.171 85.488 183.955 86.176 182.707 86.176ZM181.427 83.776C181.427 84.576 182.147 84.992 183.027 84.992C184.163 84.992 185.379 84.272 185.539 82.576C184.947 82.48 184.403 82.432 183.923 82.432C182.163 82.432 181.427 82.992 181.427 83.776ZM189.011 86V78H190.307L190.227 79.936C190.611 78.56 191.827 77.824 193.027 77.824C194.435 77.824 195.811 78.816 195.811 80.896V86H194.499V81.136C194.499 79.728 193.587 79.056 192.611 79.056C191.507 79.056 190.323 79.92 190.323 81.68V86H189.011ZM198.635 83.424C199.003 84.576 200.011 84.992 200.907 84.992C201.771 84.992 202.571 84.624 202.571 83.984C202.571 82.416 197.979 82.688 197.979 80.096C197.979 78.656 199.355 77.824 200.827 77.824C202.027 77.824 203.291 78.384 203.835 79.664L202.859 80.272C202.459 79.376 201.595 78.992 200.811 78.992C200.011 78.992 199.291 79.392 199.291 80.016C199.291 81.504 203.883 81.296 203.883 83.872C203.883 85.344 202.427 86.176 200.907 86.176C199.563 86.176 198.187 85.52 197.691 84.064L198.635 83.424ZM207.026 80.672V84.192C207.634 84.688 208.322 84.928 209.01 84.928C210.498 84.928 211.73 83.776 211.73 81.92C211.73 80.112 210.594 79.072 209.282 79.072C208.274 79.072 207.346 79.68 207.026 80.672ZM205.714 89.104V78H207.01L206.962 79.552C207.538 78.416 208.594 77.824 209.73 77.824C211.474 77.824 213.042 79.232 213.042 81.824C213.042 84.528 211.218 86.176 209.138 86.176C208.338 86.176 207.634 85.952 207.01 85.6V89.104H205.714ZM218.695 86.176C216.471 86.176 214.695 84.592 214.695 82C214.695 79.408 216.471 77.824 218.695 77.824C220.887 77.824 222.663 79.408 222.663 82C222.663 84.592 220.887 86.176 218.695 86.176ZM216.007 82C216.007 83.872 217.191 84.944 218.695 84.944C220.151 84.944 221.351 83.872 221.351 82C221.351 80.128 220.151 79.056 218.695 79.056C217.191 79.056 216.007 80.128 216.007 82ZM224.761 86V78H226.025L225.961 79.904C226.457 78.352 227.545 77.84 228.489 77.84C228.777 77.84 229.081 77.888 229.305 77.952V79.44C228.937 79.344 228.601 79.296 228.281 79.296C227.033 79.296 226.073 80.032 226.073 81.696V86H224.761ZM234.007 86.176C232.583 86.176 231.639 85.248 231.639 83.488V79.12H230.295V78H231.639V76.128H232.951L232.839 78H234.759V79.12H232.951V83.408C232.951 84.496 233.367 85.024 234.183 85.024C234.471 85.024 234.839 84.96 235.239 84.8L235.543 85.872C234.999 86.08 234.471 86.176 234.007 86.176ZM240.596 86.16C238.66 86.16 236.82 84.72 236.82 82.016C236.82 79.68 238.388 77.824 240.692 77.824C242.564 77.824 244.324 79.04 244.324 81.728C244.324 81.872 244.324 82.096 244.308 82.224H238.1C238.212 84.032 239.444 84.96 240.676 84.96C241.636 84.96 242.628 84.432 243.108 83.456L244.02 84.032C243.412 85.44 241.94 86.16 240.596 86.16ZM238.18 81.168H242.996C242.804 79.616 241.764 78.944 240.644 78.944C239.332 78.944 238.436 79.888 238.18 81.168Z" fill="black"/>
<path d="M115.876 130.131C117.115 130.131 118.079 129.167 118.079 127.967C118.079 126.748 117.115 125.784 115.876 125.784C114.696 125.784 113.732 126.748 113.732 127.967C113.732 129.167 114.696 130.131 115.876 130.131ZM98.23 111.443H101.023L103.64 122.754C103.856 123.698 104.623 124.308 105.587 124.19L118.059 122.616C119.082 122.479 119.751 121.731 119.751 120.728L119.771 112.367H103.541L103.01 109.948H98.23V111.443ZM104.014 114.433H117.509L117.469 119.98C117.469 120.374 117.194 120.649 116.8 120.708L106.237 122.066C105.941 122.105 105.725 121.908 105.666 121.633L104.014 114.433ZM104.427 127.967C104.427 129.167 105.391 130.131 106.571 130.131C107.81 130.131 108.774 129.167 108.774 127.967C108.774 126.748 107.791 125.784 106.571 125.784C105.391 125.784 104.427 126.748 104.427 127.967Z" fill="#E62020"/>
<path d="M140.776 126L137.512 115.024H138.936L141.736 124.912H141.992L144.808 115.024H146.216L142.92 126H140.776ZM151.018 126.16C149.082 126.16 147.242 124.72 147.242 122.016C147.242 119.68 148.81 117.824 151.114 117.824C152.986 117.824 154.746 119.04 154.746 121.728C154.746 121.872 154.746 122.096 154.73 122.224H148.522C148.634 124.032 149.866 124.96 151.098 124.96C152.058 124.96 153.05 124.432 153.53 123.456L154.442 124.032C153.834 125.44 152.362 126.16 151.018 126.16ZM148.602 121.168H153.418C153.226 119.616 152.186 118.944 151.066 118.944C149.754 118.944 148.858 119.888 148.602 121.168ZM156.839 126V118H158.103L158.039 119.904C158.535 118.352 159.623 117.84 160.567 117.84C160.855 117.84 161.159 117.888 161.383 117.952V119.44C161.015 119.344 160.679 119.296 160.359 119.296C159.111 119.296 158.151 120.032 158.151 121.696V126H156.839ZM169.104 126V116.24H166.24V115.024H173.296V116.24H170.448V126H169.104ZM174.651 126V118H175.915L175.851 119.904C176.347 118.352 177.435 117.84 178.379 117.84C178.667 117.84 178.971 117.888 179.195 117.952V119.44C178.827 119.344 178.491 119.296 178.171 119.296C176.923 119.296 175.963 120.032 175.963 121.696V126H174.651ZM182.707 126.176C181.347 126.176 180.131 125.344 180.131 123.856C180.131 122.16 181.683 121.392 183.987 121.392C184.499 121.392 185.011 121.424 185.555 121.488V120.976C185.555 119.664 184.595 119.008 183.603 119.008C182.803 119.008 182.019 119.44 181.651 120.24L180.643 119.712C181.171 118.384 182.451 117.824 183.667 117.824C185.315 117.824 186.819 118.832 186.819 120.88V126H185.571V123.968C185.171 125.488 183.955 126.176 182.707 126.176ZM181.427 123.776C181.427 124.576 182.147 124.992 183.027 124.992C184.163 124.992 185.379 124.272 185.539 122.576C184.947 122.48 184.403 122.432 183.923 122.432C182.163 122.432 181.427 122.992 181.427 123.776ZM189.011 126V118H190.307L190.227 119.936C190.611 118.56 191.827 117.824 193.027 117.824C194.435 117.824 195.811 118.816 195.811 120.896V126H194.499V121.136C194.499 119.728 193.587 119.056 192.611 119.056C191.507 119.056 190.323 119.92 190.323 121.68V126H189.011ZM198.635 123.424C199.003 124.576 200.011 124.992 200.907 124.992C201.771 124.992 202.571 124.624 202.571 123.984C202.571 122.416 197.979 122.688 197.979 120.096C197.979 118.656 199.355 117.824 200.827 117.824C202.027 117.824 203.291 118.384 203.835 119.664L202.859 120.272C202.459 119.376 201.595 118.992 200.811 118.992C200.011 118.992 199.291 119.392 199.291 120.016C199.291 121.504 203.883 121.296 203.883 123.872C203.883 125.344 202.427 126.176 200.907 126.176C199.563 126.176 198.187 125.52 197.691 124.064L198.635 123.424ZM207.026 120.672V124.192C207.634 124.688 208.322 124.928 209.01 124.928C210.498 124.928 211.73 123.776 211.73 121.92C211.73 120.112 210.594 119.072 209.282 119.072C208.274 119.072 207.346 119.68 207.026 120.672ZM205.714 129.104V118H207.01L206.962 119.552C207.538 118.416 208.594 117.824 209.73 117.824C211.474 117.824 213.042 119.232 213.042 121.824C213.042 124.528 211.218 126.176 209.138 126.176C208.338 126.176 207.634 125.952 207.01 125.6V129.104H205.714ZM218.695 126.176C216.471 126.176 214.695 124.592 214.695 122C214.695 119.408 216.471 117.824 218.695 117.824C220.887 117.824 222.663 119.408 222.663 122C222.663 124.592 220.887 126.176 218.695 126.176ZM216.007 122C216.007 123.872 217.191 124.944 218.695 124.944C220.151 124.944 221.351 123.872 221.351 122C221.351 120.128 220.151 119.056 218.695 119.056C217.191 119.056 216.007 120.128 216.007 122ZM224.761 126V118H226.025L225.961 119.904C226.457 118.352 227.545 117.84 228.489 117.84C228.777 117.84 229.081 117.888 229.305 117.952V119.44C228.937 119.344 228.601 119.296 228.281 119.296C227.033 119.296 226.073 120.032 226.073 121.696V126H224.761ZM234.007 126.176C232.583 126.176 231.639 125.248 231.639 123.488V119.12H230.295V118H231.639V116.128H232.951L232.839 118H234.759V119.12H232.951V123.408C232.951 124.496 233.367 125.024 234.183 125.024C234.471 125.024 234.839 124.96 235.239 124.8L235.543 125.872C234.999 126.08 234.471 126.176 234.007 126.176ZM240.596 126.16C238.66 126.16 236.82 124.72 236.82 122.016C236.82 119.68 238.388 117.824 240.692 117.824C242.564 117.824 244.324 119.04 244.324 121.728C244.324 121.872 244.324 122.096 244.308 122.224H238.1C238.212 124.032 239.444 124.96 240.676 124.96C241.636 124.96 242.628 124.432 243.108 123.456L244.02 124.032C243.412 125.44 241.94 126.16 240.596 126.16ZM238.18 121.168H242.996C242.804 119.616 241.764 118.944 240.644 118.944C239.332 118.944 238.436 119.888 238.18 121.168Z" fill="black"/>
</svg>
