<svg width="343" height="160" viewBox="0 0 343 160" fill="none" xmlns="http://www.w3.org/2000/svg">
<rect width="343" height="160" fill="#F7F7F7"/>
<rect x="144" y="52" width="56" height="56" rx="28" fill="#3B8700"/>
<path d="M160.02 79.9803C160.02 78.7016 164.446 72.9574 169.915 72.9574C176.229 72.9574 177.016 78.4852 180.439 78.4852C181.383 78.4852 181.698 77.7574 181.698 76.2033H183.98C184 77.659 183.508 79.2328 182.82 79.9803C183.508 80.7279 184 82.3016 183.98 83.777H181.698C181.698 82.2229 181.383 81.4951 180.439 81.4951C177.016 81.4951 176.229 87.0229 169.915 87.0229C164.446 87.0229 160.02 81.2787 160.02 79.9803ZM162.282 79.9803C163.147 81.2 166 84.977 169.974 84.977C174.42 84.977 175.639 80.3738 179.161 80C175.639 79.6065 174.42 75.0033 169.974 75.0033C166 75.0033 163.147 78.7803 162.282 79.9803ZM166.983 79.8229C167.731 79.8229 168.341 79.2131 168.341 78.4656C168.341 77.718 167.731 77.1082 166.983 77.1082C166.236 77.1082 165.626 77.718 165.626 78.4656C165.626 79.2131 166.236 79.8229 166.983 79.8229ZM170.682 86.4524L168.872 85.5475C170.033 83.9147 170.682 82.0656 170.682 79.9213C170.682 77.8557 170.092 76.0459 168.99 74.4721L170.8 73.5672C172.039 75.3574 172.767 77.5803 172.767 79.9213C172.767 82.3606 171.98 84.6229 170.682 86.4524Z" fill="#FCFCFC"/>
</svg>
