<svg width="343" height="160" viewBox="0 0 343 160" fill="none" xmlns="http://www.w3.org/2000/svg">
<rect width="343" height="160" fill="#F7F7F7"/>
<path d="M192 72C192 67.5817 195.582 64 200 64H308C312.418 64 316 67.5817 316 72V88C316 92.4183 312.418 96 308 96H200C195.582 96 192 92.4183 192 88V72Z" fill="#79D279"/>
<path d="M215.243 80C215.243 80.4426 214.947 80.7771 214.387 81.4557C213.875 82.0754 214.525 82.8918 213.718 83.6984C212.941 84.4951 212.066 83.8066 211.485 84.3869C210.797 85.0754 210.502 85.2721 210 85.2721C209.498 85.2721 209.203 85.0754 208.515 84.3869C207.934 83.8066 207.059 84.4951 206.282 83.6984C205.475 82.8918 206.125 82.0754 205.613 81.4557C205.052 80.7771 204.757 80.4426 204.757 80C204.757 79.5377 205.052 79.1344 205.613 78.5443C206.164 77.9639 205.475 77.1082 206.282 76.3016C207.059 75.5049 207.934 76.1934 208.515 75.6131C209.203 74.9246 209.498 74.7279 210 74.7279C210.502 74.7279 210.797 74.9246 211.485 75.6131C212.066 76.1934 212.941 75.5049 213.718 76.3016C214.525 77.1082 213.836 77.9639 214.387 78.5443C214.947 79.1344 215.243 79.5377 215.243 80ZM214.446 80C214.446 79.6656 214.229 79.3902 213.816 79.0557C212.951 78.3574 213.679 77.3738 213.167 76.8525C212.666 76.3508 211.849 77.1279 210.974 76.2033C210.452 75.6525 210.325 75.5148 210 75.5148C209.675 75.5148 209.547 75.6525 209.026 76.2033C208.151 77.1279 207.334 76.3508 206.833 76.8525C206.321 77.3738 207.049 78.3574 206.184 79.0557C205.77 79.3902 205.554 79.6656 205.554 80C205.554 80.3148 205.77 80.5902 206.184 80.9443C207.02 81.6623 206.321 82.6262 206.833 83.1475C207.334 83.6492 208.151 82.8721 209.026 83.7967C209.547 84.3475 209.675 84.4853 210 84.4853C210.325 84.4853 210.452 84.3475 210.974 83.7967C211.849 82.8721 212.666 83.6492 213.167 83.1475C213.679 82.6262 212.98 81.6623 213.816 80.9443C214.229 80.5902 214.446 80.3148 214.446 80ZM207.826 81.7115L208.279 82.2033L212.203 78.2885L211.731 77.7869L207.826 81.7115ZM208.525 79.0361C208.8 79.0361 209.016 78.8197 209.016 78.5443C209.016 78.2689 208.8 78.0525 208.525 78.0525C208.239 78.0525 208.033 78.2689 208.033 78.5443C208.033 78.8197 208.249 79.0361 208.525 79.0361ZM211.475 81.9869C211.751 81.9869 211.967 81.7705 211.967 81.4951C211.967 81.2197 211.751 81.0033 211.475 81.0033C211.2 81.0033 210.984 81.2197 210.984 81.4951C210.984 81.7705 211.2 81.9869 211.475 81.9869Z" fill="#003600"/>
<path d="M225.04 86V75.024H228.544C230.384 75.024 231.936 76.112 231.936 78.416C231.936 80.752 230.384 81.824 228.544 81.824H226.4V86H225.04ZM226.4 80.608H228.64C229.728 80.608 230.56 79.84 230.56 78.416C230.56 77.008 229.728 76.24 228.64 76.24H226.4V80.608ZM233.698 86V78H234.962L234.898 79.904C235.394 78.352 236.482 77.84 237.426 77.84C237.714 77.84 238.018 77.888 238.242 77.952V79.44C237.874 79.344 237.538 79.296 237.218 79.296C235.97 79.296 235.01 80.032 235.01 81.696V86H233.698ZM243.242 86.176C241.018 86.176 239.242 84.592 239.242 82C239.242 79.408 241.018 77.824 243.242 77.824C245.434 77.824 247.21 79.408 247.21 82C247.21 84.592 245.434 86.176 243.242 86.176ZM240.554 82C240.554 83.872 241.738 84.944 243.242 84.944C244.698 84.944 245.898 83.872 245.898 82C245.898 80.128 244.698 79.056 243.242 79.056C241.738 79.056 240.554 80.128 240.554 82ZM249.308 86V78H250.604L250.524 79.936C250.764 79.072 251.404 77.824 253.1 77.824C254.284 77.824 255.292 78.48 255.596 79.872C255.868 78.96 256.556 77.824 258.156 77.824C259.612 77.824 260.764 78.8 260.764 80.8V86H259.452V81.216C259.452 79.648 258.668 79.056 257.74 79.056C256.62 79.056 255.708 79.936 255.708 81.68V86H254.396V81.28C254.396 79.648 253.596 79.056 252.668 79.056C251.548 79.056 250.62 79.936 250.62 81.68V86H249.308ZM266.804 86.176C264.58 86.176 262.804 84.592 262.804 82C262.804 79.408 264.58 77.824 266.804 77.824C268.996 77.824 270.772 79.408 270.772 82C270.772 84.592 268.996 86.176 266.804 86.176ZM264.116 82C264.116 83.872 265.3 84.944 266.804 84.944C268.26 84.944 269.46 83.872 269.46 82C269.46 80.128 268.26 79.056 266.804 79.056C265.3 79.056 264.116 80.128 264.116 82ZM276.333 86.16C274.333 86.16 272.429 84.736 272.429 82C272.429 79.232 274.381 77.824 276.381 77.824C277.821 77.824 279.277 78.592 279.933 80.128L278.877 80.752C278.413 79.616 277.373 79.056 276.365 79.056C275.053 79.056 273.741 80.016 273.741 81.984C273.741 83.968 275.037 84.928 276.349 84.928C277.373 84.928 278.413 84.352 278.877 83.216L279.933 83.84C279.245 85.392 277.789 86.16 276.333 86.16ZM281.888 86V78H283.2V86H281.888ZM281.712 76.528V74.768H283.36V76.528H281.712ZM289.367 86.176C287.143 86.176 285.367 84.592 285.367 82C285.367 79.408 287.143 77.824 289.367 77.824C291.559 77.824 293.335 79.408 293.335 82C293.335 84.592 291.559 86.176 289.367 86.176ZM286.679 82C286.679 83.872 287.863 84.944 289.367 84.944C290.823 84.944 292.023 83.872 292.023 82C292.023 80.128 290.823 79.056 289.367 79.056C287.863 79.056 286.679 80.128 286.679 82ZM288.807 76.88L289.735 74.352H291.287L289.847 76.88H288.807ZM295.433 86V78H296.729L296.649 79.936C297.033 78.56 298.249 77.824 299.449 77.824C300.857 77.824 302.233 78.816 302.233 80.896V86H300.921V81.136C300.921 79.728 300.009 79.056 299.033 79.056C297.929 79.056 296.745 79.92 296.745 81.68V86H295.433Z" fill="#003600"/>
<path d="M28 80C28 71.1634 35.1634 64 44 64H114C122.837 64 130 71.1634 130 80C130 88.8366 122.837 96 114 96H44C35.1634 96 28 88.8366 28 80Z" fill="#FCFCFC"/>
<path d="M38.702 85V76.46H36.196V75.396H42.37V76.46H39.878V85H38.702ZM45.0266 85.154C43.8366 85.154 42.7726 84.426 42.7726 83.124C42.7726 81.64 44.1306 80.968 46.1466 80.968C46.5946 80.968 47.0426 80.996 47.5186 81.052V80.604C47.5186 79.456 46.6786 78.882 45.8106 78.882C45.1106 78.882 44.4246 79.26 44.1026 79.96L43.2206 79.498C43.6826 78.336 44.8026 77.846 45.8666 77.846C47.3086 77.846 48.6246 78.728 48.6246 80.52V85H47.5326V83.222C47.1826 84.552 46.1186 85.154 45.0266 85.154ZM43.9066 83.054C43.9066 83.754 44.5366 84.118 45.3066 84.118C46.3006 84.118 47.3646 83.488 47.5046 82.004C46.9866 81.92 46.5106 81.878 46.0906 81.878C44.5506 81.878 43.9066 82.368 43.9066 83.054ZM50.5425 85V78H51.6765L51.6065 79.694C51.8165 78.938 52.3765 77.846 53.8605 77.846C54.8965 77.846 55.7785 78.42 56.0445 79.638C56.2825 78.84 56.8845 77.846 58.2845 77.846C59.5585 77.846 60.5665 78.7 60.5665 80.45V85H59.4185V80.814C59.4185 79.442 58.7325 78.924 57.9205 78.924C56.9405 78.924 56.1425 79.694 56.1425 81.22V85H54.9945V80.87C54.9945 79.442 54.2945 78.924 53.4825 78.924C52.5025 78.924 51.6905 79.694 51.6905 81.22V85H50.5425ZM64.55 85.154C63.36 85.154 62.296 84.426 62.296 83.124C62.296 81.64 63.654 80.968 65.67 80.968C66.118 80.968 66.566 80.996 67.042 81.052V80.604C67.042 79.456 66.202 78.882 65.334 78.882C64.634 78.882 63.948 79.26 63.626 79.96L62.744 79.498C63.206 78.336 64.326 77.846 65.39 77.846C66.832 77.846 68.148 78.728 68.148 80.52V85H67.056V83.222C66.706 84.552 65.642 85.154 64.55 85.154ZM63.43 83.054C63.43 83.754 64.06 84.118 64.83 84.118C65.824 84.118 66.888 83.488 67.028 82.004C66.51 81.92 66.034 81.878 65.614 81.878C64.074 81.878 63.43 82.368 63.43 83.054ZM70.0659 85V78H71.1999L71.1299 79.694C71.4659 78.49 72.5299 77.846 73.5799 77.846C74.8119 77.846 76.0159 78.714 76.0159 80.534V85H74.8679V80.744C74.8679 79.512 74.0699 78.924 73.2159 78.924C72.2499 78.924 71.2139 79.68 71.2139 81.22V85H70.0659ZM70.6819 76.67C70.7099 75.76 71.2839 74.99 72.2359 74.99C73.1599 74.99 73.3979 75.774 73.8879 75.774C74.2099 75.774 74.4479 75.508 74.4759 75.004H75.3719C75.3579 75.956 74.8539 76.768 73.8879 76.768C73.0199 76.768 72.7819 75.984 72.2359 75.984C71.9139 75.984 71.6199 76.208 71.5919 76.67H70.6819ZM81.3013 85.154C79.3553 85.154 77.8013 83.768 77.8013 81.5C77.8013 79.232 79.3553 77.846 81.3013 77.846C83.2193 77.846 84.7733 79.232 84.7733 81.5C84.7733 83.768 83.2193 85.154 81.3013 85.154ZM78.9493 81.5C78.9493 83.138 79.9853 84.076 81.3013 84.076C82.5753 84.076 83.6253 83.138 83.6253 81.5C83.6253 79.862 82.5753 78.924 81.3013 78.924C79.9853 78.924 78.9493 79.862 78.9493 81.5ZM92.3443 85V76.74H92.1203L90.1743 78.028L89.5863 77.188L92.2323 75.396H93.5203V85H92.3443ZM95.9458 83.334C98.5918 81.01 100.552 79.26 100.552 77.706C100.552 76.726 99.7398 76.306 98.9138 76.306C97.9758 76.306 97.2058 76.824 96.9398 77.86L95.9178 77.44C96.2958 75.984 97.5418 75.242 98.9558 75.242C100.314 75.242 101.756 75.942 101.756 77.664C101.756 79.526 100.104 81.178 97.1918 83.712V83.936H102.036V85H95.9458V83.334ZM108.552 80.338V83.418C109.084 83.852 109.686 84.062 110.288 84.062C111.59 84.062 112.668 83.054 112.668 81.43C112.668 79.848 111.674 78.938 110.526 78.938C109.644 78.938 108.832 79.47 108.552 80.338ZM107.404 87.716V78H108.538L108.496 79.358C109 78.364 109.924 77.846 110.918 77.846C112.444 77.846 113.816 79.078 113.816 81.346C113.816 83.712 112.22 85.154 110.4 85.154C109.7 85.154 109.084 84.958 108.538 84.65V87.716H107.404ZM119.587 78H120.875L119.027 81.5L121.127 85H119.853L118.047 81.948H117.809L116.031 85H114.743L116.843 81.458L115.009 78H116.283L117.809 81.038H118.047L119.587 78Z" fill="black"/>
<path d="M198.833 80C198.833 81.4728 200.027 82.6667 201.5 82.6667C202.973 82.6667 204.167 81.4728 204.167 80C204.167 78.5272 202.973 77.3333 201.5 77.3333C200.027 77.3333 198.833 78.5272 198.833 80ZM131 80.5H201.5V79.5H131V80.5Z" fill="#DEDEDE"/>
</svg>
