<svg width="343" height="160" viewBox="0 0 343 160" fill="none" xmlns="http://www.w3.org/2000/svg">
<g clip-path="url(#clip0_1630_141189)">
<rect width="343" height="160" fill="#F7F7F7"/>
<g clip-path="url(#clip1_1630_141189)">
<path d="M225.646 59V51.146H223.336V49.396H229.93V51.146H227.606V59H225.646ZM233.777 59.168C231.971 59.168 230.277 57.894 230.277 55.472C230.277 53.106 232.055 51.832 233.861 51.832C235.471 51.832 237.291 52.854 237.291 55.598C237.291 55.78 237.263 56.13 237.263 56.186H232.209C232.489 57.096 233.245 57.502 233.973 57.502C234.561 57.502 235.149 57.236 235.541 56.704L236.773 57.684C236.171 58.692 234.883 59.168 233.777 59.168ZM232.181 54.772H235.331C235.107 53.708 234.407 53.4 233.805 53.4C233.062 53.4 232.391 53.862 232.181 54.772ZM232.909 51.146L233.833 48.584H236.017L234.449 51.146H232.909ZM238.852 59V52H240.63L240.532 53.54C240.812 52.462 241.694 51.874 242.604 51.874C242.8 51.874 242.996 51.888 243.178 51.944V54.142C242.744 54.016 242.408 53.96 242.114 53.96C240.98 53.96 240.756 54.856 240.756 56.13V59H238.852ZM244.499 59V52H246.403L246.305 53.47C246.571 52.476 247.439 51.832 248.433 51.832C249.357 51.832 250.281 52.364 250.631 53.512C250.939 52.462 251.835 51.832 252.829 51.832C254.019 51.832 255.209 52.714 255.209 54.646V59H253.305V55.024C253.305 53.974 252.689 53.624 252.171 53.624C251.471 53.624 250.799 54.226 250.799 55.374V59H248.895V55.038C248.895 53.974 248.293 53.624 247.761 53.624C247.075 53.624 246.403 54.226 246.403 55.374V59H244.499ZM256.969 59V52H258.873V59H256.969ZM256.843 50.964V48.836H258.999V50.964H256.843ZM260.659 59V52H262.563L262.465 53.484C262.787 52.392 263.739 51.832 264.733 51.832C265.965 51.832 267.225 52.742 267.225 54.66V59H265.321V55.15C265.321 54.114 264.705 53.624 264.047 53.624C263.333 53.624 262.563 54.24 262.563 55.374V59H260.659ZM272.389 59.168C270.023 59.168 268.763 57.376 268.763 55.5C268.763 53.624 270.023 51.832 272.389 51.832C274.713 51.832 275.973 53.624 275.973 55.5C275.973 57.376 274.713 59.168 272.389 59.168ZM270.667 55.5C270.667 56.466 271.269 57.376 272.375 57.376C273.481 57.376 274.069 56.466 274.069 55.5C274.069 54.534 273.481 53.624 272.375 53.624C271.269 53.624 270.667 54.534 270.667 55.5ZM278.327 56.438C278.887 57.264 279.699 57.46 280.287 57.46C280.875 57.46 281.309 57.278 281.309 57.04C281.309 56.354 277.403 56.494 277.403 54.114C277.403 52.686 278.789 51.832 280.273 51.832C281.337 51.832 282.457 52.266 283.129 53.274L281.855 54.282C281.407 53.722 280.763 53.526 280.217 53.526C279.713 53.526 279.307 53.708 279.307 53.946C279.307 54.632 283.213 54.548 283.213 56.914C283.213 58.356 281.827 59.168 280.287 59.168C279.111 59.168 277.865 58.65 277.095 57.544L278.327 56.438ZM290.757 61.884C289.721 61.884 288.405 61.45 287.845 60.414L289.217 59.392C289.511 59.84 290.057 60.12 290.715 60.12C291.569 60.12 292.633 59.658 292.633 58.468V57.404C292.339 58.342 291.471 58.93 290.491 58.93C289.301 58.93 288.069 58.048 288.069 56.102V52H289.973V55.598C289.973 56.648 290.547 57.124 291.177 57.124C291.863 57.124 292.577 56.536 292.577 55.388V52H294.481V58.314C294.481 60.582 292.633 61.884 290.757 61.884ZM303.189 59.168C301.341 59.168 299.675 57.824 299.675 55.542C299.675 53.148 301.467 51.832 303.329 51.832C304.505 51.832 305.737 52.378 306.451 53.54L305.023 54.604C304.617 53.96 303.959 53.624 303.329 53.624C302.433 53.624 301.579 54.282 301.579 55.5C301.579 56.718 302.419 57.362 303.315 57.362C303.959 57.362 304.617 57.04 305.023 56.382L306.451 57.46C305.639 58.622 304.393 59.168 303.189 59.168ZM311.217 59.168C308.851 59.168 307.591 57.376 307.591 55.5C307.591 53.624 308.851 51.832 311.217 51.832C313.541 51.832 314.801 53.624 314.801 55.5C314.801 57.376 313.541 59.168 311.217 59.168ZM309.495 55.5C309.495 56.466 310.097 57.376 311.203 57.376C312.309 57.376 312.897 56.466 312.897 55.5C312.897 54.534 312.309 53.624 311.203 53.624C310.097 53.624 309.495 54.534 309.495 55.5ZM316.372 59V52H318.276L318.178 53.484C318.5 52.392 319.452 51.832 320.446 51.832C321.678 51.832 322.938 52.742 322.938 54.66V59H321.034V55.15C321.034 54.114 320.418 53.624 319.76 53.624C319.046 53.624 318.276 54.24 318.276 55.374V59H316.372ZM327.43 59.14C325.848 59.14 324.476 57.922 324.476 55.64C324.476 53.134 326.254 51.818 328.018 51.818C328.592 51.818 329.152 51.958 329.67 52.238L329.614 49.116H331.518V59H329.684L329.712 57.894C329.292 58.664 328.438 59.14 327.43 59.14ZM326.38 55.542C326.38 56.466 326.954 57.362 328.046 57.362C328.788 57.362 329.348 56.97 329.614 56.368V54.198C329.25 53.806 328.746 53.61 328.2 53.61C327.052 53.61 326.38 54.534 326.38 55.542ZM333.272 59V52H335.176V59H333.272ZM333.146 50.964V48.836H335.302V50.964H333.146ZM340.335 59.168C338.487 59.168 336.821 57.824 336.821 55.542C336.821 53.148 338.613 51.832 340.475 51.832C341.651 51.832 342.883 52.378 343.597 53.54L342.169 54.604C341.763 53.96 341.105 53.624 340.475 53.624C339.579 53.624 338.725 54.282 338.725 55.5C338.725 56.718 339.565 57.362 340.461 57.362C341.105 57.362 341.763 57.04 342.169 56.382L343.597 57.46C342.785 58.622 341.539 59.168 340.335 59.168ZM345.18 59V52H347.084V59H345.18ZM345.054 50.964V48.836H347.21V50.964H345.054ZM352.356 59.168C349.99 59.168 348.73 57.376 348.73 55.5C348.73 53.624 349.99 51.832 352.356 51.832C354.68 51.832 355.94 53.624 355.94 55.5C355.94 57.376 354.68 59.168 352.356 59.168ZM350.634 55.5C350.634 56.466 351.236 57.376 352.342 57.376C353.448 57.376 354.036 56.466 354.036 55.5C354.036 54.534 353.448 53.624 352.342 53.624C351.236 53.624 350.634 54.534 350.634 55.5ZM357.51 59V52H359.414L359.316 53.484C359.638 52.392 360.59 51.832 361.584 51.832C362.816 51.832 364.076 52.742 364.076 54.66V59H362.172V55.15C362.172 54.114 361.556 53.624 360.898 53.624C360.184 53.624 359.414 54.24 359.414 55.374V59H357.51ZM369.114 59.168C367.308 59.168 365.614 57.894 365.614 55.472C365.614 53.106 367.392 51.832 369.198 51.832C370.808 51.832 372.628 52.854 372.628 55.598C372.628 55.78 372.6 56.13 372.6 56.186H367.546C367.826 57.096 368.582 57.502 369.31 57.502C369.898 57.502 370.486 57.236 370.878 56.704L372.11 57.684C371.508 58.692 370.22 59.168 369.114 59.168ZM367.518 54.772H370.668C370.444 53.708 369.744 53.4 369.142 53.4C368.4 53.4 367.728 53.862 367.518 54.772ZM374.974 56.438C375.534 57.264 376.346 57.46 376.934 57.46C377.522 57.46 377.956 57.278 377.956 57.04C377.956 56.354 374.05 56.494 374.05 54.114C374.05 52.686 375.436 51.832 376.92 51.832C377.984 51.832 379.104 52.266 379.776 53.274L378.502 54.282C378.054 53.722 377.41 53.526 376.864 53.526C376.36 53.526 375.954 53.708 375.954 53.946C375.954 54.632 379.86 54.548 379.86 56.914C379.86 58.356 378.474 59.168 376.934 59.168C375.758 59.168 374.512 58.65 373.742 57.544L374.974 56.438ZM223.42 83L226.906 73.396H228.768L232.254 83H231.022L229.93 79.99H225.73L224.652 83H223.42ZM226.108 78.926H229.552L227.928 74.432H227.718L226.108 78.926ZM233.646 83V73.116H234.794V83H233.646ZM236.779 83V76H237.927V83H236.779ZM236.625 74.712V73.172H238.067V74.712H236.625ZM243.239 83.14C241.489 83.14 239.823 81.894 239.823 79.5C239.823 77.078 241.531 75.846 243.281 75.846C244.541 75.846 245.815 76.518 246.389 77.862L245.465 78.408C245.059 77.414 244.149 76.924 243.267 76.924C242.119 76.924 240.971 77.764 240.971 79.486C240.971 81.222 242.105 82.062 243.253 82.062C244.149 82.062 245.059 81.558 245.465 80.564L246.389 81.11C245.787 82.468 244.513 83.14 243.239 83.14ZM251.143 83.154C249.197 83.154 247.643 81.768 247.643 79.5C247.643 77.232 249.197 75.846 251.143 75.846C253.061 75.846 254.615 77.232 254.615 79.5C254.615 81.768 253.061 83.154 251.143 83.154ZM248.791 79.5C248.791 81.138 249.827 82.076 251.143 82.076C252.417 82.076 253.467 81.138 253.467 79.5C253.467 77.862 252.417 76.924 251.143 76.924C249.827 76.924 248.791 77.862 248.791 79.5ZM256.451 83V76H257.557L257.501 77.666C257.935 76.308 258.887 75.86 259.713 75.86C259.965 75.86 260.231 75.902 260.427 75.958V77.26C260.105 77.176 259.811 77.134 259.531 77.134C258.439 77.134 257.599 77.778 257.599 79.234V83H256.451ZM262.917 78.338V81.418C263.449 81.852 264.051 82.062 264.653 82.062C265.955 82.062 267.033 81.054 267.033 79.43C267.033 77.848 266.039 76.938 264.891 76.938C264.009 76.938 263.197 77.47 262.917 78.338ZM261.769 85.716V76H262.903L262.861 77.358C263.365 76.364 264.289 75.846 265.283 75.846C266.809 75.846 268.181 77.078 268.181 79.346C268.181 81.712 266.585 83.154 264.765 83.154C264.065 83.154 263.449 82.958 262.903 82.65V85.716H261.769ZM276.477 83.154C275.231 83.154 274.405 82.342 274.405 80.802V76.98H273.229V76H274.405V74.362H275.553L275.455 76H277.135V76.98H275.553V80.732C275.553 81.684 275.917 82.146 276.631 82.146C276.883 82.146 277.205 82.09 277.555 81.95L277.821 82.888C277.345 83.07 276.883 83.154 276.477 83.154ZM282.242 83.14C280.548 83.14 278.938 81.88 278.938 79.514C278.938 77.47 280.31 75.846 282.326 75.846C283.964 75.846 285.504 76.91 285.504 79.262C285.504 79.388 285.504 79.584 285.49 79.696H280.058C280.156 81.278 281.234 82.09 282.312 82.09C283.152 82.09 284.02 81.628 284.44 80.774L285.238 81.278C284.706 82.51 283.418 83.14 282.242 83.14ZM280.128 78.772H284.342C284.174 77.414 283.264 76.826 282.284 76.826C281.136 76.826 280.352 77.652 280.128 78.772ZM293.631 83.154C292.749 83.154 291.867 82.944 291.027 82.51V73.116H292.161L292.119 77.358C292.623 76.35 293.533 75.846 294.485 75.846C295.969 75.846 297.439 77.008 297.439 79.332C297.439 81.852 295.703 83.154 293.631 83.154ZM292.175 81.726C292.637 81.936 293.127 82.062 293.673 82.062C295.031 82.062 296.277 81.25 296.277 79.402C296.277 77.736 295.213 76.938 294.135 76.938C293.267 76.938 292.455 77.456 292.175 78.366V81.726ZM299.257 83V76H300.363L300.307 77.666C300.741 76.308 301.693 75.86 302.519 75.86C302.771 75.86 303.037 75.902 303.233 75.958V77.26C302.911 77.176 302.617 77.134 302.337 77.134C301.245 77.134 300.405 77.778 300.405 79.234V83H299.257ZM304.646 83V76H305.794V83H304.646ZM304.492 74.712V73.172H305.934V74.712H304.492ZM307.816 83V76H308.95L308.88 77.694C309.216 76.49 310.28 75.846 311.33 75.846C312.562 75.846 313.766 76.714 313.766 78.534V83H312.618V78.744C312.618 77.512 311.82 76.924 310.966 76.924C310 76.924 308.964 77.68 308.964 79.22V83H307.816ZM318.547 83.154C317.021 83.154 315.551 81.894 315.551 79.64C315.551 77.246 317.119 75.832 318.967 75.832C319.737 75.832 320.395 76.084 320.885 76.406L320.871 73.116H322.019V83H320.885L320.927 81.642C320.479 82.566 319.583 83.154 318.547 83.154ZM316.699 79.486C316.699 81.152 317.707 82.062 318.911 82.062C319.779 82.062 320.577 81.558 320.871 80.676V77.68C320.409 77.218 319.765 76.924 319.065 76.924C317.735 76.924 316.699 77.974 316.699 79.486ZM325.993 83.154C324.803 83.154 323.739 82.426 323.739 81.124C323.739 79.64 325.097 78.968 327.113 78.968C327.561 78.968 328.009 78.996 328.485 79.052V78.604C328.485 77.456 327.645 76.882 326.777 76.882C326.077 76.882 325.391 77.26 325.069 77.96L324.187 77.498C324.649 76.336 325.769 75.846 326.833 75.846C328.275 75.846 329.591 76.728 329.591 78.52V83H328.499V81.222C328.149 82.552 327.085 83.154 325.993 83.154ZM324.873 81.054C324.873 81.754 325.503 82.118 326.273 82.118C327.267 82.118 328.331 81.488 328.471 80.004C327.953 79.92 327.477 79.878 327.057 79.878C325.517 79.878 324.873 80.368 324.873 81.054ZM335.761 80.746C336.083 81.754 336.965 82.118 337.749 82.118C338.505 82.118 339.205 81.796 339.205 81.236C339.205 79.864 335.187 80.102 335.187 77.834C335.187 76.574 336.391 75.846 337.679 75.846C338.729 75.846 339.835 76.336 340.311 77.456L339.457 77.988C339.107 77.204 338.351 76.868 337.665 76.868C336.965 76.868 336.335 77.218 336.335 77.764C336.335 79.066 340.353 78.884 340.353 81.138C340.353 82.426 339.079 83.154 337.749 83.154C336.573 83.154 335.369 82.58 334.935 81.306L335.761 80.746ZM345.133 83.14C343.439 83.14 341.829 81.88 341.829 79.514C341.829 77.47 343.201 75.846 345.217 75.846C346.855 75.846 348.395 76.91 348.395 79.262C348.395 79.388 348.395 79.584 348.381 79.696H342.949C343.047 81.278 344.125 82.09 345.203 82.09C346.043 82.09 346.911 81.628 347.331 80.774L348.129 81.278C347.597 82.51 346.309 83.14 345.133 83.14ZM343.019 78.772H347.233C347.065 77.414 346.155 76.826 345.175 76.826C344.027 76.826 343.243 77.652 343.019 78.772ZM353.046 85.87C351.912 85.87 350.862 85.352 350.358 84.414L351.24 83.826C351.59 84.428 352.276 84.834 353.088 84.834C354.04 84.834 355.076 84.26 355.076 82.958V81.488C354.558 82.552 353.662 83.028 352.738 83.028C351.31 83.028 349.84 81.824 349.84 79.5C349.84 76.994 351.548 75.846 353.494 75.846C354.306 75.846 355.09 76.028 356.182 76.546V82.958C356.182 84.89 354.6 85.87 353.046 85.87ZM351.002 79.472C351.002 81.18 352.08 81.978 353.088 81.978C353.956 81.978 354.81 81.446 355.034 80.438V77.316C354.558 77.05 354.012 76.938 353.508 76.938C352.22 76.938 351.002 77.638 351.002 79.472ZM363.785 76V83H362.651L362.707 81.362C362.371 82.538 361.461 83.154 360.341 83.154C359.193 83.154 358.101 82.482 358.101 80.662V76H359.249V80.41C359.249 81.642 359.963 82.076 360.705 82.076C361.685 82.076 362.637 81.32 362.637 79.78V76H363.785ZM365.757 83V76H366.863L366.807 77.666C367.241 76.308 368.193 75.86 369.019 75.86C369.271 75.86 369.537 75.902 369.733 75.958V77.26C369.411 77.176 369.117 77.134 368.837 77.134C367.745 77.134 366.905 77.778 366.905 79.234V83H365.757ZM371.146 83V76H372.294V83H371.146ZM370.992 74.712V73.172H372.434V74.712H370.992ZM377.186 83.154C375.66 83.154 374.19 81.894 374.19 79.64C374.19 77.246 375.758 75.832 377.606 75.832C378.376 75.832 379.034 76.084 379.524 76.406L379.51 73.116H380.658V83H379.524L379.566 81.642C379.118 82.566 378.222 83.154 377.186 83.154ZM375.338 79.486C375.338 81.152 376.346 82.062 377.55 82.062C378.418 82.062 379.216 81.558 379.51 80.676V77.68C379.048 77.218 378.404 76.924 377.704 76.924C376.374 76.924 375.338 77.974 375.338 79.486ZM384.632 83.154C383.442 83.154 382.378 82.426 382.378 81.124C382.378 79.64 383.736 78.968 385.752 78.968C386.2 78.968 386.648 78.996 387.124 79.052V78.604C387.124 77.456 386.284 76.882 385.416 76.882C384.716 76.882 384.03 77.26 383.708 77.96L382.826 77.498C383.288 76.336 384.408 75.846 385.472 75.846C386.914 75.846 388.23 76.728 388.23 78.52V83H387.138V81.222C386.788 82.552 385.724 83.154 384.632 83.154ZM383.512 81.054C383.512 81.754 384.142 82.118 384.912 82.118C385.906 82.118 386.97 81.488 387.11 80.004C386.592 79.92 386.116 79.878 385.696 79.878C384.156 79.878 383.512 80.368 383.512 81.054ZM393.018 83.154C391.492 83.154 390.022 81.894 390.022 79.64C390.022 77.246 391.59 75.832 393.438 75.832C394.208 75.832 394.866 76.084 395.356 76.406L395.342 73.116H396.49V83H395.356L395.398 81.642C394.95 82.566 394.054 83.154 393.018 83.154ZM391.17 79.486C391.17 81.152 392.178 82.062 393.382 82.062C394.25 82.062 395.048 81.558 395.342 80.676V77.68C394.88 77.218 394.236 76.924 393.536 76.924C392.206 76.924 391.17 77.974 391.17 79.486ZM227.158 107.14C225.464 107.14 223.854 105.88 223.854 103.514C223.854 101.47 225.226 99.846 227.242 99.846C228.88 99.846 230.42 100.91 230.42 103.262C230.42 103.388 230.42 103.584 230.406 103.696H224.974C225.072 105.278 226.15 106.09 227.228 106.09C228.068 106.09 228.936 105.628 229.356 104.774L230.154 105.278C229.622 106.51 228.334 107.14 227.158 107.14ZM225.044 102.772H229.258C229.09 101.414 228.18 100.826 227.2 100.826C226.052 100.826 225.268 101.652 225.044 102.772ZM232.251 107V100H233.385L233.315 101.694C233.651 100.49 234.715 99.846 235.765 99.846C236.997 99.846 238.201 100.714 238.201 102.534V107H237.053V102.744C237.053 101.512 236.255 100.924 235.401 100.924C234.435 100.924 233.399 101.68 233.399 103.22V107H232.251ZM246.576 107.154C245.33 107.154 244.504 106.342 244.504 104.802V100.98H243.328V100H244.504V98.362H245.652L245.554 100H247.234V100.98H245.652V104.732C245.652 105.684 246.016 106.146 246.73 106.146C246.982 106.146 247.304 106.09 247.654 105.95L247.92 106.888C247.444 107.07 246.982 107.154 246.576 107.154ZM252.538 107.154C250.592 107.154 249.038 105.768 249.038 103.5C249.038 101.232 250.592 99.846 252.538 99.846C254.456 99.846 256.01 101.232 256.01 103.5C256.01 105.768 254.456 107.154 252.538 107.154ZM250.186 103.5C250.186 105.138 251.222 106.076 252.538 106.076C253.812 106.076 254.862 105.138 254.862 103.5C254.862 101.862 253.812 100.924 252.538 100.924C251.222 100.924 250.186 101.862 250.186 103.5ZM260.455 107.154C258.929 107.154 257.459 105.894 257.459 103.64C257.459 101.246 259.027 99.832 260.875 99.832C261.645 99.832 262.303 100.084 262.793 100.406L262.779 97.116H263.927V107H262.793L262.835 105.642C262.387 106.566 261.491 107.154 260.455 107.154ZM258.607 103.486C258.607 105.152 259.615 106.062 260.819 106.062C261.687 106.062 262.485 105.558 262.779 104.676V101.68C262.317 101.218 261.673 100.924 260.973 100.924C259.643 100.924 258.607 101.974 258.607 103.486ZM267.902 107.154C266.712 107.154 265.648 106.426 265.648 105.124C265.648 103.64 267.006 102.968 269.022 102.968C269.47 102.968 269.918 102.996 270.394 103.052V102.604C270.394 101.456 269.554 100.882 268.686 100.882C267.986 100.882 267.3 101.26 266.978 101.96L266.096 101.498C266.558 100.336 267.678 99.846 268.742 99.846C270.184 99.846 271.5 100.728 271.5 102.52V107H270.408V105.222C270.058 106.552 268.994 107.154 267.902 107.154ZM266.782 105.054C266.782 105.754 267.412 106.118 268.182 106.118C269.176 106.118 270.24 105.488 270.38 104.004C269.862 103.92 269.386 103.878 268.966 103.878C267.426 103.878 266.782 104.368 266.782 105.054ZM277.109 107V97.116H278.257V107H277.109ZM282.243 107.154C281.053 107.154 279.989 106.426 279.989 105.124C279.989 103.64 281.347 102.968 283.363 102.968C283.811 102.968 284.259 102.996 284.735 103.052V102.604C284.735 101.456 283.895 100.882 283.027 100.882C282.327 100.882 281.641 101.26 281.319 101.96L280.437 101.498C280.899 100.336 282.019 99.846 283.083 99.846C284.525 99.846 285.841 100.728 285.841 102.52V107H284.749V105.222C284.399 106.552 283.335 107.154 282.243 107.154ZM281.123 105.054C281.123 105.754 281.753 106.118 282.523 106.118C283.517 106.118 284.581 105.488 284.721 104.004C284.203 103.92 283.727 103.878 283.307 103.878C281.767 103.878 281.123 104.368 281.123 105.054ZM294.629 107.14C292.935 107.14 291.325 105.88 291.325 103.514C291.325 101.47 292.697 99.846 294.713 99.846C296.351 99.846 297.891 100.91 297.891 103.262C297.891 103.388 297.891 103.584 297.877 103.696H292.445C292.543 105.278 293.621 106.09 294.699 106.09C295.539 106.09 296.407 105.628 296.827 104.774L297.625 105.278C297.093 106.51 295.805 107.14 294.629 107.14ZM292.515 102.772H296.729C296.561 101.414 295.651 100.826 294.671 100.826C293.523 100.826 292.739 101.652 292.515 102.772ZM303.661 100H304.949L303.101 103.5L305.201 107H303.927L302.121 103.948H301.883L300.105 107H298.817L300.917 103.458L299.083 100H300.357L301.883 103.038H302.121L303.661 100ZM307.638 102.338V105.418C308.17 105.852 308.772 106.062 309.374 106.062C310.676 106.062 311.754 105.054 311.754 103.43C311.754 101.848 310.76 100.938 309.612 100.938C308.73 100.938 307.918 101.47 307.638 102.338ZM306.49 109.716V100H307.624L307.582 101.358C308.086 100.364 309.01 99.846 310.004 99.846C311.53 99.846 312.902 101.078 312.902 103.346C312.902 105.712 311.306 107.154 309.486 107.154C308.786 107.154 308.17 106.958 307.624 106.65V109.716H306.49ZM317.652 107.14C315.958 107.14 314.348 105.88 314.348 103.514C314.348 101.47 315.72 99.846 317.736 99.846C319.374 99.846 320.914 100.91 320.914 103.262C320.914 103.388 320.914 103.584 320.9 103.696H315.468C315.566 105.278 316.644 106.09 317.722 106.09C318.562 106.09 319.43 105.628 319.85 104.774L320.648 105.278C320.116 106.51 318.828 107.14 317.652 107.14ZM315.538 102.772H319.752C319.584 101.414 318.674 100.826 317.694 100.826C316.546 100.826 315.762 101.652 315.538 102.772ZM322.746 107V100H323.852L323.796 101.666C324.23 100.308 325.182 99.86 326.008 99.86C326.26 99.86 326.526 99.902 326.722 99.958V101.26C326.4 101.176 326.106 101.134 325.826 101.134C324.734 101.134 323.894 101.778 323.894 103.234V107H322.746ZM328.134 107V100H329.282V107H328.134ZM327.98 98.712V97.172H329.422V98.712H327.98ZM334.482 107.14C332.788 107.14 331.178 105.88 331.178 103.514C331.178 101.47 332.55 99.846 334.566 99.846C336.204 99.846 337.744 100.91 337.744 103.262C337.744 103.388 337.744 103.584 337.73 103.696H332.298C332.396 105.278 333.474 106.09 334.552 106.09C335.392 106.09 336.26 105.628 336.68 104.774L337.478 105.278C336.946 106.51 335.658 107.14 334.482 107.14ZM332.368 102.772H336.582C336.414 101.414 335.504 100.826 334.524 100.826C333.376 100.826 332.592 101.652 332.368 102.772ZM339.576 107V100H340.71L340.64 101.694C340.976 100.49 342.04 99.846 343.09 99.846C344.322 99.846 345.526 100.714 345.526 102.534V107H344.378V102.744C344.378 101.512 343.58 100.924 342.726 100.924C341.76 100.924 340.724 101.68 340.724 103.22V107H339.576ZM350.727 107.14C348.977 107.14 347.311 105.894 347.311 103.5C347.311 101.078 349.019 99.846 350.769 99.846C352.029 99.846 353.303 100.518 353.877 101.862L352.953 102.408C352.547 101.414 351.637 100.924 350.755 100.924C349.607 100.924 348.459 101.764 348.459 103.486C348.459 105.222 349.593 106.062 350.741 106.062C351.637 106.062 352.547 105.558 352.953 104.564L353.877 105.11C353.275 106.468 352.001 107.14 350.727 107.14ZM355.587 107V100H356.735V107H355.587ZM355.433 98.712V97.172H356.875V98.712H355.433ZM360.829 107.154C359.639 107.154 358.575 106.426 358.575 105.124C358.575 103.64 359.933 102.968 361.949 102.968C362.397 102.968 362.845 102.996 363.321 103.052V102.604C363.321 101.456 362.481 100.882 361.613 100.882C360.913 100.882 360.227 101.26 359.905 101.96L359.023 101.498C359.485 100.336 360.605 99.846 361.669 99.846C363.111 99.846 364.427 100.728 364.427 102.52V107H363.335V105.222C362.985 106.552 361.921 107.154 360.829 107.154ZM359.709 105.054C359.709 105.754 360.339 106.118 361.109 106.118C362.103 106.118 363.167 105.488 363.307 104.004C362.789 103.92 362.313 103.878 361.893 103.878C360.353 103.878 359.709 104.368 359.709 105.054ZM226.85 131.154C225.324 131.154 223.854 129.894 223.854 127.64C223.854 125.246 225.422 123.832 227.27 123.832C228.04 123.832 228.698 124.084 229.188 124.406L229.174 121.116H230.322V131H229.188L229.23 129.642C228.782 130.566 227.886 131.154 226.85 131.154ZM225.002 127.486C225.002 129.152 226.01 130.062 227.214 130.062C228.082 130.062 228.88 129.558 229.174 128.676V125.68C228.712 125.218 228.068 124.924 227.368 124.924C226.038 124.924 225.002 125.974 225.002 127.486ZM235.402 131.14C233.708 131.14 232.098 129.88 232.098 127.514C232.098 125.47 233.47 123.846 235.486 123.846C237.124 123.846 238.664 124.91 238.664 127.262C238.664 127.388 238.664 127.584 238.65 127.696H233.218C233.316 129.278 234.394 130.09 235.472 130.09C236.312 130.09 237.18 129.628 237.6 128.774L238.398 129.278C237.866 130.51 236.578 131.14 235.402 131.14ZM233.288 126.772H237.502C237.334 125.414 236.424 124.826 235.444 124.826C234.296 124.826 233.512 125.652 233.288 126.772ZM249.857 124V131H248.723L248.779 129.362C248.443 130.538 247.533 131.154 246.413 131.154C245.265 131.154 244.173 130.482 244.173 128.662V124H245.321V128.41C245.321 129.642 246.035 130.076 246.777 130.076C247.757 130.076 248.709 129.32 248.709 127.78V124H249.857ZM252.39 128.746C252.712 129.754 253.594 130.118 254.378 130.118C255.134 130.118 255.834 129.796 255.834 129.236C255.834 127.864 251.816 128.102 251.816 125.834C251.816 124.574 253.02 123.846 254.308 123.846C255.358 123.846 256.464 124.336 256.94 125.456L256.086 125.988C255.736 125.204 254.98 124.868 254.294 124.868C253.594 124.868 252.964 125.218 252.964 125.764C252.964 127.066 256.982 126.884 256.982 129.138C256.982 130.426 255.708 131.154 254.378 131.154C253.202 131.154 251.998 130.58 251.564 129.306L252.39 128.746ZM264.254 124V131H263.12L263.176 129.362C262.84 130.538 261.93 131.154 260.81 131.154C259.662 131.154 258.57 130.482 258.57 128.662V124H259.718V128.41C259.718 129.642 260.432 130.076 261.174 130.076C262.154 130.076 263.106 129.32 263.106 127.78V124H264.254ZM268.298 131.154C267.108 131.154 266.044 130.426 266.044 129.124C266.044 127.64 267.402 126.968 269.418 126.968C269.866 126.968 270.314 126.996 270.79 127.052V126.604C270.79 125.456 269.95 124.882 269.082 124.882C268.382 124.882 267.696 125.26 267.374 125.96L266.492 125.498C266.954 124.336 268.074 123.846 269.138 123.846C270.58 123.846 271.896 124.728 271.896 126.52V131H270.804V129.222C270.454 130.552 269.39 131.154 268.298 131.154ZM267.178 129.054C267.178 129.754 267.808 130.118 268.578 130.118C269.572 130.118 270.636 129.488 270.776 128.004C270.258 127.92 269.782 127.878 269.362 127.878C267.822 127.878 267.178 128.368 267.178 129.054ZM273.814 131V124H274.92L274.864 125.666C275.298 124.308 276.25 123.86 277.076 123.86C277.328 123.86 277.594 123.902 277.79 123.958V125.26C277.468 125.176 277.174 125.134 276.894 125.134C275.802 125.134 274.962 125.778 274.962 127.234V131H273.814ZM279.202 131V124H280.35V131H279.202ZM279.048 122.712V121.172H280.49V122.712H279.048ZM285.747 131.154C283.801 131.154 282.247 129.768 282.247 127.5C282.247 125.232 283.801 123.846 285.747 123.846C287.665 123.846 289.219 125.232 289.219 127.5C289.219 129.768 287.665 131.154 285.747 131.154ZM283.395 127.5C283.395 129.138 284.431 130.076 285.747 130.076C287.021 130.076 288.071 129.138 288.071 127.5C288.071 125.862 287.021 124.924 285.747 124.924C284.431 124.924 283.395 125.862 283.395 127.5ZM291.138 129.628H292.454V131.14H291.138V129.628Z" fill="#202020"/>
</g>
<path d="M12 99C12 90.1634 19.1634 83 28 83H139C147.837 83 155 90.1634 155 99C155 107.837 147.837 115 139 115H28C19.1634 115 12 107.837 12 99Z" fill="#FCFCFC"/>
<path d="M24.158 104.154C22.632 104.154 21.05 103.3 20.686 101.494L21.722 101.116C22.002 102.488 23.108 103.09 24.158 103.09C25.222 103.09 26.244 102.488 26.244 101.536C26.244 99.38 21.036 99.758 21.036 96.706C21.036 95.11 22.52 94.256 24.06 94.256C25.46 94.256 26.818 94.97 27.196 96.468L26.16 96.86C25.894 95.796 25.012 95.306 24.088 95.306C23.136 95.306 22.226 95.782 22.226 96.664C22.226 98.722 27.434 98.512 27.434 101.452C27.434 103.188 25.824 104.154 24.158 104.154ZM29.1711 104V97H30.3191V104H29.1711ZM29.0171 95.712V94.172H30.4591V95.712H29.0171ZM32.0613 104V102.586L36.1633 98.218V98.008H32.2573V97H37.3953V98.414L33.3073 102.782V102.992H37.4653V104H32.0613ZM41.9725 104.14C40.2785 104.14 38.6685 102.88 38.6685 100.514C38.6685 98.47 40.0405 96.846 42.0565 96.846C43.6945 96.846 45.2345 97.91 45.2345 100.262C45.2345 100.388 45.2345 100.584 45.2205 100.696H39.7885C39.8865 102.278 40.9645 103.09 42.0425 103.09C42.8825 103.09 43.7505 102.628 44.1705 101.774L44.9685 102.278C44.4365 103.51 43.1485 104.14 41.9725 104.14ZM39.8585 99.772H44.0725C43.9045 98.414 42.9945 97.826 42.0145 97.826C40.8665 97.826 40.0825 98.652 39.8585 99.772ZM53.6133 94.396H54.7893L51.9753 105.596H50.7993L53.6133 94.396ZM60.478 104V97H61.584L61.528 98.666C61.962 97.308 62.914 96.86 63.74 96.86C63.992 96.86 64.258 96.902 64.454 96.958V98.26C64.132 98.176 63.838 98.134 63.558 98.134C62.466 98.134 61.626 98.778 61.626 100.234V104H60.478ZM68.6326 104.14C66.9386 104.14 65.3286 102.88 65.3286 100.514C65.3286 98.47 66.7006 96.846 68.7166 96.846C70.3546 96.846 71.8946 97.91 71.8946 100.262C71.8946 100.388 71.8946 100.584 71.8806 100.696H66.4486C66.5466 102.278 67.6246 103.09 68.7026 103.09C69.5426 103.09 70.4106 102.628 70.8306 101.774L71.6286 102.278C71.0966 103.51 69.8086 104.14 68.6326 104.14ZM66.5186 99.772H70.7326C70.5646 98.414 69.6546 97.826 68.6746 97.826C67.5266 97.826 66.7426 98.652 66.5186 99.772ZM76.5463 106.87C75.4123 106.87 74.3623 106.352 73.8583 105.414L74.7403 104.826C75.0903 105.428 75.7763 105.834 76.5883 105.834C77.5403 105.834 78.5763 105.26 78.5763 103.958V102.488C78.0583 103.552 77.1623 104.028 76.2383 104.028C74.8103 104.028 73.3403 102.824 73.3403 100.5C73.3403 97.994 75.0483 96.846 76.9943 96.846C77.8063 96.846 78.5903 97.028 79.6823 97.546V103.958C79.6823 105.89 78.1003 106.87 76.5463 106.87ZM74.5023 100.472C74.5023 102.18 75.5803 102.978 76.5883 102.978C77.4563 102.978 78.3103 102.446 78.5343 101.438V98.316C78.0583 98.05 77.5123 97.938 77.0083 97.938C75.7203 97.938 74.5023 98.638 74.5023 100.472ZM87.2848 97V104H86.1508L86.2068 102.362C85.8708 103.538 84.9608 104.154 83.8408 104.154C82.6928 104.154 81.6008 103.482 81.6008 101.662V97H82.7488V101.41C82.7488 102.642 83.4628 103.076 84.2048 103.076C85.1848 103.076 86.1368 102.32 86.1368 100.78V97H87.2848ZM89.2573 104V94.116H90.4053V104H89.2573ZM94.3918 104.154C93.2018 104.154 92.1378 103.426 92.1378 102.124C92.1378 100.64 93.4958 99.968 95.5118 99.968C95.9598 99.968 96.4078 99.996 96.8838 100.052V99.604C96.8838 98.456 96.0438 97.882 95.1758 97.882C94.4758 97.882 93.7898 98.26 93.4678 98.96L92.5858 98.498C93.0478 97.336 94.1678 96.846 95.2318 96.846C96.6738 96.846 97.9898 97.728 97.9898 99.52V104H96.8978V102.222C96.5478 103.552 95.4838 104.154 94.3918 104.154ZM93.2718 102.054C93.2718 102.754 93.9018 103.118 94.6718 103.118C95.6658 103.118 96.7298 102.488 96.8698 101.004C96.3518 100.92 95.8758 100.878 95.4558 100.878C93.9158 100.878 93.2718 101.368 93.2718 102.054ZM99.9077 104V97H101.014L100.958 98.666C101.392 97.308 102.344 96.86 103.17 96.86C103.422 96.86 103.688 96.902 103.884 96.958V98.26C103.562 98.176 103.268 98.134 102.988 98.134C101.896 98.134 101.056 98.778 101.056 100.234V104H99.9077ZM111.774 94.396H112.95L110.136 105.596H108.96L111.774 94.396ZM116.991 104V95.74H116.767L114.821 97.028L114.233 96.188L116.879 94.396H118.167V104H116.991ZM120.592 102.334C123.238 100.01 125.198 98.26 125.198 96.706C125.198 95.726 124.386 95.306 123.56 95.306C122.622 95.306 121.852 95.824 121.586 96.86L120.564 96.44C120.942 94.984 122.188 94.242 123.602 94.242C124.96 94.242 126.402 94.942 126.402 96.664C126.402 98.526 124.75 100.178 121.838 102.712V102.936H126.682V104H120.592V102.334ZM133.198 99.338V102.418C133.73 102.852 134.332 103.062 134.934 103.062C136.236 103.062 137.314 102.054 137.314 100.43C137.314 98.848 136.32 97.938 135.172 97.938C134.29 97.938 133.478 98.47 133.198 99.338ZM132.05 106.716V97H133.184L133.142 98.358C133.646 97.364 134.57 96.846 135.564 96.846C137.09 96.846 138.462 98.078 138.462 100.346C138.462 102.712 136.866 104.154 135.046 104.154C134.346 104.154 133.73 103.958 133.184 103.65V106.716H132.05ZM144.234 97H145.522L143.674 100.5L145.774 104H144.5L142.694 100.948H142.456L140.678 104H139.39L141.49 100.458L139.656 97H140.93L142.456 100.038H142.694L144.234 97Z" fill="black"/>
<path d="M12 55C12 46.1634 19.1634 39 28 39H122C130.837 39 138 46.1634 138 55C138 63.8366 130.837 71 122 71H28C19.1634 71 12 63.8366 12 55Z" fill="#FCFCFC"/>
<path d="M24.158 60.154C22.632 60.154 21.05 59.3 20.686 57.494L21.722 57.116C22.002 58.488 23.108 59.09 24.158 59.09C25.222 59.09 26.244 58.488 26.244 57.536C26.244 55.38 21.036 55.758 21.036 52.706C21.036 51.11 22.52 50.256 24.06 50.256C25.46 50.256 26.818 50.97 27.196 52.468L26.16 52.86C25.894 51.796 25.012 51.306 24.088 51.306C23.136 51.306 22.226 51.782 22.226 52.664C22.226 54.722 27.434 54.512 27.434 57.452C27.434 59.188 25.824 60.154 24.158 60.154ZM29.1711 60V53H30.3191V60H29.1711ZM29.0171 51.712V50.172H30.4591V51.712H29.0171ZM32.0613 60V58.586L36.1633 54.218V54.008H32.2573V53H37.3953V54.414L33.3073 58.782V58.992H37.4653V60H32.0613ZM41.9725 60.14C40.2785 60.14 38.6685 58.88 38.6685 56.514C38.6685 54.47 40.0405 52.846 42.0565 52.846C43.6945 52.846 45.2345 53.91 45.2345 56.262C45.2345 56.388 45.2345 56.584 45.2205 56.696H39.7885C39.8865 58.278 40.9645 59.09 42.0425 59.09C42.8825 59.09 43.7505 58.628 44.1705 57.774L44.9685 58.278C44.4365 59.51 43.1485 60.14 41.9725 60.14ZM39.8585 55.772H44.0725C43.9045 54.414 42.9945 53.826 42.0145 53.826C40.8665 53.826 40.0825 54.652 39.8585 55.772ZM53.6133 50.396H54.7893L51.9753 61.596H50.7993L53.6133 50.396ZM63.082 60.154C62.2 60.154 61.318 59.944 60.478 59.51V50.116H61.612L61.57 54.358C62.074 53.35 62.984 52.846 63.936 52.846C65.42 52.846 66.89 54.008 66.89 56.332C66.89 58.852 65.154 60.154 63.082 60.154ZM61.626 58.726C62.088 58.936 62.578 59.062 63.124 59.062C64.482 59.062 65.728 58.25 65.728 56.402C65.728 54.736 64.664 53.938 63.586 53.938C62.718 53.938 61.906 54.456 61.626 55.366V58.726ZM71.8228 60.154C69.8768 60.154 68.3228 58.768 68.3228 56.5C68.3228 54.232 69.8768 52.846 71.8228 52.846C73.7408 52.846 75.2948 54.232 75.2948 56.5C75.2948 58.768 73.7408 60.154 71.8228 60.154ZM69.4708 56.5C69.4708 58.138 70.5068 59.076 71.8228 59.076C73.0968 59.076 74.1468 58.138 74.1468 56.5C74.1468 54.862 73.0968 53.924 71.8228 53.924C70.5068 53.924 69.4708 54.862 69.4708 56.5ZM77.1304 60V50.116H78.2784V60H77.1304ZM83.0629 60.154C81.5369 60.154 80.0669 58.894 80.0669 56.64C80.0669 54.246 81.6349 52.832 83.4829 52.832C84.2529 52.832 84.9109 53.084 85.4009 53.406L85.3869 50.116H86.5349V60H85.4009L85.4429 58.642C84.9949 59.566 84.0989 60.154 83.0629 60.154ZM81.2149 56.486C81.2149 58.152 82.2229 59.062 83.4269 59.062C84.2949 59.062 85.0929 58.558 85.3869 57.676V54.68C84.9249 54.218 84.2809 53.924 83.5809 53.924C82.2509 53.924 81.2149 54.974 81.2149 56.486ZM94.9844 50.396H96.1604L93.3464 61.596H92.1704L94.9844 50.396ZM100.202 60V51.74H99.9777L98.0317 53.028L97.4437 52.188L100.09 50.396H101.378V60H100.202ZM103.803 58.334C106.449 56.01 108.409 54.26 108.409 52.706C108.409 51.726 107.597 51.306 106.771 51.306C105.833 51.306 105.063 51.824 104.797 52.86L103.775 52.44C104.153 50.984 105.399 50.242 106.813 50.242C108.171 50.242 109.613 50.942 109.613 52.664C109.613 54.526 107.961 56.178 105.049 58.712V58.936H109.893V60H103.803V58.334ZM116.409 55.338V58.418C116.941 58.852 117.543 59.062 118.145 59.062C119.447 59.062 120.525 58.054 120.525 56.43C120.525 54.848 119.531 53.938 118.383 53.938C117.501 53.938 116.689 54.47 116.409 55.338ZM115.261 62.716V53H116.395L116.353 54.358C116.857 53.364 117.781 52.846 118.775 52.846C120.301 52.846 121.673 54.078 121.673 56.346C121.673 58.712 120.077 60.154 118.257 60.154C117.557 60.154 116.941 59.958 116.395 59.65V62.716H115.261ZM127.445 53H128.733L126.885 56.5L128.985 60H127.711L125.905 56.948H125.667L123.889 60H122.601L124.701 56.458L122.867 53H124.141L125.667 56.038H125.905L127.445 53Z" fill="black"/>
<path d="M206.333 99C206.333 100.473 207.527 101.667 209 101.667C210.473 101.667 211.667 100.473 211.667 99C211.667 97.5272 210.473 96.3333 209 96.3333C207.527 96.3333 206.333 97.5272 206.333 99ZM155.5 99.5H209V98.5H155.5V99.5Z" fill="#DEDEDE"/>
<path d="M206.333 55C206.333 56.4728 207.527 57.6667 209 57.6667C210.473 57.6667 211.667 56.4728 211.667 55C211.667 53.5272 210.473 52.3333 209 52.3333C207.527 52.3333 206.333 53.5272 206.333 55ZM138.5 55.5H209V54.5H138.5V55.5Z" fill="#DEDEDE"/>
<rect x="221" y="-3" width="32" height="32" rx="8" fill="#E62020"/>
<path d="M234.049 19.8459L246.384 7.6295L244.967 6.11475L234.069 16.9147L229.052 11.7213L227.616 13.177L234.049 19.8459Z" fill="#FCFCFC"/>
<path d="M265.48 19L269.464 8.024H271.592L275.576 19H274.168L272.92 15.56H268.12L266.888 19H265.48ZM268.552 14.344H272.488L270.632 9.208H270.392L268.552 14.344ZM280.63 19.16C278.63 19.16 276.726 17.736 276.726 15C276.726 12.232 278.678 10.824 280.678 10.824C282.118 10.824 283.574 11.592 284.23 13.128L283.174 13.752C282.71 12.616 281.67 12.056 280.662 12.056C279.35 12.056 278.038 13.016 278.038 14.984C278.038 16.968 279.334 17.928 280.646 17.928C281.67 17.928 282.71 17.352 283.174 16.216L284.23 16.84C283.542 18.392 282.086 19.16 280.63 19.16ZM289.44 19.16C287.504 19.16 285.664 17.72 285.664 15.016C285.664 12.68 287.232 10.824 289.536 10.824C291.408 10.824 293.168 12.04 293.168 14.728C293.168 14.872 293.168 15.096 293.152 15.224H286.944C287.056 17.032 288.288 17.96 289.52 17.96C290.48 17.96 291.472 17.432 291.952 16.456L292.864 17.032C292.256 18.44 290.784 19.16 289.44 19.16ZM287.024 14.168H291.84C291.648 12.616 290.608 11.944 289.488 11.944C288.176 11.944 287.28 12.888 287.024 14.168ZM296.573 13.672V17.192C297.181 17.688 297.869 17.928 298.557 17.928C300.045 17.928 301.277 16.776 301.277 14.92C301.277 13.112 300.141 12.072 298.829 12.072C297.821 12.072 296.893 12.68 296.573 13.672ZM295.261 22.104V11H296.557L296.509 12.552C297.085 11.416 298.141 10.824 299.277 10.824C301.021 10.824 302.589 12.232 302.589 14.824C302.589 17.528 300.765 19.176 298.685 19.176C297.885 19.176 297.181 18.952 296.557 18.6V22.104H295.261ZM307.851 19.176C306.427 19.176 305.483 18.248 305.483 16.488V12.12H304.139V11H305.483V9.128H306.795L306.683 11H308.603V12.12H306.795V16.408C306.795 17.496 307.211 18.024 308.027 18.024C308.315 18.024 308.683 17.96 309.083 17.8L309.387 18.872C308.843 19.08 308.315 19.176 307.851 19.176ZM314.664 19.176C312.44 19.176 310.664 17.592 310.664 15C310.664 12.408 312.44 10.824 314.664 10.824C316.856 10.824 318.632 12.408 318.632 15C318.632 17.592 316.856 19.176 314.664 19.176ZM311.976 15C311.976 16.872 313.16 17.944 314.664 17.944C316.12 17.944 317.32 16.872 317.32 15C317.32 13.128 316.12 12.056 314.664 12.056C313.16 12.056 311.976 13.128 311.976 15ZM324.948 19V7.704H326.26V19H324.948ZM332.304 19.176C330.08 19.176 328.304 17.592 328.304 15C328.304 12.408 330.08 10.824 332.304 10.824C334.496 10.824 336.272 12.408 336.272 15C336.272 17.592 334.496 19.176 332.304 19.176ZM329.616 15C329.616 16.872 330.8 17.944 332.304 17.944C333.76 17.944 334.96 16.872 334.96 15C334.96 13.128 333.76 12.056 332.304 12.056C330.8 12.056 329.616 13.128 329.616 15ZM339.01 16.424C339.378 17.576 340.386 17.992 341.282 17.992C342.146 17.992 342.946 17.624 342.946 16.984C342.946 15.416 338.354 15.688 338.354 13.096C338.354 11.656 339.73 10.824 341.202 10.824C342.402 10.824 343.666 11.384 344.21 12.664L343.234 13.272C342.834 12.376 341.97 11.992 341.186 11.992C340.386 11.992 339.666 12.392 339.666 13.016C339.666 14.504 344.258 14.296 344.258 16.872C344.258 18.344 342.802 19.176 341.282 19.176C339.938 19.176 338.562 18.52 338.066 17.064L339.01 16.424ZM350.308 19V7.704H351.62V19H350.308ZM357.44 19.16C355.504 19.16 353.664 17.72 353.664 15.016C353.664 12.68 355.232 10.824 357.536 10.824C359.408 10.824 361.168 12.04 361.168 14.728C361.168 14.872 361.168 15.096 361.152 15.224H354.944C355.056 17.032 356.288 17.96 357.52 17.96C358.48 17.96 359.472 17.432 359.952 16.456L360.864 17.032C360.256 18.44 358.784 19.16 357.44 19.16ZM355.024 14.168H359.84C359.648 12.616 358.608 11.944 357.488 11.944C356.176 11.944 355.28 12.888 355.024 14.168ZM366.484 22.28C365.188 22.28 363.988 21.688 363.412 20.616L364.42 19.944C364.82 20.632 365.604 21.096 366.532 21.096C367.62 21.096 368.804 20.44 368.804 18.952V17.272C368.212 18.488 367.188 19.032 366.132 19.032C364.5 19.032 362.82 17.656 362.82 15C362.82 12.136 364.772 10.824 366.996 10.824C367.924 10.824 368.82 11.032 370.068 11.624V18.952C370.068 21.16 368.26 22.28 366.484 22.28ZM364.148 14.968C364.148 16.92 365.38 17.832 366.532 17.832C367.524 17.832 368.5 17.224 368.756 16.072V12.504C368.212 12.2 367.588 12.072 367.012 12.072C365.54 12.072 364.148 12.872 364.148 14.968ZM374.644 19.176C373.284 19.176 372.068 18.344 372.068 16.856C372.068 15.16 373.62 14.392 375.924 14.392C376.436 14.392 376.948 14.424 377.492 14.488V13.976C377.492 12.664 376.532 12.008 375.54 12.008C374.74 12.008 373.956 12.44 373.588 13.24L372.58 12.712C373.108 11.384 374.388 10.824 375.604 10.824C377.252 10.824 378.756 11.832 378.756 13.88V19H377.508V16.968C377.108 18.488 375.892 19.176 374.644 19.176ZM373.364 16.776C373.364 17.576 374.084 17.992 374.964 17.992C376.1 17.992 377.316 17.272 377.476 15.576C376.884 15.48 376.34 15.432 375.86 15.432C374.1 15.432 373.364 15.992 373.364 16.776ZM380.948 19V7.704H382.26V19H380.948ZM388.08 19.16C386.144 19.16 384.304 17.72 384.304 15.016C384.304 12.68 385.872 10.824 388.176 10.824C390.048 10.824 391.808 12.04 391.808 14.728C391.808 14.872 391.808 15.096 391.792 15.224H385.584C385.696 17.032 386.928 17.96 388.16 17.96C389.12 17.96 390.112 17.432 390.592 16.456L391.504 17.032C390.896 18.44 389.424 19.16 388.08 19.16ZM385.664 14.168H390.48C390.288 12.616 389.248 11.944 388.128 11.944C386.816 11.944 385.92 12.888 385.664 14.168ZM394.541 16.424C394.909 17.576 395.917 17.992 396.813 17.992C397.677 17.992 398.477 17.624 398.477 16.984C398.477 15.416 393.885 15.688 393.885 13.096C393.885 11.656 395.261 10.824 396.733 10.824C397.933 10.824 399.197 11.384 399.741 12.664L398.765 13.272C398.365 12.376 397.501 11.992 396.717 11.992C395.917 11.992 395.197 12.392 395.197 13.016C395.197 14.504 399.789 14.296 399.789 16.872C399.789 18.344 398.333 19.176 396.813 19.176C395.469 19.176 394.093 18.52 393.597 17.064L394.541 16.424Z" fill="#202020"/>
</g>
<defs>
<clipPath id="clip0_1630_141189">
<rect width="343" height="160" fill="white"/>
</clipPath>
<clipPath id="clip1_1630_141189">
<rect width="120" height="160" fill="white" transform="translate(223)"/>
</clipPath>
</defs>
</svg>
