<svg width="343" height="160" viewBox="0 0 343 160" fill="none" xmlns="http://www.w3.org/2000/svg">
<rect width="343" height="160" fill="#F7F7F7"/>
<rect x="223" y="52" width="120" height="55" fill="white"/>
<path d="M259.876 89.8557C260.84 89.8557 261.587 89.1082 261.587 88.1836C261.587 87.2394 260.84 86.4918 259.876 86.4918C258.971 86.4918 258.223 87.2394 258.223 88.1836C258.223 89.1082 258.971 89.8557 259.876 89.8557ZM242.23 71.659H245.141L247.679 82.9705C247.896 83.8951 248.643 84.4853 249.587 84.3672L261.784 82.8328C262.768 82.7148 263.437 81.9672 263.437 80.9836V72.8394H247.01L246.42 70.1639H242.23V71.659ZM247.345 74.3344H261.863V80.6098C261.863 81.023 261.568 81.3377 261.155 81.3967L249.764 82.8525C249.45 82.8918 249.214 82.6754 249.155 82.3803L247.345 74.3344ZM248.919 88.1836C248.919 89.1082 249.666 89.8557 250.571 89.8557C251.535 89.8557 252.282 89.1082 252.282 88.1836C252.282 87.2394 251.535 86.4918 250.571 86.4918C249.666 86.4918 248.919 87.2394 248.919 88.1836Z" fill="#3B8700"/>
<rect x="269" y="68" width="31" height="24" rx="12" fill="#E62020"/>
<path d="M282.532 75.768V80.88H283.732V81.972H282.532V84H281.332V81.972H277.636V80.604L280.648 75.768H282.532ZM278.812 80.88H281.332V78.768L281.38 76.86H281.224L278.812 80.736V80.88ZM287.652 84.12C286.416 84.12 285.24 83.412 284.892 81.888L285.984 81.492C286.212 82.524 286.884 83.016 287.616 83.016C288.468 83.016 289.188 82.392 289.2 81.324C289.2 80.256 288.456 79.692 287.544 79.692C287.1 79.692 286.656 79.824 286.296 80.064H285.348L285.768 75.768H289.968V76.86H286.776L286.596 78.876C286.98 78.72 287.376 78.66 287.724 78.66C289.248 78.66 290.376 79.764 290.376 81.348C290.376 82.932 289.2 84.12 287.652 84.12Z" fill="#FCFCFC"/>
<path d="M12 81C12 72.1634 19.1634 65 28 65H165C173.837 65 181 72.1634 181 81C181 89.8366 173.837 97 165 97H28C19.1634 97 12 89.8366 12 81Z" fill="#FCFCFC"/>
<path d="M24.158 86.154C22.632 86.154 21.05 85.3 20.686 83.494L21.722 83.116C22.002 84.488 23.108 85.09 24.158 85.09C25.222 85.09 26.244 84.488 26.244 83.536C26.244 81.38 21.036 81.758 21.036 78.706C21.036 77.11 22.52 76.256 24.06 76.256C25.46 76.256 26.818 76.97 27.196 78.468L26.16 78.86C25.894 77.796 25.012 77.306 24.088 77.306C23.136 77.306 22.226 77.782 22.226 78.664C22.226 80.722 27.434 80.512 27.434 83.452C27.434 85.188 25.824 86.154 24.158 86.154ZM29.1711 86V79H30.3191V86H29.1711ZM29.0171 77.712V76.172H30.4591V77.712H29.0171ZM32.0613 86V84.586L36.1633 80.218V80.008H32.2573V79H37.3953V80.414L33.3073 84.782V84.992H37.4653V86H32.0613ZM41.9725 86.14C40.2785 86.14 38.6685 84.88 38.6685 82.514C38.6685 80.47 40.0405 78.846 42.0565 78.846C43.6945 78.846 45.2345 79.91 45.2345 82.262C45.2345 82.388 45.2345 82.584 45.2205 82.696H39.7885C39.8865 84.278 40.9645 85.09 42.0425 85.09C42.8825 85.09 43.7505 84.628 44.1705 83.774L44.9685 84.278C44.4365 85.51 43.1485 86.14 41.9725 86.14ZM39.8585 81.772H44.0725C43.9045 80.414 42.9945 79.826 42.0145 79.826C40.8665 79.826 40.0825 80.652 39.8585 81.772ZM53.6133 76.396H54.7893L51.9753 87.596H50.7993L53.6133 76.396ZM60.478 86V79H61.584L61.528 80.666C61.962 79.308 62.914 78.86 63.74 78.86C63.992 78.86 64.258 78.902 64.454 78.958V80.26C64.132 80.176 63.838 80.134 63.558 80.134C62.466 80.134 61.626 80.778 61.626 82.234V86H60.478ZM68.6326 86.14C66.9386 86.14 65.3286 84.88 65.3286 82.514C65.3286 80.47 66.7006 78.846 68.7166 78.846C70.3546 78.846 71.8946 79.91 71.8946 82.262C71.8946 82.388 71.8946 82.584 71.8806 82.696H66.4486C66.5466 84.278 67.6246 85.09 68.7026 85.09C69.5426 85.09 70.4106 84.628 70.8306 83.774L71.6286 84.278C71.0966 85.51 69.8086 86.14 68.6326 86.14ZM66.5186 81.772H70.7326C70.5646 80.414 69.6546 79.826 68.6746 79.826C67.5266 79.826 66.7426 80.652 66.5186 81.772ZM76.5463 88.87C75.4123 88.87 74.3623 88.352 73.8583 87.414L74.7403 86.826C75.0903 87.428 75.7763 87.834 76.5883 87.834C77.5403 87.834 78.5763 87.26 78.5763 85.958V84.488C78.0583 85.552 77.1623 86.028 76.2383 86.028C74.8103 86.028 73.3403 84.824 73.3403 82.5C73.3403 79.994 75.0483 78.846 76.9943 78.846C77.8063 78.846 78.5903 79.028 79.6823 79.546V85.958C79.6823 87.89 78.1003 88.87 76.5463 88.87ZM74.5023 82.472C74.5023 84.18 75.5803 84.978 76.5883 84.978C77.4563 84.978 78.3103 84.446 78.5343 83.438V80.316C78.0583 80.05 77.5123 79.938 77.0083 79.938C75.7203 79.938 74.5023 80.638 74.5023 82.472ZM87.2848 79V86H86.1508L86.2068 84.362C85.8708 85.538 84.9608 86.154 83.8408 86.154C82.6928 86.154 81.6008 85.482 81.6008 83.662V79H82.7488V83.41C82.7488 84.642 83.4628 85.076 84.2048 85.076C85.1848 85.076 86.1368 84.32 86.1368 82.78V79H87.2848ZM89.2573 86V76.116H90.4053V86H89.2573ZM94.3918 86.154C93.2018 86.154 92.1378 85.426 92.1378 84.124C92.1378 82.64 93.4958 81.968 95.5118 81.968C95.9598 81.968 96.4078 81.996 96.8838 82.052V81.604C96.8838 80.456 96.0438 79.882 95.1758 79.882C94.4758 79.882 93.7898 80.26 93.4678 80.96L92.5858 80.498C93.0478 79.336 94.1678 78.846 95.2318 78.846C96.6738 78.846 97.9898 79.728 97.9898 81.52V86H96.8978V84.222C96.5478 85.552 95.4838 86.154 94.3918 86.154ZM93.2718 84.054C93.2718 84.754 93.9018 85.118 94.6718 85.118C95.6658 85.118 96.7298 84.488 96.8698 83.004C96.3518 82.92 95.8758 82.878 95.4558 82.878C93.9158 82.878 93.2718 83.368 93.2718 84.054ZM99.9077 86V79H101.014L100.958 80.666C101.392 79.308 102.344 78.86 103.17 78.86C103.422 78.86 103.688 78.902 103.884 78.958V80.26C103.562 80.176 103.268 80.134 102.988 80.134C101.896 80.134 101.056 80.778 101.056 82.234V86H99.9077ZM111.774 76.396H112.95L110.136 87.596H108.96L111.774 76.396ZM116.991 86V77.74H116.767L114.821 79.028L114.233 78.188L116.879 76.396H118.167V86H116.991ZM120.592 84.334C123.238 82.01 125.198 80.26 125.198 78.706C125.198 77.726 124.386 77.306 123.56 77.306C122.622 77.306 121.852 77.824 121.586 78.86L120.564 78.44C120.942 76.984 122.188 76.242 123.602 76.242C124.96 76.242 126.402 76.942 126.402 78.664C126.402 80.526 124.75 82.178 121.838 84.712V84.936H126.682V86H120.592V84.334ZM133.198 81.338V84.418C133.73 84.852 134.332 85.062 134.934 85.062C136.236 85.062 137.314 84.054 137.314 82.43C137.314 80.848 136.32 79.938 135.172 79.938C134.29 79.938 133.478 80.47 133.198 81.338ZM132.05 88.716V79H133.184L133.142 80.358C133.646 79.364 134.57 78.846 135.564 78.846C137.09 78.846 138.462 80.078 138.462 82.346C138.462 84.712 136.866 86.154 135.046 86.154C134.346 86.154 133.73 85.958 133.184 85.65V88.716H132.05ZM144.234 79H145.522L143.674 82.5L145.774 86H144.5L142.694 82.948H142.456L140.678 86H139.39L141.49 82.458L139.656 79H140.93L142.456 82.038H142.694L144.234 79Z" fill="black"/>
<circle cx="165" cy="81" r="8" fill="#DEDEDE"/>
<path d="M266.833 79.5C266.833 80.9728 268.027 82.1667 269.5 82.1667C270.973 82.1667 272.167 80.9728 272.167 79.5C272.167 78.0272 270.973 76.8333 269.5 76.8333C268.027 76.8333 266.833 78.0272 266.833 79.5ZM163 80H269.5V79H163V80Z" fill="#DEDEDE"/>
</svg>
