<svg width="57" height="57" viewBox="0 0 57 57" fill="none" xmlns="http://www.w3.org/2000/svg">
<rect x="33.0172" y="0.716553" width="23" height="23" rx="7.5" fill="#E62020"/>
<rect x="33.0172" y="0.716553" width="23" height="23" rx="7.5" stroke="#E62020"/>
<path d="M42.55 16.7805L50.7729 8.63622L49.8287 7.62639L42.5631 14.8264L39.2189 11.3641L38.2615 12.3346L42.55 16.7805Z" fill="white"/>
<rect x="33.0172" y="32.7166" width="23" height="23" rx="11.5" fill="#FCFCFC"/>
<rect x="33.0172" y="32.7166" width="23" height="23" rx="11.5" stroke="#766F6F"/>
<rect x="1.01721" y="32.7166" width="23" height="23" rx="11.5" fill="white"/>
<rect x="1.01721" y="32.7166" width="23" height="23" rx="11.5" stroke="#E62020"/>
<circle cx="12.5172" cy="44.2166" r="8" fill="#E62020"/>
<rect x="1.01721" y="0.716553" width="23" height="23" rx="7.5" fill="#FCFCFC"/>
<rect x="1.01721" y="0.716553" width="23" height="23" rx="7.5" stroke="#766F6F"/>
<path d="M10.55 16.7805L18.7729 8.63622L17.8287 7.62639L10.5631 14.8264L7.21885 11.3641L6.26147 12.3346L10.55 16.7805Z" fill="white"/>
</svg>
