<svg width="73" height="53" viewBox="0 0 73 53" fill="none" xmlns="http://www.w3.org/2000/svg">
<circle cx="26.3103" cy="26.2166" r="26" fill="#E62020"/>
<path d="M20.4352 33.4817C18.0266 33.4817 15.596 32.2885 14.8005 29.7695L17.4521 28.753C17.8941 30.123 19.2199 30.7638 20.4573 30.7638C21.7168 30.7638 22.8879 30.1672 22.8879 29.2171C22.8879 26.7423 15.3309 27.0074 15.3309 22.1241C15.3309 19.2736 17.8499 17.8153 20.4352 17.8153C22.6006 17.8153 24.8324 18.8759 25.6279 21.0855L22.9763 22.1241C22.4901 21.0414 21.54 20.5331 20.5015 20.5331C19.4187 20.5331 18.4686 21.0634 18.4686 21.9473C18.4686 24.4663 26.0035 24.3337 26.0035 28.974C26.0035 31.8687 23.2635 33.4817 20.4352 33.4817ZM33.1531 33.4817C30.9435 33.4817 29.3967 32.0454 29.3967 29.2613V24.7094H27.629V22.1683H29.3967V19.583H32.4018L32.2693 22.1683H34.5894V24.7094H32.4018V29.0182C32.4018 30.0567 32.7775 30.8301 33.7276 30.8301C34.1254 30.8301 34.6336 30.6975 35.2523 30.4324L35.8931 32.8409C34.9208 33.2607 33.9928 33.4817 33.1531 33.4817ZM41.9427 37.7684C40.3076 37.7684 38.2305 37.0834 37.3466 35.4483L39.5121 33.8353C39.9761 34.5423 40.8379 34.9843 41.8764 34.9843C43.2243 34.9843 44.9037 34.2551 44.9037 32.3769V30.6975C44.4396 32.178 43.0696 33.1061 41.5229 33.1061C39.6447 33.1061 37.7002 31.714 37.7002 28.6426V22.1683H40.7053V27.8471C40.7053 29.5043 41.6113 30.2556 42.6056 30.2556C43.6883 30.2556 44.8153 29.3276 44.8153 27.5156V22.1683H47.8204V32.1338C47.8204 35.7135 44.9037 37.7684 41.9427 37.7684Z" fill="#FCFCFC"/>
<path d="M56.2388 33.2166V17.6164H59.244V33.2166H56.2388ZM67.1956 33.4817C64.3452 33.4817 61.6715 31.4709 61.6715 27.6482C61.6715 23.9139 64.4777 21.9031 67.3282 21.9031C69.8693 21.9031 72.7419 23.5162 72.7419 27.8471C72.7419 28.1343 72.6977 28.6868 72.6977 28.7751H64.7208C65.1627 30.2114 66.3559 30.8522 67.505 30.8522C68.433 30.8522 69.3611 30.4324 69.9798 29.5927L71.9243 31.1395C70.9741 32.7304 68.9412 33.4817 67.1956 33.4817ZM64.6766 26.5434H69.6483C69.2948 24.8641 68.19 24.3779 67.2398 24.3779C66.0687 24.3779 65.0081 25.1071 64.6766 26.5434Z" fill="#202020"/>
</svg>
