<svg width="75" height="40" viewBox="0 0 75 40" fill="none" xmlns="http://www.w3.org/2000/svg">
<path d="M5.45273 1.61557H9.45221L14.7112 16.7738H11.4409L10.1372 12.9069H4.72354L3.46404 16.7738H0.19375L5.45273 1.61557ZM9.23124 10.1669L7.41932 4.73118L5.6295 10.1669H9.23124ZM16.6959 1.08525H19.701V16.7738H16.6959V1.08525ZM22.4821 5.72553H25.4872V16.7738H22.4821V5.72553ZM25.6861 0.731705V4.09038H22.2832V0.731705H25.6861ZM33.6305 17.039C32.6435 17.039 31.7228 16.8106 30.8684 16.354C30.0288 15.8826 29.3511 15.2197 28.8355 14.3653C28.3347 13.4961 28.0843 12.4797 28.0843 11.316C28.0843 10.108 28.3494 9.06211 28.8797 8.17824C29.4248 7.29438 30.1392 6.62412 31.0231 6.16746C31.907 5.69606 32.8498 5.46037 33.8515 5.46037C34.8237 5.46037 35.7518 5.6887 36.6356 6.14536C37.5195 6.60202 38.2339 7.27229 38.779 8.15615L36.5251 9.83549C36.2158 9.33463 35.8181 8.95162 35.3319 8.68646C34.8605 8.42131 34.367 8.28873 33.8515 8.28873C33.1002 8.28873 32.452 8.55389 31.907 9.0842C31.3619 9.61452 31.0894 10.3363 31.0894 11.2497C31.0894 12.163 31.3546 12.8848 31.8849 13.4151C32.4299 13.9307 33.0781 14.1885 33.8294 14.1885C34.3597 14.1885 34.8605 14.0559 35.3319 13.7908C35.8181 13.5256 36.2158 13.1426 36.5251 12.6417L38.779 14.3432C38.1603 15.227 37.3943 15.8973 36.481 16.354C35.5676 16.8106 34.6175 17.039 33.6305 17.039ZM46.3013 17.039C45.1081 17.039 44.0769 16.7738 43.2078 16.2435C42.3534 15.6984 41.6979 14.984 41.2412 14.1001C40.7993 13.2163 40.5783 12.2661 40.5783 11.2497C40.5783 10.2332 40.7993 9.28307 41.2412 8.39921C41.6979 7.51535 42.3534 6.80826 43.2078 6.27794C44.0769 5.73289 45.1081 5.46037 46.3013 5.46037C47.4798 5.46037 48.4962 5.73289 49.3506 6.27794C50.205 6.80826 50.8532 7.51535 51.2951 8.39921C51.7371 9.28307 51.958 10.2332 51.958 11.2497C51.958 12.2661 51.7371 13.2163 51.2951 14.1001C50.8532 14.984 50.205 15.6984 49.3506 16.2435C48.4962 16.7738 47.4798 17.039 46.3013 17.039ZM43.5834 11.2497C43.5834 12.0599 43.8191 12.7596 44.2905 13.3488C44.7767 13.9233 45.4396 14.2106 46.2792 14.2106C47.1042 14.2106 47.7523 13.9233 48.2237 13.3488C48.7098 12.7596 48.9529 12.0599 48.9529 11.2497C48.9529 10.4395 48.7098 9.7471 48.2237 9.17259C47.7523 8.58335 47.1042 8.28873 46.2792 8.28873C45.4396 8.28873 44.7767 8.58335 44.2905 9.17259C43.8191 9.7471 43.5834 10.4395 43.5834 11.2497ZM57.4421 16.7738V12.244C57.4421 11.1245 57.5894 10.2774 57.8841 9.70291C58.1934 9.11366 58.7606 8.81904 59.5855 8.81904C60.0422 8.81904 60.6019 8.9148 61.2648 9.1063V5.63714C61.0291 5.56349 60.7271 5.52666 60.3589 5.52666C59.6076 5.52666 58.93 5.76235 58.326 6.23375C57.722 6.69041 57.3095 7.33121 57.0886 8.15615L57.2433 5.72553H54.437V16.7738H57.4421ZM66.3541 9.96806C66.5456 9.48194 66.855 9.0842 67.2822 8.77485C67.7241 8.45077 68.2471 8.28873 68.851 8.28873C69.6465 8.28873 70.2726 8.56862 70.7292 9.1284C71.2006 9.67344 71.4363 10.3437 71.4363 11.1392C71.4363 12.023 71.1491 12.7522 70.5746 13.3267C70.0148 13.9013 69.2635 14.1885 68.3207 14.1885C67.6136 14.1885 66.9581 14.0117 66.3541 13.6582V9.96806ZM66.2657 21.0605V16.5307C67.0465 16.8696 67.8419 17.039 68.6522 17.039C69.6244 17.039 70.5525 16.8033 71.4363 16.3319C72.3202 15.8605 73.042 15.1608 73.6018 14.2327C74.1616 13.2899 74.4415 12.1704 74.4415 10.874C74.4415 9.75446 74.2426 8.78958 73.8448 7.97937C73.4471 7.15444 72.8947 6.52837 72.1876 6.10117C71.4952 5.67397 70.7071 5.46037 69.8233 5.46037C68.9836 5.46037 68.2471 5.65187 67.6136 6.03488C66.9802 6.41789 66.5014 6.92611 66.1773 7.55954L66.2436 5.72553H63.349V21.0605H66.2657ZM19.1944 39.039C17.9128 39.039 16.749 38.7222 15.7031 38.0888C14.6572 37.4554 13.9428 36.5347 13.5597 35.3267L16.2113 34.3103C16.4176 34.9585 16.8006 35.4593 17.3604 35.8129C17.9349 36.1517 18.5536 36.3211 19.2165 36.3211C19.8794 36.3211 20.4465 36.1811 20.9179 35.9013C21.404 35.6066 21.6471 35.231 21.6471 34.7743C21.6471 34.3029 21.4188 33.9199 20.9621 33.6253C20.5054 33.316 19.791 32.955 18.8187 32.5426C17.8465 32.1301 17.0436 31.7397 16.4102 31.3715C15.7768 31.0032 15.2317 30.5171 14.7751 29.9131C14.3184 29.3091 14.0901 28.5652 14.0901 27.6813C14.0901 26.768 14.3258 25.9873 14.7972 25.3391C15.2833 24.6909 15.9094 24.2048 16.6754 23.8807C17.4561 23.5419 18.2884 23.3725 19.1723 23.3725C20.3213 23.3725 21.3819 23.6598 22.3542 24.2343C23.3264 24.7941 24.0041 25.5969 24.3871 26.6428L21.7355 27.6813C21.4998 27.151 21.161 26.7533 20.719 26.4881C20.2771 26.223 19.7836 26.0904 19.2386 26.0904C18.6788 26.0904 18.2 26.223 17.8023 26.4881C17.4193 26.7385 17.2278 27.0774 17.2278 27.5046C17.2278 27.976 17.4635 28.3737 17.9349 28.6978C18.4063 29.0219 19.1428 29.4049 20.1445 29.8468C21.1168 30.274 21.9049 30.6644 22.5089 31.0179C23.1276 31.3715 23.6579 31.8429 24.0998 32.4321C24.5417 33.0066 24.7627 33.7063 24.7627 34.5313C24.7627 35.4593 24.4975 36.2622 23.9672 36.9398C23.4516 37.6174 22.7666 38.1404 21.9122 38.5086C21.0726 38.8622 20.1666 39.039 19.1944 39.039ZM30.6086 39.039C29.5922 39.039 28.7378 38.737 28.0454 38.133C27.3531 37.529 27.0069 36.7041 27.0069 35.6582C27.0069 34.3913 27.5151 33.4706 28.5315 32.8961C29.548 32.3069 30.8664 32.0123 32.4868 32.0123C32.9435 32.0123 33.599 32.0565 34.4534 32.1448C34.4387 31.4819 34.2177 30.9737 33.7905 30.6202C33.3633 30.2666 32.8477 30.0899 32.2438 30.0899C31.7576 30.0899 31.3157 30.2077 30.918 30.4434C30.5202 30.6791 30.2109 30.9958 29.9899 31.3936L27.6919 30.2224C28.1043 29.2649 28.7304 28.5652 29.5701 28.1233C30.4245 27.6813 31.3525 27.4604 32.3543 27.4604C33.2823 27.4604 34.1146 27.6371 34.8512 27.9907C35.6024 28.3442 36.1917 28.8819 36.6189 29.6037C37.0608 30.3108 37.2818 31.1726 37.2818 32.189V38.7738H34.5197V36.1222C34.2104 37.0945 33.7021 37.8237 32.9951 38.3098C32.288 38.7959 31.4925 39.039 30.6086 39.039ZM29.9457 35.3267C29.9457 35.695 30.1004 35.9675 30.4098 36.1443C30.7338 36.3211 31.1242 36.4095 31.5809 36.4095C32.2438 36.4095 32.833 36.2327 33.3486 35.8792C33.8789 35.5109 34.2251 34.9806 34.3871 34.2882C33.8715 34.1851 33.2749 34.1335 32.5973 34.1335C30.8296 34.1335 29.9457 34.5313 29.9457 35.3267ZM39.9361 27.7255H42.9413L42.7866 30.0678C43.037 29.2428 43.4863 28.602 44.1345 28.1454C44.7974 27.6887 45.5413 27.4604 46.3662 27.4604C47.0439 27.4604 47.6773 27.6298 48.2665 27.9686C48.8705 28.2927 49.3566 28.7935 49.7249 29.4712C50.1079 30.1488 50.2994 30.9664 50.2994 31.9239V38.7738H47.2943V32.6973C47.2943 31.9165 47.0954 31.3199 46.6977 30.9074C46.3147 30.495 45.8433 30.2887 45.2835 30.2887C44.9005 30.2887 44.5248 30.3992 44.1566 30.6202C43.803 30.8411 43.5084 31.1579 43.2727 31.5703C43.0517 31.9828 42.9413 32.4763 42.9413 33.0508V38.7738H39.9361V27.7255ZM54.1855 34.7522C54.5832 35.3415 55.0546 35.7613 55.5997 36.0117C56.1594 36.2474 56.7192 36.3653 57.279 36.3653C57.7357 36.3653 58.1187 36.3064 58.428 36.1885C58.7374 36.0559 58.892 35.8939 58.892 35.7024C58.892 35.5403 58.7595 35.4004 58.4943 35.2825C58.2291 35.15 57.7872 34.9953 57.1685 34.8185C56.2994 34.5681 55.5628 34.3177 54.9589 34.0672C54.3696 33.8021 53.8467 33.4264 53.39 32.9403C52.9481 32.4395 52.7271 31.8134 52.7271 31.0621C52.7271 30.3403 52.9333 29.7069 53.3458 29.1618C53.773 28.6168 54.3328 28.1969 55.0251 27.9023C55.7175 27.6077 56.4614 27.4604 57.2569 27.4604C58.1555 27.4604 59.0025 27.6519 59.798 28.0349C60.6082 28.4032 61.2637 28.9703 61.7646 29.7363L59.7538 31.3273C59.4297 30.9148 59.032 30.6128 58.5606 30.4213C58.1039 30.2298 57.6399 30.1341 57.1685 30.1341C56.7708 30.1341 56.432 30.2003 56.1521 30.3329C55.8722 30.4508 55.7322 30.6054 55.7322 30.7969C55.7322 30.9737 55.8722 31.1284 56.1521 31.261C56.432 31.3788 56.8739 31.5261 57.4779 31.7029C58.3617 31.9828 59.0909 32.2553 59.6654 32.5205C60.2547 32.7856 60.7702 33.1613 61.2122 33.6474C61.6688 34.1335 61.8972 34.7522 61.8972 35.5035C61.8972 36.2253 61.6836 36.8588 61.2564 37.4038C60.8439 37.9341 60.2841 38.3466 59.577 38.6412C58.8699 38.9211 58.1039 39.0611 57.279 39.0611C56.3067 39.0611 55.3713 38.8475 54.4727 38.4203C53.5741 37.9783 52.8302 37.3375 52.241 36.4979L54.1855 34.7522Z" fill="#E62020"/>
</svg>
