<svg width="58" height="58" viewBox="0 0 58 58" fill="none" xmlns="http://www.w3.org/2000/svg">
<path d="M45.4311 52.3181C47.7385 52.3181 49.528 50.5287 49.528 48.3154C49.528 46.055 47.7385 44.2656 45.4311 44.2656C43.2649 44.2656 41.4754 46.055 41.4754 48.3154C41.4754 50.5287 43.2649 52.3181 45.4311 52.3181ZM3.19043 8.75894H10.1599L16.2346 35.8363C16.7526 38.0495 18.5421 39.4623 20.8025 39.1797L49.9989 35.5066C52.3534 35.2241 53.9545 33.4346 53.9545 31.0801V11.5844H14.6335L13.2208 5.18002H3.19043V8.75894ZM15.4341 15.1633H50.1873V30.1854C50.1873 31.1743 49.4809 31.9277 48.492 32.069L21.2263 35.5537C20.4728 35.6479 19.9077 35.1299 19.7665 34.4235L15.4341 15.1633ZM19.2014 48.3154C19.2014 50.5287 20.9908 52.3181 23.157 52.3181C25.4645 52.3181 27.2539 50.5287 27.2539 48.3154C27.2539 46.055 25.4645 44.2656 23.157 44.2656C20.9908 44.2656 19.2014 46.055 19.2014 48.3154Z" fill="#E62020"/>
</svg>
