<svg width="82" height="63" viewBox="0 0 82 63" fill="none" xmlns="http://www.w3.org/2000/svg">
<path d="M0.507719 35.7576H3.44656V38.8643H0.507719V35.7576ZM11.4613 38.8643C9.1732 38.8643 6.86411 37.7308 6.10841 35.3377L8.62742 34.3721C9.04725 35.6736 10.3068 36.2823 11.4823 36.2823C12.6788 36.2823 13.7914 35.7156 13.7914 34.8129C13.7914 32.4619 6.61221 32.7138 6.61221 28.0746C6.61221 25.3666 9.00527 23.9812 11.4613 23.9812C13.5185 23.9812 15.6387 24.9888 16.3944 27.088L13.8753 28.0746C13.4135 27.046 12.5109 26.5632 11.5243 26.5632C10.4957 26.5632 9.59304 27.067 9.59304 27.9066C9.59304 30.2997 16.7512 30.1738 16.7512 34.582C16.7512 37.3319 14.1482 38.8643 11.4613 38.8643ZM25.8314 38.8643C21.5072 38.8643 18.9881 35.2328 18.9881 31.4123C18.9881 27.5918 21.5072 23.9602 25.8314 23.9602C28.3085 23.9602 30.5546 25.0728 31.8771 27.6547L29.7569 29.1871C28.9592 27.3819 27.4268 26.6681 25.9994 26.6681C23.5224 26.6681 21.969 28.7673 21.969 31.4123C21.969 34.0572 23.5014 36.1564 25.9994 36.1564C27.4268 36.1564 28.9592 35.4427 29.7569 33.6374L31.8771 35.1068C30.5546 37.6888 28.3085 38.8643 25.8314 38.8643ZM39.3204 38.8643C37.0323 38.8643 34.7232 37.7308 33.9675 35.3377L36.4866 34.3721C36.9064 35.6736 38.1659 36.2823 39.3414 36.2823C40.538 36.2823 41.6505 35.7156 41.6505 34.8129C41.6505 32.4619 34.4713 32.7138 34.4713 28.0746C34.4713 25.3666 36.8644 23.9812 39.3204 23.9812C41.3776 23.9812 43.4978 24.9888 44.2535 27.088L41.7345 28.0746C41.2727 27.046 40.37 26.5632 39.3834 26.5632C38.3548 26.5632 37.4522 27.067 37.4522 27.9066C37.4522 30.2997 44.6104 30.1738 44.6104 34.582C44.6104 37.3319 42.0074 38.8643 39.3204 38.8643ZM51.9483 38.8643C49.6602 38.8643 47.3511 37.7308 46.5954 35.3377L49.1144 34.3721C49.5342 35.6736 50.7937 36.2823 51.9693 36.2823C53.1658 36.2823 54.2784 35.7156 54.2784 34.8129C54.2784 32.4619 47.0992 32.7138 47.0992 28.0746C47.0992 25.3666 49.4922 23.9812 51.9483 23.9812C54.0055 23.9812 56.1256 24.9888 56.8813 27.088L54.3623 28.0746C53.9005 27.046 52.9979 26.5632 52.0112 26.5632C50.9827 26.5632 50.08 27.067 50.08 27.9066C50.08 30.2997 57.2382 30.1738 57.2382 34.582C57.2382 37.3319 54.6352 38.8643 51.9483 38.8643Z" fill="#202020"/>
<path d="M30.5301 12.5562H33.4689V15.6629H30.5301V12.5562ZM35.7949 12.1573L38.3559 11.0028C38.7128 12.2413 39.5314 12.8501 40.3501 12.8501C41.1478 12.8501 41.9455 12.2413 41.9455 10.9398V1.01072H44.8843V10.7719C44.8843 14.0256 42.6172 15.6629 40.3291 15.6629C38.3769 15.6629 36.4247 14.4664 35.7949 12.1573ZM52.861 15.6629C50.5729 15.6629 48.2638 14.5294 47.5081 12.1363L50.0271 11.1707C50.447 12.4722 51.7065 13.081 52.882 13.081C54.0785 13.081 55.1911 12.5142 55.1911 11.6115C55.1911 9.26047 48.0119 9.51237 48.0119 4.87319C48.0119 2.16526 50.405 0.779808 52.861 0.779808C54.9182 0.779808 57.0384 1.78741 57.7941 3.88658L55.2751 4.87319C54.8133 3.8446 53.9106 3.36179 52.924 3.36179C51.8954 3.36179 50.9928 3.86559 50.9928 4.70526C50.9928 7.09832 58.1509 6.97237 58.1509 11.3806C58.1509 14.1305 55.548 15.6629 52.861 15.6629Z" fill="#202020"/>
<path d="M23.789 58.9589H26.7278V62.0657H23.789V58.9589ZM29.0538 58.5601L31.6148 57.4055C31.9716 58.644 32.7903 59.2528 33.609 59.2528C34.4067 59.2528 35.2044 58.644 35.2044 57.3425V47.4135H38.1432V57.1746C38.1432 60.4283 35.8761 62.0657 33.588 62.0657C31.6358 62.0657 29.6836 60.8692 29.0538 58.5601ZM46.1199 62.0657C43.8318 62.0657 41.5227 60.9321 40.767 58.5391L43.286 57.5735C43.7059 58.8749 44.9654 59.4837 46.1409 59.4837C47.3374 59.4837 48.45 58.9169 48.45 58.0143C48.45 55.6632 41.2708 55.9151 41.2708 51.2759C41.2708 48.568 43.6639 47.1825 46.1199 47.1825C48.1771 47.1825 50.2973 48.1902 51.053 50.2893L48.534 51.2759C48.0721 50.2473 47.1695 49.7645 46.1829 49.7645C45.1543 49.7645 44.2516 50.2683 44.2516 51.108C44.2516 53.5011 51.4098 53.3751 51.4098 57.7834C51.4098 60.5333 48.8068 62.0657 46.1199 62.0657ZM53.6468 54.6136C53.6468 49.6386 57.0684 47.1825 60.595 47.1825C64.1636 47.1825 67.5643 49.6386 67.5643 54.6136C67.5643 59.5887 64.1426 62.0447 60.595 62.0447C57.0684 62.0447 53.6468 59.5887 53.6468 54.6136ZM56.6276 54.6136C56.6276 57.6994 58.6638 59.1688 60.595 59.1688C62.5682 59.1688 64.5834 57.6994 64.5834 54.6136C64.5834 51.5278 62.5682 50.0584 60.595 50.0584C58.6638 50.0584 56.6276 51.5278 56.6276 54.6136ZM70.4244 61.8138V47.4135H73.5102L79.1989 56.8807L79.073 55.1804V47.4135H81.9489V61.8138H78.8631L73.1743 52.3045L73.3003 54.1938V61.8138H70.4244Z" fill="#202020"/>
</svg>
