<svg width="73" height="53" viewBox="0 0 73 53" fill="none" xmlns="http://www.w3.org/2000/svg">
<circle cx="26.3103" cy="26.4331" r="26" fill="#3E28D1"/>
<path d="M20.4352 33.6983C18.0266 33.6983 15.596 32.5051 14.8005 29.986L17.4521 28.9696C17.8941 30.3396 19.2199 30.9804 20.4573 30.9804C21.7168 30.9804 22.8879 30.3838 22.8879 29.4336C22.8879 26.9588 15.3309 27.224 15.3309 22.3406C15.3309 19.4902 17.8499 18.0318 20.4352 18.0318C22.6006 18.0318 24.8324 19.0924 25.6279 21.3021L22.9763 22.3406C22.4901 21.2579 21.54 20.7497 20.5015 20.7497C19.4187 20.7497 18.4686 21.28 18.4686 22.1639C18.4686 24.6829 26.0035 24.5503 26.0035 29.1906C26.0035 32.0852 23.2635 33.6983 20.4352 33.6983ZM33.1531 33.6983C30.9435 33.6983 29.3967 32.262 29.3967 29.4778V24.9259H27.629V22.3848H29.3967V19.7995H32.4018L32.2693 22.3848H34.5894V24.9259H32.4018V29.2348C32.4018 30.2733 32.7775 31.0467 33.7276 31.0467C34.1254 31.0467 34.6336 30.9141 35.2523 30.6489L35.8931 33.0575C34.9208 33.4773 33.9928 33.6983 33.1531 33.6983ZM41.9427 37.985C40.3076 37.985 38.2305 37.3 37.3466 35.6649L39.5121 34.0518C39.9761 34.7589 40.8379 35.2008 41.8764 35.2008C43.2243 35.2008 44.9037 34.4716 44.9037 32.5934V30.9141C44.4396 32.3946 43.0696 33.3226 41.5229 33.3226C39.6447 33.3226 37.7002 31.9305 37.7002 28.8591V22.3848H40.7053V28.0636C40.7053 29.7209 41.6113 30.4722 42.6056 30.4722C43.6883 30.4722 44.8153 29.5441 44.8153 27.7322V22.3848H47.8204V32.3504C47.8204 35.93 44.9037 37.985 41.9427 37.985Z" fill="#FCFCFC"/>
<path d="M56.2388 33.4331V17.8329H59.244V33.4331H56.2388ZM67.1956 33.6983C64.3452 33.6983 61.6715 31.6875 61.6715 27.8648C61.6715 24.1305 64.4777 22.1197 67.3282 22.1197C69.8693 22.1197 72.7419 23.7327 72.7419 28.0636C72.7419 28.3509 72.6977 28.9033 72.6977 28.9917H64.7208C65.1627 30.428 66.3559 31.0688 67.505 31.0688C68.433 31.0688 69.3611 30.6489 69.9798 29.8093L71.9243 31.356C70.9741 32.947 68.9412 33.6983 67.1956 33.6983ZM64.6766 26.7599H69.6483C69.2948 25.0806 68.19 24.5945 67.2398 24.5945C66.0687 24.5945 65.0081 25.3237 64.6766 26.7599Z" fill="#202020"/>
</svg>
