<svg width="57" height="57" viewBox="0 0 57 57" fill="none" xmlns="http://www.w3.org/2000/svg">
<rect x="33.0172" y="0.933105" width="23" height="23" rx="7.5" fill="#3E28D1"/>
<rect x="33.0172" y="0.933105" width="23" height="23" rx="7.5" stroke="#3E28D1"/>
<path d="M42.55 16.9971L50.7729 8.85279L49.8287 7.84296L42.5631 15.043L39.2189 11.5807L38.2615 12.5512L42.55 16.9971Z" fill="white"/>
<rect x="33.0172" y="32.9331" width="23" height="23" rx="11.5" fill="#FCFCFC"/>
<rect x="33.0172" y="32.9331" width="23" height="23" rx="11.5" stroke="#766F6F"/>
<rect x="1.01721" y="32.9331" width="23" height="23" rx="11.5" fill="white"/>
<rect x="1.01721" y="32.9331" width="23" height="23" rx="11.5" stroke="#3E28D1"/>
<circle cx="12.5172" cy="44.4331" r="8" fill="#3E28D1"/>
<rect x="1.01721" y="0.933105" width="23" height="23" rx="7.5" fill="#FCFCFC"/>
<rect x="1.01721" y="0.933105" width="23" height="23" rx="7.5" stroke="#766F6F"/>
<path d="M10.55 16.9971L18.7729 8.85279L17.8287 7.84296L10.5631 15.043L7.21885 11.5807L6.26147 12.5512L10.55 16.9971Z" fill="white"/>
</svg>
