<svg width="47" height="38" viewBox="0 0 47 38" fill="none" xmlns="http://www.w3.org/2000/svg">
<path d="M15.3588 23.2294V17.5167H32.851C32.851 17.5672 33.0027 18.7806 33.0027 20.1961C33.0027 33.29 23.0938 36.8289 16.8755 36.8289C6.05657 36.8289 0.647126 28.0828 0.647126 18.9322C0.647126 9.63 7.01713 0.934444 17.3305 0.934444C23.3466 0.934444 28.5032 3.76556 31.6882 9.98389L26.1271 13.5733C24.206 9.12444 20.6671 7.45611 17.4316 7.45611C12.5277 7.45611 7.82602 11.1972 7.82602 18.9322C7.82602 27.1222 12.7805 30.3578 17.4316 30.3578C21.6782 30.3578 25.7732 27.6278 25.7732 23.2294H15.3588Z" fill="#202020"/>
<circle cx="41.3448" cy="33" r="5" fill="#E62020"/>
</svg>