<svg width="57" height="57" viewBox="0 0 57 57" fill="none" xmlns="http://www.w3.org/2000/svg">
<rect x="33.0172" y="1.14966" width="23" height="23" rx="7.5" fill="#EC3A0E"/>
<rect x="33.0172" y="1.14966" width="23" height="23" rx="7.5" stroke="#EC3A0E"/>
<path d="M42.55 17.2136L50.7729 9.06935L49.8287 8.05951L42.5631 15.2595L39.2189 11.7972L38.2615 12.7677L42.55 17.2136Z" fill="white"/>
<rect x="33.0172" y="33.1497" width="23" height="23" rx="11.5" fill="#FCFCFC"/>
<rect x="33.0172" y="33.1497" width="23" height="23" rx="11.5" stroke="#766F6F"/>
<rect x="1.01721" y="33.1497" width="23" height="23" rx="11.5" fill="white"/>
<rect x="1.01721" y="33.1497" width="23" height="23" rx="11.5" stroke="#EC3A0E"/>
<circle cx="12.5172" cy="44.6497" r="8" fill="#EC3A0E"/>
<rect x="1.01721" y="1.14966" width="23" height="23" rx="7.5" fill="#FCFCFC"/>
<rect x="1.01721" y="1.14966" width="23" height="23" rx="7.5" stroke="#766F6F"/>
<path d="M10.55 17.2136L18.7729 9.06935L17.8287 8.05951L10.5631 15.2595L7.21885 11.7972L6.26147 12.7677L10.55 17.2136Z" fill="white"/>
</svg>
