<svg width="73" height="53" viewBox="0 0 73 53" fill="none" xmlns="http://www.w3.org/2000/svg">
<circle cx="26.3103" cy="26.6497" r="26" fill="#EC3A0E"/>
<path d="M20.4352 33.9148C18.0266 33.9148 15.596 32.7216 14.8005 30.2026L17.4521 29.1862C17.8941 30.5561 19.2199 31.1969 20.4573 31.1969C21.7168 31.1969 22.8879 30.6003 22.8879 29.6502C22.8879 27.1754 15.3309 27.4405 15.3309 22.5572C15.3309 19.7067 17.8499 18.2484 20.4352 18.2484C22.6006 18.2484 24.8324 19.309 25.6279 21.5186L22.9763 22.5572C22.4901 21.4745 21.54 20.9662 20.5015 20.9662C19.4187 20.9662 18.4686 21.4966 18.4686 22.3804C18.4686 24.8994 26.0035 24.7668 26.0035 29.4071C26.0035 32.3018 23.2635 33.9148 20.4352 33.9148ZM33.1531 33.9148C30.9435 33.9148 29.3967 32.4785 29.3967 29.6944V25.1425H27.629V22.6014H29.3967V20.0161H32.4018L32.2693 22.6014H34.5894V25.1425H32.4018V29.4513C32.4018 30.4899 32.7775 31.2632 33.7276 31.2632C34.1254 31.2632 34.6336 31.1307 35.2523 30.8655L35.8931 33.274C34.9208 33.6939 33.9928 33.9148 33.1531 33.9148ZM41.9427 38.2015C40.3076 38.2015 38.2305 37.5166 37.3466 35.8814L39.5121 34.2684C39.9761 34.9755 40.8379 35.4174 41.8764 35.4174C43.2243 35.4174 44.9037 34.6882 44.9037 32.81V31.1307C44.4396 32.6111 43.0696 33.5392 41.5229 33.5392C39.6447 33.5392 37.7002 32.1471 37.7002 29.0757V22.6014H40.7053V28.2802C40.7053 29.9374 41.6113 30.6887 42.6056 30.6887C43.6883 30.6887 44.8153 29.7607 44.8153 27.9487V22.6014H47.8204V32.5669C47.8204 36.1466 44.9037 38.2015 41.9427 38.2015Z" fill="#FCFCFC"/>
<path d="M56.2388 33.6497V18.0495H59.244V33.6497H56.2388ZM67.1956 33.9148C64.3452 33.9148 61.6715 31.904 61.6715 28.0813C61.6715 24.347 64.4777 22.3362 67.3282 22.3362C69.8693 22.3362 72.7419 23.9493 72.7419 28.2802C72.7419 28.5675 72.6977 29.1199 72.6977 29.2083H64.7208C65.1627 30.6445 66.3559 31.2853 67.505 31.2853C68.433 31.2853 69.3611 30.8655 69.9798 30.0258L71.9243 31.5726C70.9741 33.1635 68.9412 33.9148 67.1956 33.9148ZM64.6766 26.9765H69.6483C69.2948 25.2972 68.19 24.811 67.2398 24.811C66.0687 24.811 65.0081 25.5402 64.6766 26.9765Z" fill="#202020"/>
</svg>
