<svg width="343" height="160" viewBox="0 0 343 160" fill="none" xmlns="http://www.w3.org/2000/svg">
<rect width="343" height="160" fill="#F7F7F7"/>
<g clip-path="url(#clip0_1605_31496)">
<path d="M230.56 75H224.848V58.536H230.56C234.664 58.536 238.552 61.344 238.552 66.768C238.552 72.192 234.64 75 230.56 75ZM228.208 71.928H230.56C232.84 71.928 235.144 69.936 235.144 66.768C235.144 63.6 232.84 61.608 230.56 61.608H228.208V71.928ZM244.731 75.288C242.619 75.288 240.819 73.968 240.819 71.616C240.819 68.688 243.555 67.656 246.771 67.656C247.491 67.656 248.211 67.728 248.907 67.8C248.883 66.264 247.707 65.568 246.507 65.568C245.427 65.568 244.539 66.144 244.059 66.984L241.563 65.712C242.523 63.456 244.707 62.712 246.627 62.712C249.555 62.712 251.979 64.416 251.979 67.848V75H248.979V72.12C248.283 74.352 246.507 75.288 244.731 75.288ZM244.011 71.256C244.011 72.096 244.875 72.432 245.787 72.432C247.155 72.432 248.475 71.688 248.835 70.128C248.235 70.008 247.563 69.96 246.891 69.96C245.283 69.96 244.011 70.248 244.011 71.256ZM260.022 75.288C257.622 75.288 255.942 73.728 255.942 70.704V65.76H254.022V63H255.942V60.192H259.206L259.062 63H261.582V65.76H259.206V70.44C259.206 71.568 259.614 72.408 260.646 72.408C261.078 72.408 261.63 72.264 262.302 71.976L262.998 74.592C261.942 75.048 260.934 75.288 260.022 75.288ZM270.846 75.288C266.79 75.288 264.63 72.216 264.63 69C264.63 65.784 266.79 62.712 270.846 62.712C274.83 62.712 276.99 65.784 276.99 69C276.99 72.216 274.83 75.288 270.846 75.288ZM267.894 69C267.894 70.656 268.926 72.216 270.822 72.216C272.718 72.216 273.726 70.656 273.726 69C273.726 67.344 272.718 65.784 270.822 65.784C268.926 65.784 267.894 67.344 267.894 69ZM281.027 70.608C281.987 72.024 283.379 72.36 284.387 72.36C285.395 72.36 286.139 72.048 286.139 71.64C286.139 70.464 279.443 70.704 279.443 66.624C279.443 64.176 281.819 62.712 284.363 62.712C286.187 62.712 288.107 63.456 289.259 65.184L287.075 66.912C286.307 65.952 285.203 65.616 284.267 65.616C283.403 65.616 282.707 65.928 282.707 66.336C282.707 67.512 289.403 67.368 289.403 71.424C289.403 73.896 287.027 75.288 284.387 75.288C282.371 75.288 280.235 74.4 278.915 72.504L281.027 70.608ZM302.671 75.24C299.959 75.24 297.607 73.152 297.607 69.24C297.607 64.944 300.655 62.688 303.679 62.688C304.663 62.688 305.623 62.928 306.511 63.408L306.415 58.056H309.679V75H306.535L306.583 73.104C305.863 74.424 304.399 75.24 302.671 75.24ZM300.871 69.072C300.871 70.656 301.855 72.192 303.727 72.192C304.999 72.192 305.959 71.52 306.415 70.488V66.768C305.791 66.096 304.927 65.76 303.991 65.76C302.023 65.76 300.871 67.344 300.871 69.072ZM318.302 75.288C315.206 75.288 312.302 73.104 312.302 68.952C312.302 64.896 315.35 62.712 318.446 62.712C321.206 62.712 324.326 64.464 324.326 69.168C324.326 69.48 324.278 70.08 324.278 70.176H315.614C316.094 71.736 317.39 72.432 318.638 72.432C319.646 72.432 320.654 71.976 321.326 71.064L323.438 72.744C322.406 74.472 320.198 75.288 318.302 75.288ZM315.566 67.752H320.966C320.582 65.928 319.382 65.4 318.35 65.4C317.078 65.4 315.926 66.192 315.566 67.752Z" fill="#202020"/>
<path d="M223.91 105V95.396H226.976C228.586 95.396 229.944 96.348 229.944 98.364C229.944 100.408 228.586 101.346 226.976 101.346H225.1V105H223.91ZM225.1 100.282H227.06C228.012 100.282 228.74 99.61 228.74 98.364C228.74 97.132 228.012 96.46 227.06 96.46H225.1V100.282ZM234.586 105.154C232.64 105.154 231.086 103.768 231.086 101.5C231.086 99.232 232.64 97.846 234.586 97.846C236.504 97.846 238.058 99.232 238.058 101.5C238.058 103.768 236.504 105.154 234.586 105.154ZM232.234 101.5C232.234 103.138 233.27 104.076 234.586 104.076C235.86 104.076 236.91 103.138 236.91 101.5C236.91 99.862 235.86 98.924 234.586 98.924C233.27 98.924 232.234 99.862 232.234 101.5ZM239.894 105V98H241L240.944 99.666C241.378 98.308 242.33 97.86 243.156 97.86C243.408 97.86 243.674 97.902 243.87 97.958V99.26C243.548 99.176 243.254 99.134 242.974 99.134C241.882 99.134 241.042 99.778 241.042 101.234V105H239.894ZM249.534 105V98.98H248.568V98H249.534V97.384C249.534 95.844 250.36 95.032 251.606 95.032C252.012 95.032 252.474 95.116 252.95 95.298L252.684 96.236C252.334 96.096 251.998 96.04 251.718 96.04C250.976 96.04 250.528 96.488 250.528 97.482V98H252.614V98.98H250.682V105H249.534ZM256.116 105.154C254.926 105.154 253.862 104.426 253.862 103.124C253.862 101.64 255.22 100.968 257.236 100.968C257.684 100.968 258.132 100.996 258.608 101.052V100.604C258.608 99.456 257.768 98.882 256.9 98.882C256.2 98.882 255.514 99.26 255.192 99.96L254.31 99.498C254.772 98.336 255.892 97.846 256.956 97.846C258.398 97.846 259.714 98.728 259.714 100.52V105H258.622V103.222C258.272 104.552 257.208 105.154 256.116 105.154ZM254.996 103.054C254.996 103.754 255.626 104.118 256.396 104.118C257.39 104.118 258.454 103.488 258.594 102.004C258.076 101.92 257.6 101.878 257.18 101.878C255.64 101.878 254.996 102.368 254.996 103.054ZM263.242 105L261.128 98H262.29L264.096 104.132H264.362L266.168 98H267.344L265.202 105H263.242ZM271.938 105.154C269.992 105.154 268.438 103.768 268.438 101.5C268.438 99.232 269.992 97.846 271.938 97.846C273.856 97.846 275.41 99.232 275.41 101.5C275.41 103.768 273.856 105.154 271.938 105.154ZM269.586 101.5C269.586 103.138 270.622 104.076 271.938 104.076C273.212 104.076 274.262 103.138 274.262 101.5C274.262 99.862 273.212 98.924 271.938 98.924C270.622 98.924 269.586 99.862 269.586 101.5ZM277.246 105V98H278.352L278.296 99.666C278.73 98.308 279.682 97.86 280.508 97.86C280.76 97.86 281.026 97.902 281.222 97.958V99.26C280.9 99.176 280.606 99.134 280.326 99.134C279.234 99.134 278.394 99.778 278.394 101.234V105H277.246ZM286.325 105V98H287.473V105H286.325ZM286.171 96.712V95.172H287.613V96.712H286.171ZM289.496 105V98H290.63L290.56 99.694C290.896 98.49 291.96 97.846 293.01 97.846C294.242 97.846 295.446 98.714 295.446 100.534V105H294.298V100.744C294.298 99.512 293.5 98.924 292.646 98.924C291.68 98.924 290.644 99.68 290.644 101.22V105H289.496ZM300.437 107.87C299.303 107.87 298.253 107.352 297.749 106.414L298.631 105.826C298.981 106.428 299.667 106.834 300.479 106.834C301.431 106.834 302.467 106.26 302.467 104.958V103.488C301.949 104.552 301.053 105.028 300.129 105.028C298.701 105.028 297.231 103.824 297.231 101.5C297.231 98.994 298.939 97.846 300.885 97.846C301.697 97.846 302.481 98.028 303.573 98.546V104.958C303.573 106.89 301.991 107.87 300.437 107.87ZM298.393 101.472C298.393 103.18 299.471 103.978 300.479 103.978C301.347 103.978 302.201 103.446 302.425 102.438V99.316C301.949 99.05 301.403 98.938 300.899 98.938C299.611 98.938 298.393 99.638 298.393 101.472ZM305.505 105V98H306.611L306.555 99.666C306.989 98.308 307.941 97.86 308.767 97.86C309.019 97.86 309.285 97.902 309.481 97.958V99.26C309.159 99.176 308.865 99.134 308.585 99.134C307.493 99.134 306.653 99.778 306.653 101.234V105H305.505ZM313.66 105.14C311.966 105.14 310.356 103.88 310.356 101.514C310.356 99.47 311.728 97.846 313.744 97.846C315.382 97.846 316.922 98.91 316.922 101.262C316.922 101.388 316.922 101.584 316.908 101.696H311.476C311.574 103.278 312.652 104.09 313.73 104.09C314.57 104.09 315.438 103.628 315.858 102.774L316.656 103.278C316.124 104.51 314.836 105.14 313.66 105.14ZM311.546 100.772H315.76C315.592 99.414 314.682 98.826 313.702 98.826C312.554 98.826 311.77 99.652 311.546 100.772ZM319.313 102.746C319.635 103.754 320.517 104.118 321.301 104.118C322.057 104.118 322.757 103.796 322.757 103.236C322.757 101.864 318.739 102.102 318.739 99.834C318.739 98.574 319.943 97.846 321.231 97.846C322.281 97.846 323.387 98.336 323.863 99.456L323.009 99.988C322.659 99.204 321.903 98.868 321.217 98.868C320.517 98.868 319.887 99.218 319.887 99.764C319.887 101.066 323.905 100.884 323.905 103.138C323.905 104.426 322.631 105.154 321.301 105.154C320.125 105.154 318.921 104.58 318.487 103.306L319.313 102.746ZM327.579 105.154C326.389 105.154 325.325 104.426 325.325 103.124C325.325 101.64 326.683 100.968 328.699 100.968C329.147 100.968 329.595 100.996 330.071 101.052V100.604C330.071 99.456 329.231 98.882 328.363 98.882C327.663 98.882 326.977 99.26 326.655 99.96L325.773 99.498C326.235 98.336 327.355 97.846 328.419 97.846C329.861 97.846 331.177 98.728 331.177 100.52V105H330.085V103.222C329.735 104.552 328.671 105.154 327.579 105.154ZM326.459 103.054C326.459 103.754 327.089 104.118 327.859 104.118C328.853 104.118 329.917 103.488 330.057 102.004C329.539 101.92 329.063 101.878 328.643 101.878C327.103 101.878 326.459 102.368 326.459 103.054ZM336.787 105V95.116H337.935V105H336.787ZM343.223 105.154C341.277 105.154 339.723 103.768 339.723 101.5C339.723 99.232 341.277 97.846 343.223 97.846C345.141 97.846 346.695 99.232 346.695 101.5C346.695 103.768 345.141 105.154 343.223 105.154ZM340.871 101.5C340.871 103.138 341.907 104.076 343.223 104.076C344.497 104.076 345.547 103.138 345.547 101.5C345.547 99.862 344.497 98.924 343.223 98.924C341.907 98.924 340.871 99.862 340.871 101.5ZM349.091 102.746C349.413 103.754 350.295 104.118 351.079 104.118C351.835 104.118 352.535 103.796 352.535 103.236C352.535 101.864 348.517 102.102 348.517 99.834C348.517 98.574 349.721 97.846 351.009 97.846C352.059 97.846 353.165 98.336 353.641 99.456L352.787 99.988C352.437 99.204 351.681 98.868 350.995 98.868C350.295 98.868 349.665 99.218 349.665 99.764C349.665 101.066 353.683 100.884 353.683 103.138C353.683 104.426 352.409 105.154 351.079 105.154C349.903 105.154 348.699 104.58 348.265 103.306L349.091 102.746ZM361.846 105.154C360.32 105.154 358.85 103.894 358.85 101.64C358.85 99.246 360.418 97.832 362.266 97.832C363.036 97.832 363.694 98.084 364.184 98.406L364.17 95.116H365.318V105H364.184L364.226 103.642C363.778 104.566 362.882 105.154 361.846 105.154ZM359.998 101.486C359.998 103.152 361.006 104.062 362.21 104.062C363.078 104.062 363.876 103.558 364.17 102.676V99.68C363.708 99.218 363.064 98.924 362.364 98.924C361.034 98.924 359.998 99.974 359.998 101.486ZM369.292 105.154C368.102 105.154 367.038 104.426 367.038 103.124C367.038 101.64 368.396 100.968 370.412 100.968C370.86 100.968 371.308 100.996 371.784 101.052V100.604C371.784 99.456 370.944 98.882 370.076 98.882C369.376 98.882 368.69 99.26 368.368 99.96L367.486 99.498C367.948 98.336 369.068 97.846 370.132 97.846C371.574 97.846 372.89 98.728 372.89 100.52V105H371.798V103.222C371.448 104.552 370.384 105.154 369.292 105.154ZM368.172 103.054C368.172 103.754 368.802 104.118 369.572 104.118C370.566 104.118 371.63 103.488 371.77 102.004C371.252 101.92 370.776 101.878 370.356 101.878C368.816 101.878 368.172 102.368 368.172 103.054ZM377.58 105.154C376.334 105.154 375.508 104.342 375.508 102.802V98.98H374.332V98H375.508V96.362H376.656L376.558 98H378.238V98.98H376.656V102.732C376.656 103.684 377.02 104.146 377.734 104.146C377.986 104.146 378.308 104.09 378.658 103.95L378.924 104.888C378.448 105.07 377.986 105.154 377.58 105.154ZM383.542 105.154C381.596 105.154 380.042 103.768 380.042 101.5C380.042 99.232 381.596 97.846 383.542 97.846C385.46 97.846 387.014 99.232 387.014 101.5C387.014 103.768 385.46 105.154 383.542 105.154ZM381.19 101.5C381.19 103.138 382.226 104.076 383.542 104.076C384.816 104.076 385.866 103.138 385.866 101.5C385.866 99.862 384.816 98.924 383.542 98.924C382.226 98.924 381.19 99.862 381.19 101.5ZM389.409 102.746C389.731 103.754 390.613 104.118 391.397 104.118C392.153 104.118 392.853 103.796 392.853 103.236C392.853 101.864 388.835 102.102 388.835 99.834C388.835 98.574 390.039 97.846 391.327 97.846C392.377 97.846 393.483 98.336 393.959 99.456L393.105 99.988C392.755 99.204 391.999 98.868 391.313 98.868C390.613 98.868 389.983 99.218 389.983 99.764C389.983 101.066 394.001 100.884 394.001 103.138C394.001 104.426 392.727 105.154 391.397 105.154C390.221 105.154 389.017 104.58 388.583 103.306L389.409 102.746ZM402.164 105.154C400.638 105.154 399.168 103.894 399.168 101.64C399.168 99.246 400.736 97.832 402.584 97.832C403.354 97.832 404.012 98.084 404.502 98.406L404.488 95.116H405.636V105H404.502L404.544 103.642C404.096 104.566 403.2 105.154 402.164 105.154ZM400.316 101.486C400.316 103.152 401.324 104.062 402.528 104.062C403.396 104.062 404.194 103.558 404.488 102.676V99.68C404.026 99.218 403.382 98.924 402.682 98.924C401.352 98.924 400.316 99.974 400.316 101.486ZM410.717 105.14C409.023 105.14 407.413 103.88 407.413 101.514C407.413 99.47 408.785 97.846 410.801 97.846C412.439 97.846 413.979 98.91 413.979 101.262C413.979 101.388 413.979 101.584 413.965 101.696H408.533C408.631 103.278 409.709 104.09 410.787 104.09C411.627 104.09 412.495 103.628 412.915 102.774L413.713 103.278C413.181 104.51 411.893 105.14 410.717 105.14ZM408.603 100.772H412.817C412.649 99.414 411.739 98.826 410.759 98.826C409.611 98.826 408.827 99.652 408.603 100.772ZM415.81 105V95.116H416.958V105H415.81Z" fill="#202020"/>
</g>
<path d="M12 81C12 72.1634 19.1634 65 28 65H145C153.837 65 161 72.1634 161 81C161 89.8366 153.837 97 145 97H28C19.1634 97 12 89.8366 12 81Z" fill="#FCFCFC"/>
<path d="M20.98 86V79H22.114L22.044 80.694C22.38 79.49 23.444 78.846 24.494 78.846C25.726 78.846 26.93 79.714 26.93 81.534V86H25.782V81.744C25.782 80.512 24.984 79.924 24.13 79.924C23.164 79.924 22.128 80.68 22.128 82.22V86H20.98ZM32.0193 86.14C30.3253 86.14 28.7153 84.88 28.7153 82.514C28.7153 80.47 30.0873 78.846 32.1033 78.846C33.7413 78.846 35.2813 79.91 35.2813 82.262C35.2813 82.388 35.2813 82.584 35.2673 82.696H29.8353C29.9333 84.278 31.0113 85.09 32.0893 85.09C32.9293 85.09 33.7973 84.628 34.2173 83.774L35.0153 84.278C34.4833 85.51 33.1953 86.14 32.0193 86.14ZM29.9053 81.772H34.1193C33.9513 80.414 33.0413 79.826 32.0613 79.826C30.9133 79.826 30.1293 80.652 29.9053 81.772ZM42.7828 79V86H41.6488L41.7048 84.362C41.3688 85.538 40.4588 86.154 39.3388 86.154C38.1908 86.154 37.0988 85.482 37.0988 83.662V79H38.2468V83.41C38.2468 84.642 38.9608 85.076 39.7028 85.076C40.6828 85.076 41.6348 84.32 41.6348 82.78V79H42.7828ZM47.5274 86.154C46.2814 86.154 45.4554 85.342 45.4554 83.802V79.98H44.2794V79H45.4554V77.362H46.6034L46.5054 79H48.1854V79.98H46.6034V83.732C46.6034 84.684 46.9674 85.146 47.6814 85.146C47.9334 85.146 48.2554 85.09 48.6054 84.95L48.8714 85.888C48.3954 86.07 47.9334 86.154 47.5274 86.154ZM50.1558 86V79H51.2618L51.2058 80.666C51.6398 79.308 52.5918 78.86 53.4178 78.86C53.6698 78.86 53.9358 78.902 54.1318 78.958V80.26C53.8098 80.176 53.5158 80.134 53.2358 80.134C52.1438 80.134 51.3038 80.778 51.3038 82.234V86H50.1558ZM57.2043 86.154C56.0143 86.154 54.9503 85.426 54.9503 84.124C54.9503 82.64 56.3083 81.968 58.3243 81.968C58.7723 81.968 59.2203 81.996 59.6963 82.052V81.604C59.6963 80.456 58.8563 79.882 57.9883 79.882C57.2883 79.882 56.6023 80.26 56.2803 80.96L55.3983 80.498C55.8603 79.336 56.9803 78.846 58.0443 78.846C59.4863 78.846 60.8023 79.728 60.8023 81.52V86H59.7103V84.222C59.3603 85.552 58.2963 86.154 57.2043 86.154ZM56.0843 84.054C56.0843 84.754 56.7143 85.118 57.4843 85.118C58.4783 85.118 59.5423 84.488 59.6823 83.004C59.1643 82.92 58.6883 82.878 58.2683 82.878C56.7283 82.878 56.0843 83.368 56.0843 84.054ZM62.7202 86V76.116H63.8682V86H62.7202ZM72.3301 76.396H73.5061L70.6921 87.596H69.5161L72.3301 76.396ZM82.0648 86.154C80.5388 86.154 79.0688 84.894 79.0688 82.64C79.0688 80.246 80.6368 78.832 82.4848 78.832C83.2548 78.832 83.9128 79.084 84.4028 79.406L84.3888 76.116H85.5368V86H84.4028L84.4448 84.642C83.9968 85.566 83.1008 86.154 82.0648 86.154ZM80.2168 82.486C80.2168 84.152 81.2248 85.062 82.4288 85.062C83.2968 85.062 84.0948 84.558 84.3888 83.676V80.68C83.9268 80.218 83.2828 79.924 82.5828 79.924C81.2528 79.924 80.2168 80.974 80.2168 82.486ZM89.511 86.154C88.321 86.154 87.257 85.426 87.257 84.124C87.257 82.64 88.615 81.968 90.631 81.968C91.079 81.968 91.527 81.996 92.003 82.052V81.604C92.003 80.456 91.163 79.882 90.295 79.882C89.595 79.882 88.909 80.26 88.587 80.96L87.705 80.498C88.167 79.336 89.287 78.846 90.351 78.846C91.793 78.846 93.109 79.728 93.109 81.52V86H92.017V84.222C91.667 85.552 90.603 86.154 89.511 86.154ZM88.391 84.054C88.391 84.754 89.021 85.118 89.791 85.118C90.785 85.118 91.849 84.488 91.989 83.004C91.471 82.92 90.995 82.878 90.575 82.878C89.035 82.878 88.391 83.368 88.391 84.054ZM95.0269 86V79H96.1329L96.0769 80.666C96.5109 79.308 97.4629 78.86 98.2889 78.86C98.5409 78.86 98.8069 78.902 99.0029 78.958V80.26C98.6809 80.176 98.3869 80.134 98.1069 80.134C97.0149 80.134 96.1749 80.778 96.1749 82.234V86H95.0269ZM100.345 86V76.116H101.493V86H100.345ZM101.801 82.066L104.377 79H105.763L103.159 82.052L106.253 86H104.839L101.801 82.066ZM110.428 86.14C108.734 86.14 107.124 84.88 107.124 82.514C107.124 80.47 108.496 78.846 110.512 78.846C112.15 78.846 113.69 79.91 113.69 82.262C113.69 82.388 113.69 82.584 113.676 82.696H108.244C108.342 84.278 109.42 85.09 110.498 85.09C111.338 85.09 112.206 84.628 112.626 83.774L113.424 84.278C112.892 85.51 111.604 86.14 110.428 86.14ZM108.314 81.772H112.528C112.36 80.414 111.45 79.826 110.47 79.826C109.322 79.826 108.538 80.652 108.314 81.772ZM116.081 83.746C116.403 84.754 117.285 85.118 118.069 85.118C118.825 85.118 119.525 84.796 119.525 84.236C119.525 82.864 115.507 83.102 115.507 80.834C115.507 79.574 116.711 78.846 117.999 78.846C119.049 78.846 120.155 79.336 120.631 80.456L119.777 80.988C119.427 80.204 118.671 79.868 117.985 79.868C117.285 79.868 116.655 80.218 116.655 80.764C116.655 82.066 120.673 81.884 120.673 84.138C120.673 85.426 119.399 86.154 118.069 86.154C116.893 86.154 115.689 85.58 115.255 84.306L116.081 83.746ZM125.047 86.154C123.801 86.154 122.975 85.342 122.975 83.802V79.98H121.799V79H122.975V77.362H124.123L124.025 79H125.705V79.98H124.123V83.732C124.123 84.684 124.487 85.146 125.201 85.146C125.453 85.146 125.775 85.09 126.125 84.95L126.391 85.888C125.915 86.07 125.453 86.154 125.047 86.154Z" fill="black"/>
<circle cx="145" cy="81" r="8" fill="#202020"/>
<path d="M206.333 79.5C206.333 80.9728 207.527 82.1667 209 82.1667C210.473 82.1667 211.667 80.9728 211.667 79.5C211.667 78.0272 210.473 76.8333 209 76.8333C207.527 76.8333 206.333 78.0272 206.333 79.5ZM163 80H209V79H163V80Z" fill="#DEDEDE"/>
<defs>
<clipPath id="clip0_1605_31496">
<rect width="120" height="62" fill="white" transform="translate(223 50)"/>
</clipPath>
</defs>
</svg>
