<svg width="343" height="160" viewBox="0 0 343 160" fill="none" xmlns="http://www.w3.org/2000/svg">
<rect width="343" height="160" fill="#F7F7F7"/>
<g clip-path="url(#clip0_1605_31506)">
<path d="M224.848 75V58.536H228.208V65.448H235.192V58.536H238.552V75H235.192V68.448H228.208V75H224.848ZM247.831 75.288C243.775 75.288 241.615 72.216 241.615 69C241.615 65.784 243.775 62.712 247.831 62.712C251.815 62.712 253.975 65.784 253.975 69C253.975 72.216 251.815 75.288 247.831 75.288ZM244.879 69C244.879 70.656 245.911 72.216 247.807 72.216C249.703 72.216 250.711 70.656 250.711 69C250.711 67.344 249.703 65.784 247.807 65.784C245.911 65.784 244.879 67.344 244.879 69ZM256.667 75V58.056H259.931V75H256.667ZM266.552 75.288C264.44 75.288 262.64 73.968 262.64 71.616C262.64 68.688 265.376 67.656 268.592 67.656C269.312 67.656 270.032 67.728 270.728 67.8C270.704 66.264 269.528 65.568 268.328 65.568C267.248 65.568 266.36 66.144 265.88 66.984L263.384 65.712C264.344 63.456 266.528 62.712 268.448 62.712C271.376 62.712 273.8 64.416 273.8 67.848V75H270.8V72.12C270.104 74.352 268.328 75.288 266.552 75.288ZM265.832 71.256C265.832 72.096 266.696 72.432 267.608 72.432C268.976 72.432 270.296 71.688 270.656 70.128C270.056 70.008 269.384 69.96 268.712 69.96C267.104 69.96 265.832 70.248 265.832 71.256ZM283.301 75V58.536H289.085C292.661 58.536 294.437 60.816 294.437 63.24C294.437 64.776 293.669 66.312 292.133 67.272C293.741 68.088 294.365 69.576 294.605 71.256L295.133 75H291.797L291.317 71.52C291.053 69.696 290.309 68.736 288.365 68.736H286.637V75H283.301ZM286.637 65.76H288.917C290.381 65.76 291.149 64.656 291.149 63.6C291.149 62.496 290.381 61.536 288.917 61.536H286.637V65.76ZM303.56 75.288C300.464 75.288 297.56 73.104 297.56 68.952C297.56 64.896 300.608 62.712 303.704 62.712C306.464 62.712 309.584 64.464 309.584 69.168C309.584 69.48 309.536 70.08 309.536 70.176H300.872C301.352 71.736 302.648 72.432 303.896 72.432C304.904 72.432 305.912 71.976 306.584 71.064L308.696 72.744C307.664 74.472 305.456 75.288 303.56 75.288ZM300.824 67.752H306.224C305.84 65.928 304.64 65.4 303.608 65.4C302.336 65.4 301.184 66.192 300.824 67.752ZM312.261 75V63H315.525L315.357 65.544C315.909 63.672 317.541 62.712 319.245 62.712C321.357 62.712 323.517 64.272 323.517 67.56V75H320.253V68.4C320.253 66.624 319.197 65.784 318.069 65.784C316.845 65.784 315.525 66.84 315.525 68.784V75H312.261ZM326.13 75V72.216L331.89 65.76H326.418V63H335.898V65.784L330.114 72.24H336.018V75H326.13ZM343.526 75.288C339.47 75.288 337.31 72.216 337.31 69C337.31 65.784 339.47 62.712 343.526 62.712C347.51 62.712 349.67 65.784 349.67 69C349.67 72.216 347.51 75.288 343.526 75.288ZM340.574 69C340.574 70.656 341.606 72.216 343.502 72.216C345.398 72.216 346.406 70.656 346.406 69C346.406 67.344 345.398 65.784 343.502 65.784C341.606 65.784 340.574 67.344 340.574 69Z" fill="#DEDEDE"/>
<path d="M223.42 105L226.906 95.396H228.768L232.254 105H231.022L229.93 101.99H225.73L224.652 105H223.42ZM226.108 100.926H229.552L227.928 96.432H227.718L226.108 100.926ZM233.646 105V95.116H234.78L234.738 99.638C234.976 98.868 235.62 97.846 237.006 97.846C238.238 97.846 239.26 98.7 239.26 100.52V105H238.112V100.912C238.112 99.484 237.468 98.924 236.656 98.924C235.704 98.924 234.794 99.694 234.794 101.22V105H233.646ZM244.553 105.154C242.607 105.154 241.053 103.768 241.053 101.5C241.053 99.232 242.607 97.846 244.553 97.846C246.471 97.846 248.025 99.232 248.025 101.5C248.025 103.768 246.471 105.154 244.553 105.154ZM242.201 101.5C242.201 103.138 243.237 104.076 244.553 104.076C245.827 104.076 246.877 103.138 246.877 101.5C246.877 99.862 245.827 98.924 244.553 98.924C243.237 98.924 242.201 99.862 242.201 101.5ZM249.861 105V98H250.967L250.911 99.666C251.345 98.308 252.297 97.86 253.123 97.86C253.375 97.86 253.641 97.902 253.837 97.958V99.26C253.515 99.176 253.221 99.134 252.941 99.134C251.849 99.134 251.009 99.778 251.009 101.234V105H249.861ZM256.909 105.154C255.719 105.154 254.655 104.426 254.655 103.124C254.655 101.64 256.013 100.968 258.029 100.968C258.477 100.968 258.925 100.996 259.401 101.052V100.604C259.401 99.456 258.561 98.882 257.693 98.882C256.993 98.882 256.307 99.26 255.985 99.96L255.103 99.498C255.565 98.336 256.685 97.846 257.749 97.846C259.191 97.846 260.507 98.728 260.507 100.52V105H259.415V103.222C259.065 104.552 258.001 105.154 256.909 105.154ZM255.789 103.054C255.789 103.754 256.419 104.118 257.189 104.118C258.183 104.118 259.247 103.488 259.387 102.004C258.869 101.92 258.393 101.878 257.973 101.878C256.433 101.878 255.789 102.368 255.789 103.054ZM266.047 105V95.396H269.113C270.723 95.396 272.081 96.348 272.081 98.364C272.081 100.408 270.723 101.346 269.113 101.346H267.237V105H266.047ZM267.237 100.282H269.197C270.149 100.282 270.877 99.61 270.877 98.364C270.877 97.132 270.149 96.46 269.197 96.46H267.237V100.282ZM276.723 105.154C274.777 105.154 273.223 103.768 273.223 101.5C273.223 99.232 274.777 97.846 276.723 97.846C278.641 97.846 280.195 99.232 280.195 101.5C280.195 103.768 278.641 105.154 276.723 105.154ZM274.371 101.5C274.371 103.138 275.407 104.076 276.723 104.076C277.997 104.076 279.047 103.138 279.047 101.5C279.047 99.862 277.997 98.924 276.723 98.924C275.407 98.924 274.371 99.862 274.371 101.5ZM284.641 105.154C283.115 105.154 281.645 103.894 281.645 101.64C281.645 99.246 283.213 97.832 285.061 97.832C285.831 97.832 286.489 98.084 286.979 98.406L286.965 95.116H288.113V105H286.979L287.021 103.642C286.573 104.566 285.677 105.154 284.641 105.154ZM282.793 101.486C282.793 103.152 283.801 104.062 285.005 104.062C285.873 104.062 286.671 103.558 286.965 102.676V99.68C286.503 99.218 285.859 98.924 285.159 98.924C283.829 98.924 282.793 99.974 282.793 101.486ZM293.193 105.14C291.499 105.14 289.889 103.88 289.889 101.514C289.889 99.47 291.261 97.846 293.277 97.846C294.915 97.846 296.455 98.91 296.455 101.262C296.455 101.388 296.455 101.584 296.441 101.696H291.009C291.107 103.278 292.185 104.09 293.263 104.09C294.103 104.09 294.971 103.628 295.391 102.774L296.189 103.278C295.657 104.51 294.369 105.14 293.193 105.14ZM291.079 100.772H295.293C295.125 99.414 294.215 98.826 293.235 98.826C292.087 98.826 291.303 99.652 291.079 100.772ZM298.287 105V98H299.421L299.351 99.694C299.561 98.938 300.121 97.846 301.605 97.846C302.641 97.846 303.523 98.42 303.789 99.638C304.027 98.84 304.629 97.846 306.029 97.846C307.303 97.846 308.311 98.7 308.311 100.45V105H307.163V100.814C307.163 99.442 306.477 98.924 305.665 98.924C304.685 98.924 303.887 99.694 303.887 101.22V105H302.739V100.87C302.739 99.442 302.039 98.924 301.227 98.924C300.247 98.924 299.435 99.694 299.435 101.22V105H298.287ZM313.596 105.154C311.65 105.154 310.096 103.768 310.096 101.5C310.096 99.232 311.65 97.846 313.596 97.846C315.514 97.846 317.068 99.232 317.068 101.5C317.068 103.768 315.514 105.154 313.596 105.154ZM311.244 101.5C311.244 103.138 312.28 104.076 313.596 104.076C314.87 104.076 315.92 103.138 315.92 101.5C315.92 99.862 314.87 98.924 313.596 98.924C312.28 98.924 311.244 99.862 311.244 101.5ZM319.464 102.746C319.786 103.754 320.668 104.118 321.452 104.118C322.208 104.118 322.908 103.796 322.908 103.236C322.908 101.864 318.89 102.102 318.89 99.834C318.89 98.574 320.094 97.846 321.382 97.846C322.432 97.846 323.538 98.336 324.014 99.456L323.16 99.988C322.81 99.204 322.054 98.868 321.368 98.868C320.668 98.868 320.038 99.218 320.038 99.764C320.038 101.066 324.056 100.884 324.056 103.138C324.056 104.426 322.782 105.154 321.452 105.154C320.276 105.154 319.072 104.58 318.638 103.306L319.464 102.746ZM332.527 105.14C330.833 105.14 329.223 103.88 329.223 101.514C329.223 99.47 330.595 97.846 332.611 97.846C334.249 97.846 335.789 98.91 335.789 101.262C335.789 101.388 335.789 101.584 335.775 101.696H330.343C330.441 103.278 331.519 104.09 332.597 104.09C333.437 104.09 334.305 103.628 334.725 102.774L335.523 103.278C334.991 104.51 333.703 105.14 332.527 105.14ZM330.413 100.772H334.627C334.459 99.414 333.549 98.826 332.569 98.826C331.421 98.826 330.637 99.652 330.413 100.772ZM337.621 105V98H338.755L338.685 99.694C338.895 98.938 339.455 97.846 340.939 97.846C341.975 97.846 342.857 98.42 343.123 99.638C343.361 98.84 343.963 97.846 345.363 97.846C346.637 97.846 347.645 98.7 347.645 100.45V105H346.497V100.814C346.497 99.442 345.811 98.924 344.999 98.924C344.019 98.924 343.221 99.694 343.221 101.22V105H342.073V100.87C342.073 99.442 341.373 98.924 340.561 98.924C339.581 98.924 338.769 99.694 338.769 101.22V105H337.621ZM350.704 100.338V103.418C351.236 103.852 351.838 104.062 352.44 104.062C353.742 104.062 354.82 103.054 354.82 101.43C354.82 99.848 353.826 98.938 352.678 98.938C351.796 98.938 350.984 99.47 350.704 100.338ZM349.556 107.716V98H350.69L350.648 99.358C351.152 98.364 352.076 97.846 353.07 97.846C354.596 97.846 355.968 99.078 355.968 101.346C355.968 103.712 354.372 105.154 352.552 105.154C351.852 105.154 351.236 104.958 350.69 104.65V107.716H349.556Z" fill="#DEDEDE"/>
</g>
<path d="M12 81C12 72.1634 19.1634 65 28 65H148C156.837 65 164 72.1634 164 81C164 89.8366 156.837 97 148 97H28C19.1634 97 12 89.8366 12 81Z" fill="#FCFCFC"/>
<path d="M20.98 86V79H22.114L22.044 80.694C22.38 79.49 23.444 78.846 24.494 78.846C25.726 78.846 26.93 79.714 26.93 81.534V86H25.782V81.744C25.782 80.512 24.984 79.924 24.13 79.924C23.164 79.924 22.128 80.68 22.128 82.22V86H20.98ZM32.0193 86.14C30.3253 86.14 28.7153 84.88 28.7153 82.514C28.7153 80.47 30.0873 78.846 32.1033 78.846C33.7413 78.846 35.2813 79.91 35.2813 82.262C35.2813 82.388 35.2813 82.584 35.2673 82.696H29.8353C29.9333 84.278 31.0113 85.09 32.0893 85.09C32.9293 85.09 33.7973 84.628 34.2173 83.774L35.0153 84.278C34.4833 85.51 33.1953 86.14 32.0193 86.14ZM29.9053 81.772H34.1193C33.9513 80.414 33.0413 79.826 32.0613 79.826C30.9133 79.826 30.1293 80.652 29.9053 81.772ZM42.7828 79V86H41.6488L41.7048 84.362C41.3688 85.538 40.4588 86.154 39.3388 86.154C38.1908 86.154 37.0988 85.482 37.0988 83.662V79H38.2468V83.41C38.2468 84.642 38.9608 85.076 39.7028 85.076C40.6828 85.076 41.6348 84.32 41.6348 82.78V79H42.7828ZM47.5274 86.154C46.2814 86.154 45.4554 85.342 45.4554 83.802V79.98H44.2794V79H45.4554V77.362H46.6034L46.5054 79H48.1854V79.98H46.6034V83.732C46.6034 84.684 46.9674 85.146 47.6814 85.146C47.9334 85.146 48.2554 85.09 48.6054 84.95L48.8714 85.888C48.3954 86.07 47.9334 86.154 47.5274 86.154ZM50.1558 86V79H51.2618L51.2058 80.666C51.6398 79.308 52.5918 78.86 53.4178 78.86C53.6698 78.86 53.9358 78.902 54.1318 78.958V80.26C53.8098 80.176 53.5158 80.134 53.2358 80.134C52.1438 80.134 51.3038 80.778 51.3038 82.234V86H50.1558ZM57.2043 86.154C56.0143 86.154 54.9503 85.426 54.9503 84.124C54.9503 82.64 56.3083 81.968 58.3243 81.968C58.7723 81.968 59.2203 81.996 59.6963 82.052V81.604C59.6963 80.456 58.8563 79.882 57.9883 79.882C57.2883 79.882 56.6023 80.26 56.2803 80.96L55.3983 80.498C55.8603 79.336 56.9803 78.846 58.0443 78.846C59.4863 78.846 60.8023 79.728 60.8023 81.52V86H59.7103V84.222C59.3603 85.552 58.2963 86.154 57.2043 86.154ZM56.0843 84.054C56.0843 84.754 56.7143 85.118 57.4843 85.118C58.4783 85.118 59.5423 84.488 59.6823 83.004C59.1643 82.92 58.6883 82.878 58.2683 82.878C56.7283 82.878 56.0843 83.368 56.0843 84.054ZM62.7202 86V76.116H63.8682V86H62.7202ZM72.3301 76.396H73.5061L70.6921 87.596H69.5161L72.3301 76.396ZM79.1948 86V79H80.3288L80.2588 80.694C80.4688 79.938 81.0288 78.846 82.5128 78.846C83.5488 78.846 84.4308 79.42 84.6968 80.638C84.9348 79.84 85.5368 78.846 86.9368 78.846C88.2108 78.846 89.2188 79.7 89.2188 81.45V86H88.0708V81.814C88.0708 80.442 87.3848 79.924 86.5728 79.924C85.5928 79.924 84.7948 80.694 84.7948 82.22V86H83.6468V81.87C83.6468 80.442 82.9468 79.924 82.1348 79.924C81.1548 79.924 80.3428 80.694 80.3428 82.22V86H79.1948ZM94.3084 86.14C92.6144 86.14 91.0044 84.88 91.0044 82.514C91.0044 80.47 92.3764 78.846 94.3924 78.846C96.0304 78.846 97.5704 79.91 97.5704 82.262C97.5704 82.388 97.5704 82.584 97.5564 82.696H92.1244C92.2224 84.278 93.3004 85.09 94.3784 85.09C95.2184 85.09 96.0864 84.628 96.5064 83.774L97.3044 84.278C96.7724 85.51 95.4844 86.14 94.3084 86.14ZM92.1944 81.772H96.4084C96.2404 80.414 95.3304 79.826 94.3504 79.826C93.2024 79.826 92.4184 80.652 92.1944 81.772ZM102.012 86.154C100.486 86.154 99.0161 84.894 99.0161 82.64C99.0161 80.246 100.584 78.832 102.432 78.832C103.202 78.832 103.86 79.084 104.35 79.406L104.336 76.116H105.484V86H104.35L104.392 84.642C103.944 85.566 103.048 86.154 102.012 86.154ZM100.164 82.486C100.164 84.152 101.172 85.062 102.376 85.062C103.244 85.062 104.042 84.558 104.336 83.676V80.68C103.874 80.218 103.23 79.924 102.53 79.924C101.2 79.924 100.164 80.974 100.164 82.486ZM107.456 86V79H108.604V86H107.456ZM107.302 77.712V76.172H108.744V77.712H107.302ZM116.296 79V86H115.162L115.218 84.362C114.882 85.538 113.972 86.154 112.852 86.154C111.704 86.154 110.612 85.482 110.612 83.662V79H111.76V83.41C111.76 84.642 112.474 85.076 113.216 85.076C114.196 85.076 115.148 84.32 115.148 82.78V79H116.296ZM118.269 86V79H119.403L119.333 80.694C119.543 79.938 120.103 78.846 121.587 78.846C122.623 78.846 123.505 79.42 123.771 80.638C124.009 79.84 124.611 78.846 126.011 78.846C127.285 78.846 128.293 79.7 128.293 81.45V86H127.145V81.814C127.145 80.442 126.459 79.924 125.647 79.924C124.667 79.924 123.869 80.694 123.869 82.22V86H122.721V81.87C122.721 80.442 122.021 79.924 121.209 79.924C120.229 79.924 119.417 80.694 119.417 82.22V86H118.269Z" fill="black"/>
<circle cx="148" cy="81" r="8" fill="#DEDEDE"/>
<path d="M206.333 79.5C206.333 80.9728 207.527 82.1667 209 82.1667C210.473 82.1667 211.667 80.9728 211.667 79.5C211.667 78.0272 210.473 76.8333 209 76.8333C207.527 76.8333 206.333 78.0272 206.333 79.5ZM163 80H209V79H163V80Z" fill="#DEDEDE"/>
<defs>
<clipPath id="clip0_1605_31506">
<rect width="120" height="62" fill="white" transform="translate(223 50)"/>
</clipPath>
</defs>
</svg>
