<svg width="343" height="160" viewBox="0 0 343 160" fill="none" xmlns="http://www.w3.org/2000/svg">
<rect width="343" height="160" fill="#F7F7F7"/>
<rect x="101" y="52" width="142" height="56" rx="8" fill="#E62020"/>
<path d="M137.014 89.4229H152.987V81.9869H155.151V75.6131H150.45C151.433 72.3869 149.663 70.5574 147.479 70.5574C146.456 70.5574 145.453 71.0885 144.902 72.3475C144.351 71.0885 143.348 70.5574 142.325 70.5574C140.141 70.5574 138.371 72.3869 139.355 75.6131H134.85V81.9869H137.014V89.4229ZM137.112 79.9213V77.6787H143.879V79.9213H137.112ZM139.276 87.3574V81.9869H143.879V87.3574H139.276ZM141.518 75.6131C140.791 73.941 141.577 72.8 142.423 72.8C143.132 72.8 143.879 73.6066 143.8 75.6131H141.518ZM145.964 75.6131C145.866 73.6066 146.653 72.8 147.4 72.8C148.266 72.8 149.092 73.941 148.246 75.6131H145.964ZM146.141 87.3574V81.9869H150.725V87.3574H146.141ZM146.141 79.9213V77.6787H152.889V79.9213H146.141Z" fill="#FCFCFC"/>
<path d="M170.456 81.728V80.16H175.944C175.944 80.176 175.992 80.576 175.992 80.96C175.992 84.928 173.032 86.192 170.984 86.192C167.864 86.192 165.912 83.728 165.912 80.528C165.912 77.312 168.04 74.832 171.08 74.832C173.032 74.832 174.76 75.808 175.64 77.856L174.136 78.768C173.576 77.28 172.328 76.592 171.112 76.592C169.464 76.592 167.832 77.84 167.832 80.512C167.832 83.328 169.528 84.448 171.144 84.448C172.616 84.448 174.04 83.44 174.04 81.728H170.456ZM177.931 86V78H179.659L179.563 79.84C179.947 78.464 180.987 77.84 181.995 77.84C182.235 77.84 182.491 77.872 182.715 77.952V80.048C182.267 79.936 181.899 79.872 181.563 79.872C180.283 79.872 179.771 80.784 179.771 82.32V86H177.931ZM186.316 86.192C184.924 86.192 183.724 85.328 183.724 83.792C183.724 81.936 185.452 81.216 187.644 81.216C188.14 81.216 188.636 81.248 189.132 81.312V81.136C189.132 79.984 188.284 79.44 187.388 79.44C186.636 79.44 185.98 79.84 185.628 80.496L184.236 79.776C184.828 78.336 186.22 77.808 187.468 77.808C189.292 77.808 190.876 78.896 190.876 81.088V86H189.164V84.08C188.716 85.552 187.532 86.192 186.316 86.192ZM185.532 83.616C185.532 84.256 186.156 84.56 186.876 84.56C187.884 84.56 188.892 83.968 189.1 82.672C188.62 82.592 188.14 82.56 187.676 82.56C186.332 82.56 185.532 82.896 185.532 83.616ZM196.243 86.192C194.707 86.192 193.651 85.184 193.651 83.28V79.552H192.355V78H193.651V76.128H195.491L195.395 78H197.171V79.552H195.491V83.136C195.491 84.016 195.827 84.56 196.563 84.56C196.851 84.56 197.219 84.48 197.651 84.304L198.051 85.776C197.411 86.048 196.803 86.192 196.243 86.192ZM199.558 86V78H201.398V86H199.558ZM199.398 76.704V74.544H201.558V76.704H199.398ZM204.34 83.216C204.884 84.24 205.828 84.528 206.596 84.528C207.348 84.528 207.956 84.272 207.956 83.856C207.956 82.752 203.444 82.96 203.444 80.288C203.444 78.736 204.948 77.808 206.564 77.808C207.764 77.808 209.044 78.336 209.716 79.536L208.452 80.48C207.988 79.728 207.188 79.456 206.516 79.456C205.844 79.456 205.284 79.744 205.284 80.144C205.284 81.2 209.796 81.056 209.796 83.712C209.796 85.296 208.26 86.176 206.596 86.176C205.252 86.176 203.844 85.568 203.124 84.24L204.34 83.216Z" fill="#FCFCFC"/>
</svg>
