<svg width="343" height="160" viewBox="0 0 343 160" fill="none" xmlns="http://www.w3.org/2000/svg">
<rect width="343" height="160" fill="#F7F7F7"/>
<rect x="55.5" y="52" width="233" height="56" rx="8" fill="#E62020"/>
<path d="M103.788 68.6492H95.2309V70.9508H91.5522V86.3934C91.5522 87.4361 92.3588 88.1049 93.2637 88.1049H94.6604V90.6623C94.6604 91.1934 95.0736 91.5869 95.5654 91.5869H103.474C103.965 91.5869 104.378 91.1934 104.378 90.682V88.1049H105.657C106.837 88.1049 107.447 87.2393 107.447 86.3147V70.9508H103.788V68.6492ZM93.8145 86.0393V73.0164H95.2309V73.3508C95.2309 73.8426 95.6047 74.2557 96.1359 74.2557H102.883C103.415 74.2557 103.788 73.8426 103.788 73.3508V73.0164H105.185V86.0393H93.8145ZM95.8014 78.8984H103.178V76.8328H95.8014V78.8984ZM95.8014 83.4426H98.2801V80.9639H95.8014V83.4426ZM96.9227 89.8557V88.1049H98.4572V89.8557H96.9227ZM97.3555 72.1311V70.7344H101.664V72.1311H97.3555ZM100.523 89.8557V88.1049H102.116V89.8754L100.523 89.8557ZM100.7 83.4426H103.178V80.9639H100.7V83.4426Z" fill="#FCFCFC"/>
<path d="M122.556 86V76.72H119.82V75.024H127.164V76.72H124.444V86H122.556ZM131.518 86.176C129.502 86.176 127.614 84.72 127.614 81.984C127.614 79.424 129.454 77.808 131.614 77.808C133.47 77.808 135.422 79.008 135.422 81.968L135.406 82.56H129.438C129.678 83.904 130.702 84.544 131.694 84.544C132.478 84.544 133.278 84.16 133.742 83.408L134.942 84.32C134.286 85.568 132.83 86.176 131.518 86.176ZM129.47 81.168H133.55C133.31 79.808 132.414 79.344 131.566 79.344C130.542 79.344 129.726 80.032 129.47 81.168ZM137.337 86V78H139.065L138.969 79.84C139.353 78.464 140.393 77.84 141.401 77.84C141.641 77.84 141.897 77.872 142.121 77.952V80.048C141.673 79.936 141.305 79.872 140.969 79.872C139.689 79.872 139.177 80.784 139.177 82.32V86H137.337ZM143.634 86V78H145.458L145.362 79.808C145.618 78.768 146.466 77.808 147.842 77.808C148.946 77.808 149.986 78.432 150.354 79.776C150.674 78.688 151.57 77.808 152.882 77.808C154.29 77.808 155.554 78.8 155.554 80.944V86H153.714V81.36C153.714 80.016 152.994 79.552 152.258 79.552C151.346 79.552 150.514 80.304 150.514 81.792V86H148.674V81.392C148.674 80.016 147.938 79.552 147.218 79.552C146.29 79.552 145.474 80.304 145.474 81.792V86H143.634ZM157.667 86V78H159.507V86H157.667ZM157.507 76.704V74.544H159.667V76.704H157.507ZM161.665 86V78H163.489L163.393 79.824C163.745 78.496 164.881 77.808 166.065 77.808C167.473 77.808 168.897 78.832 168.897 80.976V86H167.057V81.424C167.057 80.144 166.257 79.552 165.425 79.552C164.497 79.552 163.505 80.304 163.505 81.792V86H161.665ZM173.363 86.192C171.971 86.192 170.771 85.328 170.771 83.792C170.771 81.936 172.499 81.216 174.691 81.216C175.187 81.216 175.683 81.248 176.179 81.312V81.136C176.179 79.984 175.331 79.44 174.435 79.44C173.683 79.44 173.027 79.84 172.675 80.496L171.283 79.776C171.875 78.336 173.267 77.808 174.515 77.808C176.339 77.808 177.923 78.896 177.923 81.088V86H176.211V84.08C175.763 85.552 174.579 86.192 173.363 86.192ZM172.579 83.616C172.579 84.256 173.203 84.56 173.923 84.56C174.931 84.56 175.939 83.968 176.147 82.672C175.667 82.592 175.187 82.56 174.723 82.56C173.379 82.56 172.579 82.896 172.579 83.616ZM179.962 86V78H181.69L181.594 79.84C181.978 78.464 183.018 77.84 184.026 77.84C184.266 77.84 184.522 77.872 184.746 77.952V80.048C184.298 79.936 183.93 79.872 183.594 79.872C182.314 79.872 181.802 80.784 181.802 82.32V86H179.962ZM193.678 86.16C191.886 86.16 190.286 84.752 190.286 82.16C190.286 79.344 192.222 77.808 194.27 77.808C195.022 77.808 195.71 78 196.286 78.336L196.238 74.704H198.078V86H196.302L196.35 84.592C195.87 85.552 194.862 86.16 193.678 86.16ZM192.126 82.016C192.126 83.408 192.974 84.448 194.27 84.448C195.182 84.448 195.918 83.936 196.238 83.136V80.288C195.774 79.808 195.15 79.536 194.446 79.536C193.054 79.536 192.126 80.64 192.126 82.016ZM203.831 86.176C201.815 86.176 199.927 84.72 199.927 81.984C199.927 79.424 201.767 77.808 203.927 77.808C205.783 77.808 207.735 79.008 207.735 81.968L207.719 82.56H201.751C201.991 83.904 203.015 84.544 204.007 84.544C204.791 84.544 205.591 84.16 206.055 83.408L207.255 84.32C206.599 85.568 205.143 86.176 203.831 86.176ZM201.783 81.168H205.863C205.623 79.808 204.727 79.344 203.879 79.344C202.855 79.344 202.039 80.032 201.783 81.168ZM215.677 80.912V83.936C216.173 84.272 216.733 84.432 217.309 84.432C218.733 84.432 219.741 83.424 219.741 81.92C219.741 80.544 218.893 79.552 217.645 79.552C216.701 79.552 215.949 80.128 215.677 80.912ZM213.837 89.104V78H215.613L215.565 79.424C216.061 78.432 217.037 77.808 218.253 77.808C220.093 77.808 221.597 79.216 221.597 81.76C221.597 84.624 219.565 86.192 217.501 86.192C216.813 86.192 216.173 86.016 215.629 85.744V89.104H213.837ZM225.706 86.192C224.314 86.192 223.114 85.328 223.114 83.792C223.114 81.936 224.842 81.216 227.034 81.216C227.53 81.216 228.026 81.248 228.522 81.312V81.136C228.522 79.984 227.674 79.44 226.778 79.44C226.026 79.44 225.37 79.84 225.018 80.496L223.626 79.776C224.218 78.336 225.61 77.808 226.858 77.808C228.682 77.808 230.266 78.896 230.266 81.088V86H228.554V84.08C228.106 85.552 226.922 86.192 225.706 86.192ZM224.922 83.616C224.922 84.256 225.546 84.56 226.266 84.56C227.274 84.56 228.282 83.968 228.49 82.672C228.01 82.592 227.53 82.56 227.066 82.56C225.722 82.56 224.922 82.896 224.922 83.616ZM235.89 89.28C234.53 89.28 233.33 88.672 232.658 87.632L233.89 86.672C234.338 87.28 235.074 87.712 235.954 87.712C236.978 87.712 238.13 87.088 238.13 85.68V84.304C237.554 85.488 236.562 86 235.506 86C233.81 86 232.146 84.64 232.146 82.048C232.146 79.264 234.082 77.808 236.418 77.808C237.474 77.808 238.626 78.112 239.874 78.848V85.52C239.874 87.984 237.858 89.28 235.89 89.28ZM233.986 81.984C233.986 83.616 235.058 84.368 236.066 84.368C236.994 84.368 237.906 83.76 238.034 82.64V79.968C237.538 79.648 236.962 79.536 236.482 79.536C235.138 79.536 233.986 80.272 233.986 81.984ZM244.331 86.192C242.939 86.192 241.739 85.328 241.739 83.792C241.739 81.936 243.467 81.216 245.659 81.216C246.155 81.216 246.651 81.248 247.147 81.312V81.136C247.147 79.984 246.299 79.44 245.403 79.44C244.651 79.44 243.995 79.84 243.643 80.496L242.251 79.776C242.843 78.336 244.235 77.808 245.483 77.808C247.307 77.808 248.891 78.896 248.891 81.088V86H247.179V84.08C246.731 85.552 245.547 86.192 244.331 86.192ZM243.547 83.616C243.547 84.256 244.171 84.56 244.891 84.56C245.899 84.56 246.907 83.968 247.115 82.672C246.635 82.592 246.155 82.56 245.691 82.56C244.347 82.56 243.547 82.896 243.547 83.616ZM250.931 86V78H252.659L252.563 79.84C252.947 78.464 253.987 77.84 254.995 77.84C255.235 77.84 255.491 77.872 255.715 77.952V80.048C255.267 79.936 254.899 79.872 254.563 79.872C253.283 79.872 252.771 80.784 252.771 82.32V86H250.931Z" fill="#FCFCFC"/>
</svg>
