<svg width="343" height="160" viewBox="0 0 343 160" fill="none" xmlns="http://www.w3.org/2000/svg">
<rect width="343" height="160" fill="#F7F7F7"/>
<rect x="86.5" y="52" width="171" height="56" rx="8" fill="#E62020"/>
<path d="M134.789 68.6492H126.231V70.9508H122.553V86.3934C122.553 87.4361 123.359 88.1049 124.264 88.1049H125.661V90.6623C125.661 91.1934 126.074 91.5869 126.566 91.5869H134.474C134.966 91.5869 135.379 91.1934 135.379 90.682V88.1049H136.658C137.838 88.1049 138.448 87.2393 138.448 86.3147V70.9508H134.789V68.6492ZM124.815 86.0393V73.0164H126.231V73.3508C126.231 73.8426 126.605 74.2557 127.136 74.2557H133.884C134.415 74.2557 134.789 73.8426 134.789 73.3508V73.0164H136.186V86.0393H124.815ZM126.802 78.8984H134.179V76.8328H126.802V78.8984ZM126.802 83.4426H129.281V80.9639H126.802V83.4426ZM127.923 89.8557V88.1049H129.458V89.8557H127.923ZM128.356 72.1311V70.7344H132.664V72.1311H128.356ZM131.523 89.8557V88.1049H133.117V89.8754L131.523 89.8557ZM131.7 83.4426H134.179V80.9639H131.7V83.4426Z" fill="#FCFCFC"/>
<path d="M156.548 86.192C153.476 86.192 151.412 83.696 151.412 80.528C151.412 77.344 153.476 74.832 156.548 74.832C158.468 74.832 160.26 75.776 161.14 77.824L159.732 78.752C159.172 77.28 157.908 76.592 156.644 76.592C154.74 76.592 153.332 78.16 153.332 80.528C153.332 82.88 154.724 84.432 156.644 84.432C157.908 84.432 159.172 83.744 159.732 82.272L161.14 83.168C160.26 85.216 158.468 86.192 156.548 86.192ZM166.632 86.192C164.12 86.192 162.552 84.32 162.552 82C162.552 79.68 164.12 77.808 166.632 77.808C169.112 77.808 170.68 79.68 170.68 82C170.68 84.32 169.112 86.192 166.632 86.192ZM164.392 82C164.392 83.408 165.272 84.448 166.632 84.448C167.96 84.448 168.84 83.408 168.84 82C168.84 80.592 167.96 79.552 166.632 79.552C165.272 79.552 164.392 80.592 164.392 82ZM172.603 86V78H174.427L174.331 79.824C174.683 78.496 175.819 77.808 177.003 77.808C178.411 77.808 179.835 78.832 179.835 80.976V86H177.995V81.424C177.995 80.144 177.195 79.552 176.363 79.552C175.435 79.552 174.443 80.304 174.443 81.792V86H172.603ZM185.196 86.192C183.66 86.192 182.604 85.184 182.604 83.28V79.552H181.308V78H182.604V76.128H184.444L184.348 78H186.124V79.552H184.444V83.136C184.444 84.016 184.78 84.56 185.516 84.56C185.804 84.56 186.172 84.48 186.604 84.304L187.004 85.776C186.364 86.048 185.756 86.192 185.196 86.192ZM188.511 86V78H190.351V86H188.511ZM188.351 76.704V74.544H190.511V76.704H188.351ZM192.509 86V78H194.333L194.237 79.824C194.589 78.496 195.725 77.808 196.909 77.808C198.317 77.808 199.741 78.832 199.741 80.976V86H197.901V81.424C197.901 80.144 197.101 79.552 196.269 79.552C195.341 79.552 194.349 80.304 194.349 81.792V86H192.509ZM208.75 78V86H206.91L207.006 84.24C206.622 85.52 205.63 86.192 204.414 86.192C203.07 86.192 201.838 85.36 201.838 83.2V78H203.678V82.656C203.678 83.92 204.254 84.448 205.086 84.448C206.062 84.448 206.91 83.696 206.91 82.208V78H208.75ZM213.347 86.192C211.955 86.192 210.755 85.328 210.755 83.792C210.755 81.936 212.483 81.216 214.675 81.216C215.171 81.216 215.667 81.248 216.163 81.312V81.136C216.163 79.984 215.315 79.44 214.419 79.44C213.667 79.44 213.011 79.84 212.659 80.496L211.267 79.776C211.859 78.336 213.251 77.808 214.499 77.808C216.323 77.808 217.907 78.896 217.907 81.088V86H216.195V84.08C215.747 85.552 214.563 86.192 213.347 86.192ZM212.563 83.616C212.563 84.256 213.187 84.56 213.907 84.56C214.915 84.56 215.923 83.968 216.131 82.672C215.651 82.592 215.171 82.56 214.707 82.56C213.363 82.56 212.563 82.896 212.563 83.616ZM219.946 86V78H221.674L221.578 79.84C221.962 78.464 223.002 77.84 224.01 77.84C224.25 77.84 224.506 77.872 224.73 77.952V80.048C224.282 79.936 223.914 79.872 223.578 79.872C222.298 79.872 221.786 80.784 221.786 82.32V86H219.946Z" fill="#FCFCFC"/>
</svg>
