<svg width="343" height="160" viewBox="0 0 343 160" fill="none" xmlns="http://www.w3.org/2000/svg">
<rect width="343" height="160" fill="#F7F7F7"/>
<rect x="144" y="52" width="56" height="56" rx="28" fill="#3B8700"/>
<path d="M170.781 87.7705C175.758 87.7705 179.791 83.7377 179.791 78.7607C179.791 73.882 175.758 69.8492 170.781 69.8492C165.882 69.8492 161.85 73.882 161.85 78.7607C161.85 83.7377 165.882 87.7705 170.781 87.7705ZM170.781 85.7049C167.023 85.7049 164.112 82.7344 164.112 78.7607C164.112 74.8852 167.023 71.9148 170.781 71.9148C174.617 71.9148 177.528 74.8852 177.528 78.7607C177.528 82.7344 174.617 85.7049 170.781 85.7049ZM175.581 85.1738L180.577 90.1705L182.151 88.5574L177.174 83.5607L175.581 85.1738Z" fill="#79D279"/>
</svg>
